<?xml version="1.0" encoding="UTF-8" standalone="no"?>
<!DOCTYPE svg PUBLIC "-//W3C//DTD SVG 1.1//EN" "http://www.w3.org/Graphics/SVG/1.1/DTD/svg11.dtd">
<svg version="1.1" xmlns="http://www.w3.org/2000/svg" xmlns:xlink="http://www.w3.org/1999/xlink" preserveAspectRatio="xMidYMid meet" viewBox="0 0 200 200" width="200" height="200"><defs><path d="M200 98.71C200 153.9 155.19 198.71 100 198.71C44.81 198.71 0 153.9 0 98.71C0 43.52 44.81 -1.29 100 -1.29C155.19 -1.29 200 43.52 200 98.71Z" id="e1VugxnJCZ"></path><path d="M89.19 119.48L91.68 119.6L94.14 119.76L96.59 119.97L99.01 120.22L101.41 120.52L103.79 120.87L106.14 121.26L108.48 121.7L110.79 122.18L113.08 122.71L115.35 123.29L117.59 123.91L119.82 124.58L122.02 125.29L124.2 126.05L126.35 126.86L128.48 127.71L130.59 128.61L132.68 129.55L134.74 130.54L136.78 131.58L138.8 132.66L140.79 133.79L142.76 134.96L142.98 135.1L143.19 135.25L143.39 135.4L143.58 135.56L143.76 135.72L143.94 135.89L144.11 136.07L144.27 136.25L144.42 136.44L144.56 136.64L144.7 136.83L144.83 137.04L144.95 137.24L145.06 137.45L145.16 137.67L145.26 137.89L145.34 138.11L145.42 138.33L145.49 138.56L145.55 138.79L145.6 139.02L145.64 139.25L145.68 139.49L145.7 139.73L145.72 139.96L145.72 140.2L145.72 140.44L145.71 140.68L145.69 140.92L145.65 141.15L145.61 141.39L145.56 141.63L145.5 141.86L145.43 142.1L145.36 142.33L145.27 142.56L145.17 142.79L145.06 143.02L144.94 143.24L144.81 143.46L144.67 143.67L144.53 143.88L144.38 144.08L144.22 144.27L144.06 144.45L143.89 144.63L143.71 144.8L143.53 144.96L143.34 145.11L143.14 145.26L142.95 145.39L142.74 145.52L142.54 145.64L142.33 145.75L142.11 145.86L141.89 145.95L141.67 146.04L141.45 146.11L141.22 146.18L140.99 146.24L140.76 146.29L140.52 146.34L140.29 146.37L140.05 146.39L139.82 146.41L139.58 146.42L139.34 146.41L139.1 146.4L138.86 146.38L138.62 146.35L138.38 146.31L138.15 146.26L137.91 146.2L137.68 146.13L137.44 146.05L137.21 145.96L136.99 145.86L136.76 145.75L136.54 145.63L136.32 145.5L134.56 144.46L132.78 143.46L130.98 142.49L129.16 141.57L127.31 140.69L125.44 139.85L123.56 139.06L121.64 138.3L119.71 137.58L117.75 136.91L115.78 136.28L113.78 135.69L111.76 135.14L109.71 134.63L107.65 134.16L105.56 133.74L103.46 133.35L101.33 133.01L99.18 132.71L97.01 132.45L94.82 132.23L92.61 132.05L90.37 131.92L88.12 131.82L85.84 131.77L83.55 131.76L81.23 131.79L78.89 131.86L76.54 131.97L74.16 132.13L71.76 132.32L69.34 132.56L66.91 132.84L64.45 133.16L61.97 133.52L59.47 133.93L56.95 134.37L54.42 134.86L51.86 135.39L49.28 135.96L49.03 136.01L48.79 136.05L48.54 136.08L48.29 136.1L48.04 136.11L47.8 136.11L47.55 136.1L47.31 136.08L47.07 136.06L46.83 136.02L46.6 135.97L46.36 135.92L46.13 135.85L45.91 135.78L45.68 135.7L45.46 135.61L45.25 135.51L45.04 135.4L44.83 135.29L44.62 135.16L44.43 135.03L44.23 134.9L44.04 134.75L43.86 134.6L43.69 134.44L43.52 134.27L43.35 134.1L43.19 133.92L43.04 133.74L42.9 133.54L42.76 133.34L42.63 133.14L42.51 132.93L42.39 132.71L42.29 132.49L42.19 132.27L42.1 132.03L42.02 131.8L41.95 131.55L41.89 131.31L41.84 131.06L41.8 130.81L41.77 130.56L41.75 130.31L41.73 130.07L41.73 129.82L41.74 129.58L41.76 129.33L41.79 129.09L41.83 128.86L41.87 128.62L41.93 128.39L41.99 128.16L42.07 127.93L42.15 127.71L42.24 127.49L42.34 127.27L42.44 127.06L42.56 126.85L42.68 126.65L42.81 126.45L42.94 126.26L43.09 126.07L43.24 125.89L43.4 125.71L43.57 125.54L43.74 125.37L43.92 125.22L44.1 125.06L44.3 124.92L44.49 124.78L44.7 124.65L44.91 124.53L45.13 124.42L45.35 124.31L45.57 124.21L45.81 124.13L46.04 124.05L46.29 123.97L46.53 123.91L49.36 123.29L52.16 122.71L54.94 122.18L57.7 121.7L60.43 121.26L63.15 120.87L65.85 120.52L68.53 120.22L71.18 119.97L73.82 119.76L76.43 119.6L79.03 119.48L81.6 119.41L84.15 119.39L86.68 119.41L89.19 119.48ZM89.01 87.2L91.96 87.35L94.9 87.56L97.84 87.82L100.77 88.14L103.69 88.51L106.6 88.94L109.49 89.43L112.37 89.97L115.23 90.56L118.06 91.21L120.88 91.91L123.67 92.67L126.43 93.48L129.16 94.34L131.86 95.26L134.53 96.23L137.16 97.25L139.75 98.33L142.31 99.45L144.82 100.63L147.28 101.86L149.7 103.15L152.07 104.48L154.39 105.86L154.66 106.04L154.92 106.22L155.17 106.41L155.41 106.61L155.64 106.81L155.86 107.03L156.07 107.25L156.27 107.48L156.46 107.71L156.64 107.96L156.81 108.2L156.97 108.46L157.12 108.72L157.26 108.98L157.38 109.25L157.5 109.52L157.61 109.8L157.71 110.08L157.79 110.36L157.87 110.65L157.93 110.94L157.98 111.23L158.02 111.53L158.05 111.82L158.07 112.12L158.08 112.42L158.08 112.71L158.06 113.01L158.03 113.31L157.99 113.61L157.94 113.9L157.88 114.2L157.81 114.49L157.72 114.79L157.62 115.08L157.51 115.36L157.38 115.65L157.25 115.93L157.1 116.21L156.94 116.48L156.94 116.48L156.59 116.72L156.25 116.94L155.91 117.16L155.57 117.37L155.24 117.57L154.92 117.76L154.59 117.94L154.28 118.11L153.96 118.28L153.65 118.43L153.35 118.58L153.05 118.72L152.75 118.85L152.46 118.97L152.17 119.08L151.88 119.18L151.6 119.28L151.33 119.36L151.05 119.44L150.79 119.51L150.52 119.57L150.26 119.62L150.01 119.66L149.76 119.69L149.51 119.72L149.27 119.73L149.03 119.74L148.8 119.74L148.57 119.73L148.34 119.71L148.12 119.68L147.9 119.64L147.69 119.59L147.48 119.54L147.27 119.48L147.07 119.4L146.88 119.32L146.69 119.23L146.5 119.13L146.31 119.03L144.29 117.82L142.22 116.66L140.1 115.54L137.93 114.47L135.72 113.44L133.46 112.45L131.17 111.52L128.84 110.62L126.48 109.77L124.08 108.97L121.65 108.22L119.2 107.51L116.71 106.84L114.21 106.23L111.68 105.66L109.13 105.14L106.56 104.66L103.98 104.24L101.38 103.86L98.78 103.53L96.16 103.25L93.54 103.02L90.91 102.83L88.28 102.7L85.65 102.61L83.02 102.58L80.39 102.6L77.77 102.66L75.16 102.78L72.56 102.95L69.97 103.17L67.39 103.44L64.84 103.76L62.3 104.13L59.78 104.56L57.29 105.04L54.82 105.57L52.38 106.15L49.97 106.79L47.59 107.48L47.28 107.56L46.97 107.64L46.66 107.7L46.36 107.74L46.05 107.78L45.74 107.8L45.44 107.81L45.13 107.81L44.83 107.79L44.53 107.77L44.23 107.73L43.94 107.68L43.64 107.62L43.35 107.55L43.07 107.47L42.79 107.37L42.51 107.27L42.23 107.16L41.96 107.03L41.7 106.9L41.44 106.75L41.19 106.6L40.94 106.43L40.7 106.26L40.46 106.08L40.24 105.89L40.02 105.69L39.8 105.48L39.6 105.26L39.4 105.03L39.21 104.8L39.03 104.55L38.86 104.3L38.7 104.04L38.55 103.78L38.41 103.5L38.28 103.22L38.16 102.93L38.05 102.63L37.95 102.33L37.86 102.03L37.79 101.72L37.73 101.41L37.68 101.1L37.65 100.8L37.63 100.49L37.62 100.18L37.62 99.88L37.63 99.58L37.66 99.28L37.7 98.98L37.75 98.68L37.81 98.39L37.88 98.1L37.96 97.82L38.05 97.53L38.16 97.26L38.27 96.98L38.4 96.71L38.53 96.45L38.68 96.19L38.83 95.94L38.99 95.69L39.17 95.45L39.35 95.22L39.54 94.99L39.74 94.77L39.95 94.56L40.17 94.35L40.4 94.15L40.63 93.96L40.88 93.79L41.13 93.61L41.39 93.45L41.66 93.3L41.93 93.16L42.21 93.03L42.5 92.91L42.8 92.8L43.1 92.7L45.81 91.91L48.56 91.18L51.33 90.51L54.13 89.91L56.96 89.36L59.8 88.87L62.67 88.44L65.55 88.07L68.45 87.76L71.37 87.51L74.29 87.31L77.23 87.18L80.17 87.1L83.11 87.07L86.06 87.11L89.01 87.2ZM91.26 53.07L94.76 53.2L98.28 53.4L101.8 53.66L105.33 53.97L108.86 54.35L112.38 54.79L115.9 55.3L119.4 55.87L122.88 56.5L126.34 57.19L129.77 57.96L133.18 58.78L136.55 59.68L139.88 60.64L143.17 61.67L146.41 62.77L149.6 63.94L152.73 65.18L155.81 66.49L158.82 67.87L161.77 69.32L164.64 70.85L167.44 72.45L167.76 72.65L168.08 72.87L168.38 73.09L168.67 73.32L168.95 73.57L169.22 73.82L169.47 74.08L169.72 74.35L169.95 74.63L170.17 74.92L170.38 75.21L170.58 75.52L170.76 75.82L170.93 76.14L171.09 76.46L171.24 76.78L171.37 77.11L171.49 77.45L171.6 77.79L171.69 78.13L171.77 78.48L171.84 78.83L171.9 79.18L171.94 79.53L171.97 79.89L171.98 80.24L171.98 80.6L171.97 80.96L171.94 81.32L171.9 81.68L171.84 82.03L171.77 82.39L171.68 82.75L171.58 83.1L171.47 83.45L171.34 83.8L171.2 84.14L171.04 84.48L170.87 84.82L170.68 85.15L170.48 85.47L170.27 85.79L170.04 86.09L169.81 86.38L169.57 86.66L169.31 86.93L169.05 87.18L168.78 87.43L168.5 87.66L168.21 87.88L167.92 88.09L167.62 88.29L167.31 88.47L167 88.64L166.68 88.8L166.35 88.95L166.02 89.08L165.68 89.2L165.34 89.31L165 89.4L164.65 89.48L164.31 89.55L163.95 89.61L163.6 89.65L163.24 89.67L162.89 89.69L162.53 89.69L162.17 89.67L161.81 89.65L161.45 89.61L161.1 89.55L160.74 89.48L160.39 89.39L160.03 89.3L159.68 89.18L159.34 89.05L158.99 88.91L158.65 88.75L158.32 88.58L157.98 88.39L155.55 87L153.04 85.67L150.47 84.41L147.82 83.21L145.12 82.07L142.36 81L139.54 79.98L136.68 79.03L133.76 78.13L130.81 77.3L127.82 76.52L124.8 75.8L121.75 75.14L118.67 74.54L115.57 73.99L112.45 73.5L109.32 73.06L106.18 72.68L103.03 72.35L99.89 72.08L96.74 71.86L93.61 71.69L90.48 71.57L87.37 71.51L84.27 71.49L81.2 71.53L78.16 71.61L75.15 71.74L72.17 71.92L69.23 72.15L66.34 72.43L63.49 72.75L60.69 73.12L57.95 73.53L55.27 73.99L52.65 74.49L50.09 75.04L47.61 75.63L45.2 76.26L42.88 76.93L42.51 77.04L42.14 77.12L41.77 77.2L41.4 77.25L41.04 77.29L40.67 77.32L40.3 77.33L39.94 77.33L39.57 77.31L39.21 77.28L38.86 77.24L38.5 77.18L38.15 77.11L37.8 77.02L37.46 76.92L37.12 76.81L36.79 76.69L36.46 76.55L36.14 76.4L35.82 76.24L35.51 76.06L35.2 75.88L34.91 75.68L34.62 75.47L34.34 75.25L34.06 75.02L33.8 74.78L33.55 74.53L33.3 74.27L33.06 74L32.84 73.71L32.62 73.42L32.42 73.12L32.22 72.81L32.04 72.49L31.87 72.16L31.71 71.82L31.57 71.48L31.44 71.12L31.32 70.76L31.22 70.39L31.13 70.02L31.06 69.65L31 69.28L30.96 68.92L30.93 68.55L30.92 68.18L30.92 67.82L30.94 67.45L30.97 67.09L31.02 66.74L31.07 66.38L31.15 66.03L31.23 65.68L31.33 65.34L31.44 65L31.57 64.67L31.7 64.34L31.85 64.02L32.02 63.7L32.19 63.39L32.37 63.09L32.57 62.79L32.78 62.5L33 62.22L33.23 61.95L33.47 61.68L33.72 61.43L33.98 61.18L34.26 60.94L34.54 60.72L34.83 60.5L35.13 60.3L35.44 60.1L35.76 59.92L36.09 59.75L36.43 59.59L36.78 59.45L37.13 59.32L37.5 59.2L40.16 58.42L42.92 57.7L45.74 57.02L48.65 56.4L51.62 55.82L54.66 55.3L57.76 54.82L60.92 54.4L64.13 54.03L67.39 53.72L70.7 53.46L74.05 53.25L77.43 53.1L80.85 53.01L84.3 52.97L87.77 52.99L91.26 53.07Z" id="a4M4TcMn"></path></defs><g><g><g><use xlink:href="#e1VugxnJCZ" opacity="1" fill="#d01e45" fill-opacity="1"></use></g><g><use xlink:href="#a4M4TcMn" opacity="1" fill="#000000" fill-opacity="1"></use><g><use xlink:href="#a4M4TcMn" opacity="1" fill-opacity="0" stroke="#000000" stroke-width="1" stroke-opacity="0"></use></g></g></g></g></svg>