<?xml version="1.0" encoding="UTF-8" standalone="no"?>
<!DOCTYPE svg PUBLIC "-//W3C//DTD SVG 1.1//EN" "http://www.w3.org/Graphics/SVG/1.1/DTD/svg11.dtd">
<svg version="1.1" xmlns="http://www.w3.org/2000/svg" xmlns:xlink="http://www.w3.org/1999/xlink" preserveAspectRatio="xMidYMid meet" viewBox="0 0 200 200" width="200" height="200"><defs><path d="M480.77 362.33L484.8 362.74L488.78 363.31L492.72 364.03L496.59 364.91L500.41 365.93L504.17 367.1L507.86 368.41L511.48 369.86L515.03 371.45L518.51 373.17L521.91 375.02L525.23 376.99L528.47 379.09L531.62 381.3L534.67 383.64L537.64 386.08L540.5 388.64L543.27 391.3L545.93 394.07L548.49 396.94L550.93 399.9L553.27 402.96L555.48 406.11L557.58 409.34L559.56 412.66L561.4 416.06L563.12 419.54L564.71 423.09L566.16 426.71L567.47 430.41L568.64 434.16L569.66 437.98L570.54 441.86L571.26 445.79L571.83 449.77L572.24 453.8L572.49 457.88L572.57 462L572.49 466.12L572.24 470.2L571.83 474.23L571.26 478.21L570.54 482.14L569.66 486.02L568.64 489.84L567.47 493.59L566.16 497.29L564.71 500.91L563.12 504.46L561.4 507.94L559.56 511.34L557.58 514.66L555.48 517.89L553.27 521.04L550.93 524.1L548.49 527.06L545.93 529.93L543.27 532.7L540.5 535.36L537.64 537.92L534.67 540.36L531.62 542.7L528.47 544.91L525.23 547.01L521.91 548.98L518.51 550.83L515.03 552.55L511.48 554.14L507.86 555.59L504.17 556.9L500.41 558.07L496.59 559.09L492.72 559.97L488.78 560.69L484.8 561.26L480.77 561.67L476.69 561.92L472.57 562L468.45 561.92L464.38 561.67L460.34 561.26L456.36 560.69L452.43 559.97L448.55 559.09L444.74 558.07L440.98 556.9L437.29 555.59L433.66 554.14L430.11 552.55L426.63 550.83L423.23 548.98L419.91 547.01L416.68 544.91L413.53 542.7L410.47 540.36L407.51 537.92L404.64 535.36L401.88 532.7L399.21 529.93L396.66 527.06L394.21 524.1L391.88 521.04L389.66 517.89L387.56 514.66L385.59 511.34L383.74 507.94L382.02 504.46L380.44 500.91L378.99 497.29L377.67 493.59L377.31 492.44L406.1 504.54L406.32 505.56L406.57 506.57L406.87 507.57L407.19 508.55L407.54 509.52L407.93 510.47L408.35 511.41L408.8 512.33L409.29 513.23L409.8 514.12L410.34 514.98L410.9 515.83L411.5 516.65L412.12 517.45L412.77 518.24L413.45 519L414.15 519.73L414.87 520.44L415.62 521.13L416.4 521.79L417.19 522.43L418.01 523.04L418.85 523.62L419.71 524.18L420.59 524.7L421.49 525.2L422.4 525.67L423.34 526.1L424.29 526.51L425.26 526.88L426.25 527.22L427.25 527.52L428.27 527.79L429.3 528.03L430.35 528.23L431.41 528.39L432.48 528.52L433.56 528.61L434.66 528.66L435.76 528.67L436.99 528.63L438.2 528.55L439.4 528.41L440.58 528.24L441.74 528.01L442.89 527.74L444.03 527.43L445.14 527.08L446.23 526.68L447.31 526.24L448.36 525.76L449.39 525.25L450.39 524.69L451.38 524.1L452.33 523.48L453.27 522.81L454.17 522.12L455.05 521.39L455.9 520.63L456.71 519.83L457.5 519.01L458.26 518.16L458.98 517.28L459.67 516.37L460.33 515.43L460.95 514.47L461.54 513.49L462.08 512.48L462.6 511.45L463.07 510.39L463.5 509.32L463.89 508.22L464.24 507.11L464.54 505.98L464.81 504.83L465.03 503.66L465.2 502.48L465.33 501.29L465.41 500.08L465.44 498.86L465.51 498.83L499.81 473.27L501.44 473.25L503.06 473.17L504.66 473.02L506.24 472.81L507.8 472.54L509.34 472.21L510.85 471.82L512.34 471.37L513.8 470.86L515.23 470.3L516.63 469.69L518 469.02L519.34 468.3L520.65 467.53L521.93 466.71L523.17 465.85L524.37 464.94L525.54 463.98L526.67 462.98L527.75 461.94L528.8 460.86L529.8 459.74L530.76 458.58L531.68 457.38L532.55 456.15L533.37 454.88L534.15 453.58L534.87 452.25L535.54 450.89L536.16 449.5L536.73 448.09L537.25 446.64L537.7 445.17L538.1 443.68L538.45 442.17L538.73 440.63L538.95 439.08L539.11 437.5L539.21 435.91L539.24 434.31L539.21 432.7L539.11 431.11L538.95 429.54L538.73 427.99L538.45 426.45L538.11 424.94L537.71 423.45L537.25 421.99L536.74 420.55L536.18 419.14L535.56 417.75L534.89 416.4L534.17 415.07L533.4 413.78L532.58 412.52L531.72 411.29L530.81 410.1L529.85 408.94L528.86 407.83L527.82 406.75L526.74 405.71L525.62 404.72L524.47 403.76L523.28 402.85L522.05 401.99L520.79 401.17L519.49 400.4L518.17 399.68L516.81 399.01L515.43 398.4L514.02 397.83L512.58 397.32L511.11 396.86L509.62 396.47L508.11 396.13L506.58 395.84L505.02 395.62L503.45 395.46L501.86 395.37L500.26 395.33L498.67 395.37L497.1 395.46L495.54 395.62L494.01 395.83L492.49 396.11L491 396.44L489.53 396.83L488.08 397.28L486.65 397.78L485.25 398.33L483.88 398.93L482.54 399.59L481.23 400.29L479.94 401.05L478.69 401.85L477.47 402.69L476.29 403.58L475.14 404.52L474.03 405.49L472.96 406.51L471.92 407.57L470.93 408.66L469.97 409.79L469.06 410.96L468.2 412.16L467.38 413.4L466.6 414.67L465.88 415.97L465.2 417.3L464.57 418.66L463.99 420.05L463.47 421.46L463 422.9L462.58 424.36L462.22 425.84L461.92 427.35L461.68 428.88L461.49 430.42L461.37 431.99L461.31 433.57L436.16 468.74L435.69 468.74L435.22 468.74L434.74 468.74L434.28 468.76L433.81 468.78L433.35 468.81L432.88 468.84L432.43 468.88L431.97 468.93L431.52 468.99L431.06 469.05L430.62 469.12L430.17 469.19L429.73 469.28L429.28 469.36L428.85 469.46L428.41 469.56L427.98 469.67L427.55 469.78L427.12 469.9L426.69 470.03L426.27 470.16L425.85 470.3L425.43 470.45L425.02 470.6L424.6 470.76L424.19 470.92L423.79 471.09L423.38 471.27L422.98 471.45L422.58 471.64L422.18 471.83L421.79 472.03L421.4 472.24L421.01 472.45L420.63 472.67L420.24 472.89L419.86 473.12L419.49 473.36L419.11 473.6L372.88 454.16L372.9 453.8L373.31 449.77L373.88 445.79L374.61 441.86L375.48 437.98L376.5 434.16L377.67 430.41L378.99 426.71L380.44 423.09L382.02 419.54L383.74 416.06L385.59 412.66L387.56 409.34L389.66 406.11L391.88 402.96L394.21 399.9L396.66 396.94L399.21 394.07L401.88 391.3L404.64 388.64L407.51 386.08L410.47 383.64L413.53 381.3L416.68 379.09L419.91 376.99L423.23 375.02L426.63 373.17L430.11 371.45L433.66 369.86L437.29 368.41L440.98 367.1L444.74 365.93L448.55 364.91L452.43 364.03L456.36 363.31L460.34 362.74L464.38 362.33L468.45 362.08L472.57 362L476.69 362.08L480.77 362.33ZM437.47 475.6L438.44 475.71L439.4 475.85L440.35 476.03L441.28 476.26L442.2 476.52L443.1 476.81L443.99 477.14L444.86 477.51L445.71 477.91L446.55 478.35L447.36 478.81L448.15 479.31L448.92 479.84L449.67 480.4L450.39 480.99L451.09 481.6L451.77 482.25L452.42 482.92L453.04 483.61L453.63 484.33L454.2 485.07L454.74 485.84L455.24 486.63L455.72 487.44L456.16 488.26L456.57 489.11L456.94 489.98L457.28 490.86L457.59 491.76L457.86 492.68L458.09 493.61L458.28 494.56L458.43 495.52L458.54 496.49L458.62 497.47L458.65 498.47L458.64 499.47L458.58 500.47L458.49 501.45L458.35 502.43L458.17 503.38L457.96 504.33L457.7 505.26L457.41 506.17L457.09 507.07L456.73 507.95L456.33 508.81L455.9 509.65L455.44 510.47L454.94 511.27L454.42 512.05L453.86 512.8L453.28 513.53L452.66 514.24L452.02 514.92L451.35 515.58L450.66 516.2L449.94 516.8L449.19 517.37L448.43 517.91L447.64 518.42L446.83 518.9L445.99 519.34L445.14 519.76L444.27 520.13L443.38 520.48L442.47 520.78L441.55 521.05L440.61 521.29L439.65 521.48L438.69 521.63L437.7 521.75L436.71 521.82L435.71 521.85L434.95 521.84L434.19 521.81L433.45 521.75L432.71 521.67L431.98 521.57L431.26 521.45L430.54 521.31L429.83 521.14L429.14 520.95L428.45 520.74L427.77 520.51L427.1 520.26L426.44 520L425.79 519.71L425.16 519.4L424.53 519.08L423.92 518.73L423.31 518.37L422.72 517.99L422.15 517.6L421.58 517.19L421.03 516.76L420.49 516.31L419.97 515.85L419.46 515.38L418.96 514.89L418.48 514.38L418.02 513.86L417.57 513.33L417.14 512.78L416.72 512.22L416.32 511.65L415.93 511.07L415.57 510.47L415.22 509.86L414.89 509.25L414.58 508.62L414.28 507.98L428.97 514.15L429.65 514.42L430.33 514.66L431.02 514.86L431.71 515.04L432.4 515.18L433.09 515.3L433.79 515.38L434.48 515.44L435.17 515.47L435.86 515.47L436.54 515.44L437.23 515.38L437.9 515.29L438.58 515.18L439.24 515.04L439.9 514.88L440.55 514.69L441.19 514.47L441.83 514.22L442.45 513.96L443.06 513.66L443.66 513.34L444.25 513L444.82 512.64L445.38 512.25L445.92 511.83L446.45 511.4L446.96 510.94L447.45 510.46L447.93 509.96L448.38 509.43L448.82 508.89L449.23 508.32L449.62 507.74L449.99 507.13L450.34 506.5L450.66 505.86L450.96 505.19L451.22 504.51L451.46 503.83L451.67 503.15L451.84 502.46L451.99 501.77L452.1 501.08L452.19 500.39L452.24 499.69L452.27 499L452.27 498.32L452.24 497.63L452.18 496.95L452.1 496.27L451.98 495.6L451.84 494.93L451.68 494.27L451.49 493.62L451.27 492.98L451.03 492.35L450.76 491.73L450.46 491.11L450.15 490.51L449.8 489.93L449.44 489.35L449.05 488.79L448.63 488.25L448.2 487.72L447.74 487.21L447.26 486.72L446.76 486.25L446.23 485.79L445.69 485.36L445.12 484.94L444.53 484.55L443.93 484.18L443.3 483.83L442.65 483.51L441.99 483.22L427.31 477.04L427.52 476.96L427.74 476.88L427.96 476.81L428.17 476.73L428.39 476.66L428.61 476.59L428.82 476.52L429.04 476.46L429.26 476.4L429.47 476.34L429.69 476.28L429.9 476.22L430.12 476.17L430.33 476.12L430.55 476.07L430.76 476.02L430.98 475.97L431.19 475.93L431.41 475.89L431.62 475.85L431.84 475.82L432.05 475.78L432.27 475.75L432.48 475.72L432.69 475.69L432.91 475.67L433.12 475.64L433.34 475.62L433.55 475.6L433.77 475.58L433.98 475.57L434.2 475.56L434.41 475.54L434.63 475.53L434.84 475.53L435.06 475.52L435.27 475.52L435.49 475.52L436.48 475.54L437.47 475.6ZM502.88 407.95L504.17 408.1L505.43 408.32L506.68 408.6L507.9 408.94L509.1 409.33L510.27 409.78L511.41 410.28L512.53 410.84L513.62 411.44L514.67 412.09L515.69 412.79L516.68 413.53L517.63 414.32L518.54 415.15L519.41 416.03L520.24 416.94L521.03 417.89L521.78 418.87L522.47 419.89L523.13 420.95L523.73 422.03L524.28 423.15L524.78 424.3L525.23 425.47L525.62 426.67L525.96 427.89L526.24 429.13L526.46 430.4L526.62 431.68L526.72 432.99L526.75 434.31L526.72 435.63L526.62 436.93L526.46 438.22L526.24 439.48L525.96 440.73L525.62 441.95L525.23 443.15L524.78 444.32L524.28 445.47L523.73 446.58L523.13 447.67L522.48 448.73L521.78 449.75L521.03 450.73L520.24 451.68L519.41 452.6L518.54 453.47L517.63 454.3L516.68 455.09L515.7 455.83L514.67 456.53L513.62 457.18L512.53 457.79L511.42 458.34L510.27 458.84L509.1 459.29L507.9 459.68L506.68 460.02L505.43 460.3L504.17 460.52L502.88 460.68L501.58 460.78L500.26 460.81L498.94 460.78L497.63 460.68L496.35 460.52L495.08 460.3L493.84 460.02L492.62 459.68L491.42 459.29L490.25 458.84L489.1 458.34L487.98 457.79L486.9 457.18L485.84 456.53L484.82 455.83L483.84 455.09L482.89 454.3L481.98 453.47L481.1 452.6L480.27 451.68L479.48 450.73L478.74 449.75L478.04 448.73L477.39 447.67L476.78 446.58L476.23 445.47L475.73 444.32L475.28 443.15L474.89 441.95L474.55 440.73L474.27 439.48L474.05 438.22L473.89 436.93L473.8 435.63L473.76 434.31L473.8 432.99L473.89 431.68L474.05 430.4L474.27 429.13L474.55 427.89L474.89 426.67L475.28 425.47L475.73 424.3L476.23 423.15L476.78 422.03L477.39 420.95L478.04 419.89L478.74 418.87L479.48 417.89L480.27 416.94L481.1 416.03L481.98 415.15L482.89 414.32L483.84 413.53L484.82 412.79L485.84 412.09L486.9 411.44L487.98 410.84L489.1 410.28L490.25 409.78L491.42 409.33L492.62 408.94L493.84 408.6L495.08 408.32L496.35 408.1L497.63 407.95L498.94 407.85L500.26 407.82L501.58 407.85L502.88 407.95ZM497.65 414.47L496.38 414.68L495.15 414.96L493.94 415.32L492.76 415.76L491.62 416.26L490.52 416.83L489.46 417.47L488.45 418.17L487.48 418.93L486.56 419.74L485.69 420.61L484.87 421.53L484.11 422.5L483.41 423.52L482.78 424.58L482.21 425.68L481.7 426.82L481.27 427.99L480.91 429.2L480.62 430.44L480.42 431.71L480.29 433L480.25 434.31L480.29 435.62L480.42 436.91L480.62 438.18L480.91 439.42L481.27 440.63L481.7 441.8L482.21 442.94L482.78 444.04L483.42 445.1L484.12 446.12L484.87 447.09L485.69 448.01L486.56 448.88L487.48 449.69L488.45 450.45L489.47 451.15L490.53 451.79L491.63 452.36L492.77 452.86L493.94 453.3L495.15 453.66L496.39 453.94L497.65 454.15L498.94 454.27L500.26 454.32L501.57 454.27L502.86 454.15L504.13 453.94L505.37 453.66L506.58 453.3L507.75 452.86L508.89 452.36L509.99 451.79L511.05 451.15L512.07 450.45L513.04 449.69L513.96 448.88L514.83 448.01L515.64 447.09L516.4 446.12L517.1 445.1L517.74 444.04L518.31 442.94L518.81 441.8L519.24 440.63L519.6 439.42L519.89 438.18L520.1 436.91L520.22 435.62L520.26 434.31L520.22 433L520.1 431.71L519.89 430.44L519.6 429.2L519.24 427.99L518.81 426.82L518.31 425.68L517.74 424.58L517.1 423.52L516.4 422.5L515.64 421.53L514.83 420.61L513.96 419.74L513.04 418.93L512.07 418.17L511.05 417.47L509.99 416.83L508.89 416.26L507.75 415.76L506.58 415.32L505.37 414.96L504.13 414.68L502.86 414.47L501.57 414.34L500.26 414.3L498.94 414.34L497.65 414.47Z" id="a34rolyyld"></path><path d="M584.94 397.85L584.98 397.44L585.04 397.03L585.11 396.63L585.2 396.24L585.31 395.85L585.43 395.47L585.56 395.09L585.71 394.72L585.87 394.36L586.04 394L586.23 393.66L586.43 393.32L586.65 392.99L586.87 392.67L587.11 392.36L587.36 392.06L587.62 391.76L587.89 391.48L588.17 391.21L588.46 390.95L588.76 390.7L589.08 390.47L589.4 390.24L589.73 390.03L590.06 389.83L590.41 389.64L590.76 389.46L591.13 389.3L591.5 389.15L591.87 389.02L592.25 388.9L592.64 388.8L593.04 388.71L593.44 388.63L593.85 388.58L594.26 388.53L594.67 388.51L595.09 388.5L631.5 388.5L631.5 406.5L677.57 406.5L677.57 434.5L584.91 434.5L584.91 398.69L584.91 398.27L584.94 397.85Z" id="cQih4bQSZ"></path><path d="M615.12 396.11L623.75 388.5L653.79 388.5L653.98 388.5L654.18 388.51L654.37 388.53L654.56 388.56L654.75 388.59L654.94 388.63L655.12 388.68L655.31 388.73L655.49 388.8L655.67 388.87L655.85 388.94L656.03 389.03L656.2 389.12L656.38 389.22L656.54 389.32L656.71 389.44L656.87 389.56L657.03 389.69L657.18 389.82L657.33 389.96L658.9 391.53L689.17 421.81L670.2 440.78L615.12 396.11Z" id="cieedNkf9"></path><path d="M750.02 403.21L750.47 403.26L750.92 403.32L751.35 403.4L751.79 403.5L752.21 403.61L752.63 403.74L753.04 403.89L753.44 404.05L753.84 404.23L754.23 404.42L754.6 404.62L754.97 404.84L755.33 405.08L755.68 405.32L756.02 405.58L756.35 405.86L756.67 406.14L756.98 406.44L757.28 406.74L757.56 407.06L757.83 407.39L758.09 407.73L758.34 408.08L758.57 408.44L758.79 408.81L759 409.19L759.19 409.58L759.36 409.97L759.53 410.38L759.67 410.79L759.8 411.21L759.92 411.63L760.01 412.06L760.09 412.5L760.16 412.94L760.2 413.39L760.23 413.85L760.24 414.31L760.24 516.38L760.23 516.84L760.2 517.29L760.16 517.74L760.09 518.19L760.01 518.62L759.92 519.06L759.8 519.48L759.67 519.9L759.53 520.31L759.36 520.71L759.19 521.11L759 521.5L758.79 521.87L758.57 522.24L758.34 522.6L758.09 522.95L757.83 523.29L757.56 523.62L757.28 523.94L756.98 524.25L756.67 524.55L756.35 524.83L756.02 525.1L755.68 525.36L755.33 525.61L754.97 525.84L754.6 526.06L754.23 526.27L753.84 526.46L753.44 526.64L753.04 526.8L752.63 526.94L752.21 527.07L751.79 527.19L751.35 527.28L750.92 527.36L750.47 527.43L750.02 527.47L749.57 527.5L749.11 527.51L596.03 527.51L595.58 527.5L595.12 527.47L594.67 527.43L594.23 527.36L593.79 527.28L593.36 527.19L592.93 527.07L592.52 526.94L592.11 526.8L591.7 526.64L591.31 526.46L590.92 526.27L590.54 526.06L590.17 525.84L589.81 525.61L589.46 525.36L589.12 525.1L588.79 524.83L588.47 524.55L588.17 524.25L587.87 523.94L587.58 523.62L587.31 523.29L587.05 522.95L586.81 522.6L586.57 522.24L586.35 521.87L586.15 521.5L585.96 521.11L585.78 520.71L585.62 520.31L585.47 519.9L585.34 519.48L585.23 519.06L585.13 518.62L585.05 518.19L584.99 517.74L584.94 517.29L584.92 516.84L584.91 516.38L584.91 417.51L654.24 417.51L654.43 417.51L654.62 417.5L654.81 417.48L655 417.45L655.19 417.42L655.38 417.38L655.57 417.33L655.76 417.28L655.94 417.21L656.12 417.14L656.3 417.07L656.48 416.98L656.65 416.89L656.82 416.79L656.99 416.69L657.16 416.57L657.32 416.45L657.47 416.32L657.63 416.19L657.77 416.05L670.64 403.18L749.11 403.18L749.57 403.19L750.02 403.21Z" id="b23owDImln"></path><path d="M643.57 490.5L643.57 534.17L613.91 534.17L613.91 479.65L613.92 478.92L613.96 478.2L614.04 477.49L614.14 476.79L614.26 476.09L614.42 475.41L614.6 474.74L614.81 474.07L615.04 473.42L615.29 472.78L615.57 472.15L615.88 471.54L616.2 470.94L616.55 470.35L616.92 469.78L617.31 469.23L617.72 468.69L618.16 468.16L618.61 467.66L619.08 467.17L619.56 466.7L620.07 466.25L620.59 465.82L621.13 465.41L621.69 465.01L622.26 464.64L622.85 464.3L623.45 463.97L624.06 463.67L624.69 463.39L625.33 463.13L625.98 462.9L626.64 462.69L627.32 462.51L628 462.36L628.69 462.23L629.4 462.13L630.11 462.06L630.83 462.01L631.56 462L714.59 462L715.31 462.01L716.04 462.06L716.75 462.13L717.45 462.23L718.14 462.36L718.83 462.51L719.5 462.69L720.17 462.9L720.82 463.13L721.46 463.39L722.09 463.67L722.7 463.97L723.3 464.3L723.89 464.64L724.46 465.01L725.01 465.41L725.55 465.82L726.08 466.25L726.58 466.7L727.07 467.17L727.54 467.66L727.99 468.16L728.42 468.69L728.83 469.23L729.22 469.78L729.59 470.35L729.94 470.94L730.27 471.54L730.57 472.15L730.85 472.78L731.11 473.42L731.34 474.07L731.55 474.74L731.73 475.41L731.88 476.09L732.01 476.79L732.11 477.49L732.18 478.2L732.22 478.92L732.24 479.65L732.24 534.17L701.91 534.17L701.91 490.5L643.57 490.5Z" id="b1faB75iJz"></path><path d="M972.56 462.57C972.56 462.38 972.57 462.19 972.57 462C972.57 406.77 927.8 362 872.57 362C817.35 362 772.56 406.77 772.56 462C772.56 462.19 772.57 462.38 772.57 462.57C772.88 407.6 817.53 363.14 872.56 363.14C927.6 363.14 972.24 407.6 972.56 462.57Z" id="a4NNyltFFw"></path><path d="M972.56 461.43C972.56 461.63 972.57 461.81 972.57 462C972.57 517.23 927.8 562 872.57 562C817.35 562 772.56 517.23 772.56 462C772.56 461.81 772.57 461.63 772.57 461.43C772.88 516.4 817.53 560.86 872.57 560.86C927.6 560.86 972.24 516.4 972.56 461.43Z" id="c1gOAmaWhG"></path><path d="M923.88 453.78C900.64 453.78 870.43 439.44 870.43 425.46C870.43 411.48 889.26 400.14 912.5 400.14C930.26 400.14 953.86 416.46 962.86 418.3C963.57 419.82 964.08 420.91 964.77 422.62C964.77 436.6 947.11 453.78 923.88 453.78Z" id="c7VG7UNKy"></path><path d="M838.05 420.11C852.3 438.47 853.83 465.66 842.79 474.24C831.75 482.81 812.31 469.52 798.06 451.16C787.17 437.14 794.44 414.42 790.37 406.18C790.92 405.17 791.6 403.98 792.3 402.87C803.35 394.29 823.8 401.76 838.05 420.11Z" id="axygRZ6yV"></path><path d="M866.83 418.35C851.34 422.9 838.55 430.18 831.88 444.35C827.12 440.3 795.54 406.7 792.27 402.93C820.27 365.78 858.75 362.29 866.23 362.29C873.71 362.29 929.24 354.59 962.87 418.29C956.62 418.26 908.39 418.55 866.83 418.35Z" id="c1sT7KlEt5"></path><path d="M863.17 510.16C877.19 491.63 899.77 478.99 910.92 487.42C922.07 495.86 917.56 522.18 903.54 540.71C892.83 554.87 871.88 555.77 864.98 561.85C863.88 561.81 863.24 561.79 862.15 561.64C851 553.2 849.15 528.69 863.17 510.16Z" id="c19Qvyjxog"></path><path d="M911.98 478.95C915.92 463.28 916.75 448.94 907.92 436C913.82 433.95 959.86 423.53 964.77 422.63C982.58 465.6 966.06 500.53 962.27 506.98C958.47 513.43 936.93 565.19 864.98 561.85C868.18 556.47 890.72 514.66 911.98 478.95Z" id="duu2eqsui"></path><path d="M838.38 489.34C850.06 500.49 863.07 506.72 878.69 505.42C877.55 511.57 863.85 556.94 862.22 561.65C816.05 555.92 793.83 524.31 790.1 517.83C786.36 511.35 751.98 467.06 790.41 406.14C793.5 411.57 817.81 453.22 838.38 489.34Z" id="c2MArLPDAz"></path><path d="M918.02 462C918.02 487.09 897.65 507.45 872.56 507.45C847.47 507.45 827.11 487.09 827.11 462C827.11 436.91 847.47 416.55 872.56 416.55C897.65 416.55 918.02 436.91 918.02 462Z" id="d1WDjrX2XP"></path><clipPath id="clipj2AqItYb3c"><use xlink:href="#d1WDjrX2XP" opacity="1"></use></clipPath><path d="M572.57 726.61C572.57 732.98 568.62 738.64 562.67 740.75C559.73 742.13 545.02 749.05 518.55 761.5L522.55 707.11L522.55 616.89L518.55 562.5C545.02 574.95 559.73 581.87 562.67 583.25C568.62 585.36 572.57 591.02 572.57 597.39C572.57 623.23 572.57 713.69 572.57 726.61Z" id="dWjz2dnaT"></path><path d="M522.55 616.89C522.55 587.87 522.55 571.75 522.55 568.53C522.55 562.52 515.14 559.72 511.18 564.22C497.64 576.62 389.33 675.86 375.79 688.26C371.29 692.42 371.55 699.62 376.33 703.46C376.33 703.46 382.95 709.64 385.35 711.35C389.03 713.98 393.86 714.28 397.51 711.61C414.18 698.98 455.86 667.4 522.55 616.89Z" id="e1V4ZqOYg5"></path><path d="M522.55 707.11C522.55 736.13 522.55 752.25 522.55 755.47C522.55 761.48 515.14 764.28 511.18 759.78C497.64 747.38 389.33 648.14 375.79 635.74C371.29 631.58 371.55 624.38 376.33 620.54C376.33 620.54 382.95 614.36 385.35 612.65C389.03 610.02 393.86 609.72 397.51 612.39C414.18 625.02 455.86 656.6 522.55 707.11Z" id="g1KFgQIHJ7"></path><path d="M762.56 587.38C768.08 587.38 772.56 591.85 772.56 597.38C772.56 625.59 772.56 700.24 772.56 728.45C772.56 733.97 768.08 738.45 762.56 738.45C724.56 738.45 620.57 738.45 582.57 738.45C577.05 738.45 572.57 733.97 572.57 728.45C572.57 700.24 572.57 625.59 572.57 597.38C572.57 591.85 577.05 587.38 582.57 587.38C620.57 587.38 724.56 587.38 762.56 587.38Z" id="li8mj4dbF"></path><path d="M763.38 587.41L763.78 587.45L764.18 587.51L764.58 587.58L764.96 587.67L765.35 587.77L765.72 587.89L766.09 588.02L766.45 588.16L766.81 588.32L767.16 588.49L767.5 588.68L767.83 588.87L768.15 589.08L768.47 589.31L768.77 589.54L769.07 589.78L769.36 590.04L769.63 590.31L769.9 590.58L770.15 590.87L770.4 591.16L770.63 591.47L770.85 591.79L771.06 592.11L771.26 592.44L771.45 592.78L771.62 593.13L771.78 593.48L771.92 593.85L772.05 594.22L772.17 594.59L772.27 594.97L772.36 595.36L772.43 595.75L772.49 596.15L772.53 596.56L772.55 596.96L772.56 597.38L772.56 613.18L706.55 613.18L706.55 587.38L762.56 587.38L762.97 587.38L763.38 587.41Z" id="c2FG9Gzgn4"></path><path d="M641.5 613.18L641.5 587.38L706.55 587.38L706.55 613.18L641.5 613.18Z" id="d3G0OQUaAE"></path><path d="M572.57 613.18L572.57 597.38L572.58 596.96L572.61 596.56L572.65 596.15L572.7 595.75L572.78 595.36L572.86 594.97L572.97 594.59L573.08 594.22L573.21 593.85L573.36 593.48L573.52 593.13L573.69 592.78L573.87 592.44L574.07 592.11L574.28 591.79L574.5 591.47L574.74 591.16L574.98 590.87L575.24 590.58L575.5 590.31L575.78 590.04L576.06 589.78L576.36 589.54L576.67 589.31L576.98 589.08L577.31 588.87L577.64 588.68L577.98 588.49L578.32 588.32L578.68 588.16L579.04 588.02L579.41 587.89L579.79 587.77L580.17 587.67L580.56 587.58L580.95 587.51L581.35 587.45L581.75 587.41L582.16 587.38L582.57 587.38L641.5 587.38L641.5 613.18L572.57 613.18Z" id="a1TXRHl3ww"></path><path d="M640.83 663.84C644.15 660.52 649.52 660.52 652.84 663.84C654.94 665.93 655.21 666.2 657.3 668.3C660.62 671.61 660.62 676.99 657.3 680.31C649.25 688.36 631.11 706.5 623.06 714.55C619.74 717.87 614.37 717.87 611.05 714.55C608.95 712.45 608.68 712.18 606.59 710.09C603.27 706.77 603.27 701.39 606.59 698.08C614.64 690.03 632.78 671.89 640.83 663.84Z" id="e1lMyevW1v"></path><path d="M657.3 668.73C660.62 672.04 660.62 677.42 657.3 680.74C655.21 682.83 654.94 683.1 652.84 685.2C649.52 688.52 644.15 688.52 640.83 685.2C632.78 677.15 614.64 659.01 606.59 650.96C603.27 647.64 603.27 642.26 606.59 638.95C608.68 636.85 608.95 636.58 611.05 634.49C614.37 631.17 619.74 631.17 623.06 634.49C631.11 642.54 649.25 660.68 657.3 668.73Z" id="a4L5AnAKld"></path><path d="M735.45 693.74C740.14 693.74 743.95 697.54 743.95 702.24C743.95 705.2 743.95 705.58 743.95 708.54C743.95 713.23 740.14 717.04 735.45 717.04C724.07 717.04 698.42 717.04 687.03 717.04C682.34 717.04 678.54 713.23 678.54 708.54C678.54 705.58 678.54 705.2 678.54 702.24C678.54 697.54 682.34 693.74 687.03 693.74C698.42 693.74 724.07 693.74 735.45 693.74Z" id="a187RJixQ"></path><path d="M844.21 656.8C844.21 662.91 848.82 667.92 854.43 667.92C860.14 667.92 864.65 662.91 864.65 656.8C864.75 650.69 860.14 645.68 854.43 645.68C848.72 645.68 844.21 650.69 844.21 656.8ZM880.78 656.8C880.78 662.91 885.39 667.92 891 667.92C896.71 667.92 901.22 662.91 901.22 656.8C901.22 650.69 896.71 645.68 891 645.68C885.29 645.68 880.78 650.69 880.78 656.8Z" id="b2IuuXN8oR"></path><path d="M805.44 561.62C794.12 561.62 784.9 570.84 784.9 582.26C784.9 595.8 784.9 704.17 784.9 717.72C784.9 729.14 794.12 738.36 805.44 738.36C813.01 738.36 850.89 738.36 919.06 738.36L913.75 719.82L926.57 731.74L938.69 742.96L960.23 762C960.23 654.15 960.23 594.24 960.23 582.26C960.23 570.84 951.02 561.62 939.69 561.62C912.84 561.62 818.86 561.62 805.44 561.62ZM894.41 684.35C907.53 680.65 912.54 672.43 912.54 672.43C908.44 675.13 904.53 677.04 901.02 678.34C896.01 680.44 891.2 681.85 886.49 682.65C876.88 684.45 868.06 683.95 860.54 682.55C854.83 681.45 849.92 679.84 845.82 678.24C843.51 677.34 841.01 676.24 838.5 674.83C838.2 674.63 837.9 674.53 837.6 674.33C837.4 674.23 837.3 674.13 837.2 674.03C835.4 673.03 834.39 672.33 834.39 672.33C834.39 672.33 839.2 680.34 851.93 684.15C848.92 687.96 845.21 692.47 845.21 692.47C823.07 691.77 814.66 677.24 814.66 677.24C814.66 644.98 829.08 618.83 829.08 618.83C843.51 608.01 857.24 608.31 857.24 608.31C857.34 608.43 858.14 609.39 858.24 609.51C840.21 614.72 831.89 622.64 831.89 622.64C831.89 622.64 834.09 621.43 837.8 619.73C848.52 615.02 857.04 613.72 860.54 613.42C861.15 613.32 861.65 613.22 862.25 613.22C868.36 612.42 875.27 612.22 882.49 613.02C892 614.12 902.22 616.92 912.64 622.64C912.64 622.64 904.73 615.12 887.7 609.91C887.84 609.75 888.96 608.47 889.1 608.31C889.1 608.31 902.82 608.01 917.25 618.83C917.25 618.83 931.68 644.98 931.68 677.24C931.68 677.24 923.16 691.77 901.02 692.47C901.02 692.47 897.41 688.16 894.41 684.35Z" id="bRRTJM1yC"></path><path d="M472.88 762C528.11 762 572.88 806.77 572.88 862C572.88 917.23 528.11 962 472.88 962C417.65 962 372.88 917.23 372.88 862C372.88 806.77 417.65 762 472.88 762" id="eGOgRyMyH"></path><radialGradient id="gradientabOXTxsar" gradientUnits="userSpaceOnUse" cx="472.88" cy="862" dx="469.26" dy="857.97" r="5.42"><stop style="stop-color: #000000;stop-opacity: 1" offset="91.34100000000001%"></stop><stop style="stop-color: #000000;stop-opacity: 0" offset="100%"></stop></radialGradient><path d="M472.39 763.18C526.48 763.18 570.33 807.03 570.33 861.12C570.33 915.21 526.48 959.06 472.39 959.06C418.3 959.06 374.45 915.21 374.45 861.12C374.45 807.03 418.3 763.18 472.39 763.18" id="a4UGg4GYGK"></path><path d="M382.94 861.12C382.94 910.52 422.99 950.57 472.39 950.57C521.79 950.57 561.84 910.52 561.84 861.12C561.84 811.72 521.79 771.67 472.39 771.67C422.99 771.67 382.94 811.72 382.94 861.12" id="b1TxcnQdX7"></path><path d="M452.42 847.41C452.07 847.21 451.71 847 451.37 846.79C448 844.7 444.95 842.14 442.32 839.18C435.4 831.37 431.79 821.17 432.27 810.75C432.33 809.59 432.42 808.42 432.58 807.27C432.73 806.12 432.93 804.99 433.18 803.87C433.56 802.14 434 800.79 434.09 800.45C434.61 798.81 435.16 797.54 435.27 797.21C435.73 796.11 436.24 795.03 436.79 793.97C437.37 792.85 438.02 791.76 438.7 790.71C439.65 789.25 440.52 788.16 440.73 787.87C441.5 786.88 442.33 785.91 443.2 785C444.51 783.61 445.68 782.61 445.95 782.35C446.92 781.49 447.95 780.69 449 779.93C449.81 779.34 450.49 778.91 450.66 778.8C426.87 790.95 417.12 819.87 428.69 843.95C428.85 844.29 428.99 844.56 429.02 844.63C429.1 844.79 429.16 844.91 429.18 844.94C429.2 845.01 429.24 845.07 429.27 845.13C429.34 845.2 429.36 845.19 429.46 845.18C429.98 845.18 430.5 845.18 431.01 845.19C432.45 845.22 433.6 845.34 433.89 845.35C452.07 847.07 466.81 860.84 469.77 878.86C470.42 882.87 470.46 886.96 469.9 890.98C468.83 898.57 465.6 905.69 460.6 911.49C457.74 914.82 454.35 917.66 450.58 919.91C443.04 924.36 434.27 926.23 425.57 925.25C424 925.07 422.44 924.79 420.9 924.43C419.9 924.2 418.91 923.92 417.94 923.61C422.33 925.56 426.98 926.85 431.74 927.44C436.19 927.98 440.69 927.93 445.12 927.27C453.04 926.09 460.56 922.99 467 918.23C471.74 914.75 475.81 910.44 479.04 905.53C479.25 905.21 479.41 904.95 479.45 904.89C479.5 904.8 479.62 904.67 479.61 904.58C479.55 904.44 479.48 904.31 479.39 904.19C478.99 903.44 478.7 902.81 478.62 902.66C477.88 901.11 477.4 899.81 477.27 899.49C476.44 897.31 475.81 895.06 475.39 892.77C474.47 887.85 474.47 882.8 475.39 877.87C476.18 873.69 477.63 869.66 479.7 865.94C486.7 853.22 500.03 845.28 514.56 845.18C516.03 845.17 517.22 845.26 517.51 845.27C518.93 845.36 520.06 845.52 520.35 845.55C521.75 845.74 522.85 845.99 523.13 846.03C524.49 846.32 525.55 846.63 525.82 846.7C527.13 847.07 528.15 847.44 528.41 847.53C529.71 847.99 530.71 848.44 530.97 848.55C532.26 849.11 533.25 849.64 533.5 849.76C534.74 850.42 535.69 851.02 535.94 851.15C536.68 851.62 537.42 852.1 538.13 852.62C539.24 853.41 540.08 854.1 540.29 854.27C541.02 854.86 541.72 855.48 542.4 856.12C543.49 857.15 544.29 858.04 544.5 858.25C545.5 859.35 546.23 860.29 546.43 860.52C547.11 861.39 547.76 862.29 548.37 863.21C549 864.16 549.59 865.14 550.13 866.13C550.89 867.53 551.57 868.96 552.16 870.44C552.8 872.04 553.33 873.68 553.77 875.35C552.59 866.43 548.99 858 543.36 850.99C539.21 845.82 534.08 841.54 528.25 838.4C522.27 835.18 515.69 833.24 508.93 832.7C508.35 832.66 507.78 832.62 507.2 832.59C483.5 849.83 465.23 854.77 452.42 847.41Z" id="a4THF5rw6"></path><path d="M742.71 764.37C658.94 764.37 612.4 764.37 603.1 764.37C591.78 764.37 587.6 768.54 587.6 779.86C587.6 793.53 587.6 902.81 587.6 916.47C587.6 917.75 587.66 918.94 587.77 920.05C588.03 922.52 588.07 924.91 590.37 927.64C590.6 927.91 592.94 929.65 592.94 929.65C594.21 930.27 595.07 930.73 596.49 931.3C603.37 934.18 658.36 957.22 665.24 960.1C668.81 961.74 670.3 962.38 672.89 962.32C672.89 962.32 672.89 962.32 672.89 962.33C672.89 962.33 672.9 962.33 672.9 962.33C672.9 962.33 672.91 962.33 672.91 962.33C672.91 962.32 672.91 962.32 672.91 962.32C675.5 962.38 677 961.74 680.57 960.1C687.44 957.22 742.44 934.18 749.31 931.3C750.74 930.73 751.6 930.27 752.86 929.65C752.86 929.65 755.21 927.91 755.43 927.64C757.73 924.91 757.78 922.52 758.03 920.05C758.15 918.94 758.2 917.75 758.2 916.47C758.2 902.81 758.2 793.53 758.2 779.86C758.2 768.54 754.02 764.37 742.71 764.37" id="hVXu8RXWV"></path><path d="M733.36 901.71L733.32 902.02L733.29 902.37L733.23 902.69L733.14 903L733.07 903.28L732.98 903.6L732.85 903.88L732.73 904.14L732.6 904.42L732.45 904.67L732.29 904.92L732.1 905.18L731.94 905.43L731.76 905.65L731.54 905.87L731.35 906.06L731.1 906.28L730.88 906.47L730.63 906.66L730.38 906.81L730.13 907L729.84 907.16L729.56 907.28L729.28 907.44L728.96 907.57L728.65 907.69L728.34 907.79L728.02 907.88L727.74 907.98L727.43 908.04L727.14 908.1L726.86 908.17L726.55 908.23L726.23 908.26L725.95 908.29L725.64 908.32L725.29 908.36L724.98 908.39L724.67 908.39L724.32 908.39L723.98 908.39L723.66 908.39L723.35 908.36L723 908.36L722.69 908.32L722.38 908.29L722.03 908.26L721.72 908.2L721.4 908.17L721.09 908.1L720.78 908.04L720.46 907.98L720.15 907.91L719.83 907.82L719.55 907.76L719.24 907.66L718.93 907.57L718.64 907.44L718.33 907.35L718.05 907.25L717.73 907.13L717.45 907L717.17 906.87L716.89 906.72L716.6 906.59L716.32 906.44L716.07 906.28L715.79 906.12L715.54 905.96L715.29 905.81L715.04 905.62L714.79 905.43L714.53 905.24L714.28 905.05L714.06 904.86L713.81 904.64L714 904.39L714.22 904.17L714.41 903.91L714.63 903.66L714.82 903.44L715 903.19L715.22 902.94L715.41 902.72L715.63 902.47L715.82 902.24L716.04 901.99L716.23 901.74L716.42 901.52L716.64 901.27L716.82 901.02L717.04 900.8L717.23 900.54L717.48 900.73L717.76 900.92L718.02 901.11L718.3 901.3L718.55 901.46L718.83 901.65L719.08 901.8L719.37 901.93L719.62 902.09L719.9 902.21L720.18 902.34L720.46 902.47L720.74 902.56L721.03 902.69L721.34 902.78L721.65 902.87L721.94 902.97L722.25 903.03L722.56 903.1L722.88 903.16L723.22 903.19L723.54 903.25L723.85 903.25L724.2 903.28L724.51 903.28L724.89 903.28L725.23 903.25L725.55 903.19L725.83 903.13L726.11 903.06L726.36 902.97L726.58 902.84L726.83 902.65L727.02 902.43L727.14 902.18L727.24 901.9L727.27 901.58L727.27 901.52L727.24 901.14L727.11 900.83L726.96 900.61L726.74 900.42L726.48 900.23L726.23 900.1L725.95 899.98L725.64 899.85L725.26 899.69L725.04 899.63L724.79 899.57L724.51 899.47L724.23 899.41L723.91 899.31L723.6 899.25L723.25 899.16L722.94 899.09L722.6 899L722.28 898.94L721.97 898.84L721.65 898.78L721.34 898.68L721.06 898.59L720.74 898.53L720.46 898.43L720.18 898.34L719.9 898.24L719.55 898.12L719.24 897.99L718.93 897.86L718.61 897.74L718.33 897.58L718.02 897.42L717.76 897.27L717.48 897.11L717.23 896.92L716.98 896.76L716.76 896.57L716.54 896.35L716.32 896.13L716.13 895.91L715.95 895.69L715.79 895.47L715.63 895.22L715.47 894.93L715.35 894.72L715.25 894.46L715.16 894.18L715.07 893.93L715 893.61L714.94 893.33L714.91 893.01L714.88 892.7L714.85 892.35L714.85 892.01L714.85 891.94L714.85 891.63L714.88 891.31L714.91 891.03L714.94 890.71L715 890.43L715.07 890.15L715.16 889.86L715.22 889.58L715.35 889.3L715.47 889.01L715.6 888.73L715.76 888.44L715.91 888.16L716.1 887.91L716.29 887.66L716.51 887.41L716.73 887.18L716.95 886.93L717.2 886.71L717.42 886.55L717.67 886.37L717.92 886.18L718.17 886.02L718.46 885.86L718.74 885.74L719.02 885.58L719.3 885.45L719.62 885.36L719.93 885.23L720.21 885.14L720.46 885.07L720.74 885.01L721.03 884.95L721.34 884.88L721.62 884.82L721.94 884.79L722.25 884.76L722.56 884.73L722.88 884.7L723.19 884.7L723.54 884.7L723.88 884.7L724.23 884.7L724.57 884.73L724.92 884.76L725.23 884.76L725.58 884.79L725.89 884.85L726.23 884.88L726.55 884.95L726.83 885.01L727.14 885.07L727.46 885.14L727.74 885.2L728.05 885.29L728.34 885.39L728.62 885.45L728.93 885.58L729.22 885.67L729.5 885.8L729.78 885.92L730.09 886.05L730.38 886.21L730.63 886.33L730.91 886.49L731.19 886.65L731.44 886.81L731.72 887L731.98 887.15L732.23 887.34L732.48 887.53L732.73 887.72L732.54 887.97L732.38 888.22L732.2 888.48L732.01 888.73L731.82 889.01L731.66 889.26L731.47 889.52L731.29 889.77L731.13 890.02L730.94 890.27L730.75 890.52L730.59 890.78L730.41 891.06L730.22 891.31L730.03 891.56L729.87 891.82L729.69 892.07L729.43 891.88L729.15 891.72L728.9 891.56L728.65 891.38L728.37 891.25L728.12 891.09L727.83 890.97L727.58 890.84L727.3 890.71L727.05 890.59L726.77 890.49L726.52 890.37L726.17 890.27L725.86 890.18L725.55 890.08L725.23 890.02L724.92 889.96L724.6 889.89L724.29 889.86L723.98 889.83L723.69 889.8L723.38 889.8L723 889.8L722.66 889.86L722.34 889.93L722.06 889.99L721.81 890.12L721.59 890.24L721.31 890.49L721.12 890.78L721 891.06L720.96 891.38L720.96 891.44L721 891.85L721.15 892.19L721.28 892.38L721.5 892.6L721.78 892.76L722.03 892.92L722.34 893.05L722.69 893.17L723.07 893.3L723.32 893.36L723.57 893.46L723.85 893.52L724.13 893.61L724.45 893.68L724.79 893.77L725.14 893.86L725.48 893.96L725.83 894.02L726.14 894.12L726.48 894.21L726.8 894.27L727.11 894.37L727.43 894.46L727.71 894.56L728.02 894.65L728.31 894.75L728.59 894.84L728.93 894.97L729.25 895.12L729.56 895.25L729.87 895.41L730.16 895.56L730.44 895.72L730.69 895.88L730.94 896.07L731.19 896.23L731.44 896.45L731.69 896.67L731.91 896.92L732.13 897.14L732.32 897.39L732.51 897.68L732.66 897.93L732.82 898.21L732.95 898.46L733.04 898.75L733.14 899.03L733.2 899.31L733.26 899.63L733.32 899.94L733.36 900.26L733.39 900.61L733.39 900.95L733.39 901.02L733.39 901.36L733.36 901.71ZM711.36 908.01L711.04 908.01L710.73 908.01L710.41 908.01L710.1 908.01L709.79 908.01L709.47 908.01L709.16 908.01L708.85 908.01L708.5 908.01L708.19 908.01L707.87 908.01L707.56 908.01L707.24 908.01L706.93 908.01L706.62 908.01L706.31 908.01L705.99 908.01L705.68 908.01L705.36 908.01L705.05 908.01L704.74 908.01L704.42 908.01L704.11 908.01L703.8 908.01L703.48 908.01L703.17 908.01L702.85 908.01L702.54 908.01L702.2 908.01L701.88 908.01L701.57 908.01L701.25 908.01L700.94 908.01L700.63 908.01L700.31 908.01L700 908.01L699.69 908.01L699.37 908.01L699.06 908.01L698.74 908.01L698.43 908.01L698.12 908.01L697.8 908.01L697.49 908.01L697.18 908.01L696.86 908.01L696.55 908.01L696.2 908.01L695.89 908.01L695.58 908.01L695.26 908.01L694.95 908.01L694.64 908.01L694.32 908.01L694.01 908.01L693.69 908.01L693.38 908.01L693.38 907.69L693.38 907.38L693.38 907.06L693.38 906.75L693.38 906.44L693.38 906.12L693.38 905.81L693.38 905.49L693.38 905.18L693.38 904.86L693.38 904.55L693.38 904.23L693.38 903.91L693.38 903.6L693.38 903.28L693.38 902.97L693.38 902.65L693.38 902.34L693.38 902.06L693.38 901.74L693.38 901.43L693.38 901.11L693.38 900.8L693.38 900.48L693.38 900.17L693.38 899.85L693.38 899.53L693.38 899.22L693.38 898.9L693.38 898.59L693.38 898.27L693.38 897.96L693.38 897.64L693.38 897.33L693.38 897.01L693.38 896.7L693.38 896.38L693.38 896.07L693.38 895.75L693.38 895.44L693.38 895.12L693.38 894.81L693.38 894.5L693.38 894.18L693.38 893.86L693.38 893.55L693.38 893.23L693.38 892.92L693.38 892.6L693.38 892.29L693.38 891.97L693.38 891.66L693.38 891.34L693.38 891.03L693.38 890.75L693.38 890.43L693.38 890.12L693.38 889.8L693.38 889.48L693.38 889.17L693.38 888.85L693.38 888.54L693.38 888.22L693.38 887.91L693.38 887.59L693.38 887.28L693.38 886.96L693.38 886.65L693.38 886.33L693.38 886.02L693.38 885.7L693.38 885.39L693.38 885.07L693.69 885.07L694.01 885.07L694.32 885.07L694.64 885.07L694.95 885.07L695.26 885.07L695.58 885.07L695.89 885.07L696.2 885.07L696.52 885.07L696.83 885.07L697.15 885.07L697.46 885.07L697.77 885.07L698.05 885.07L698.37 885.07L698.68 885.07L699 885.07L699.31 885.07L699.62 885.07L699.94 885.07L700.25 885.07L700.56 885.07L700.88 885.07L701.19 885.07L701.5 885.07L701.82 885.07L702.13 885.07L702.45 885.07L702.76 885.07L703.07 885.07L703.39 885.07L703.7 885.07L704.01 885.07L704.33 885.07L704.64 885.07L704.96 885.07L705.27 885.07L705.58 885.07L705.9 885.07L706.21 885.07L706.52 885.07L706.84 885.07L707.12 885.07L707.43 885.07L707.75 885.07L708.06 885.07L708.38 885.07L708.69 885.07L709 885.07L709.32 885.07L709.63 885.07L709.94 885.07L710.26 885.07L710.57 885.07L710.89 885.07L711.2 885.07L711.51 885.07L711.51 885.39L711.51 885.67L711.51 885.99L711.51 886.3L711.51 886.62L711.51 886.9L711.51 887.22L711.51 887.53L711.51 887.81L711.51 888.13L711.51 888.44L711.51 888.73L711.51 889.04L711.51 889.36L711.51 889.67L711.51 889.96L711.51 890.27L711.2 890.27L710.89 890.27L710.57 890.27L710.26 890.27L709.94 890.27L709.63 890.27L709.35 890.27L709.03 890.27L708.72 890.27L708.41 890.27L708.09 890.27L707.78 890.27L707.47 890.27L707.15 890.27L706.84 890.27L706.52 890.27L706.21 890.27L705.9 890.27L705.58 890.27L705.3 890.27L704.99 890.27L704.67 890.27L704.36 890.27L704.05 890.27L703.73 890.27L703.42 890.27L703.1 890.27L702.79 890.27L702.48 890.27L702.16 890.27L701.85 890.27L701.54 890.27L701.25 890.27L700.94 890.27L700.63 890.27L700.31 890.27L700 890.27L699.69 890.27L699.37 890.27L699.37 890.59L699.37 890.9L699.37 891.22L699.37 891.53L699.37 891.85L699.37 892.13L699.37 892.45L699.37 892.76L699.37 893.08L699.37 893.39L699.37 893.71L699.37 894.02L699.69 894.02L700 894.02L700.31 894.02L700.63 894.02L700.94 894.02L701.25 894.02L701.57 894.02L701.88 894.02L702.16 894.02L702.48 894.02L702.79 894.02L703.1 894.02L703.42 894.02L703.73 894.02L704.05 894.02L704.36 894.02L704.67 894.02L704.99 894.02L705.3 894.02L705.61 894.02L705.93 894.02L706.24 894.02L706.56 894.02L706.87 894.02L707.18 894.02L707.5 894.02L707.78 894.02L708.09 894.02L708.41 894.02L708.72 894.02L709.03 894.02L709.35 894.02L709.66 894.02L709.98 894.02L710.29 894.02L710.29 894.34L710.29 894.62L710.29 894.93L710.29 895.25L710.29 895.53L710.29 895.85L710.29 896.16L710.29 896.45L710.29 896.76L710.29 897.08L710.29 897.39L710.29 897.68L710.29 897.99L710.29 898.31L710.29 898.59L710.29 898.9L709.98 898.9L709.66 898.9L709.35 898.9L709.03 898.9L708.72 898.9L708.41 898.9L708.09 898.9L707.78 898.9L707.5 898.9L707.18 898.9L706.87 898.9L706.56 898.9L706.24 898.9L705.93 898.9L705.61 898.9L705.3 898.9L704.99 898.9L704.67 898.9L704.36 898.9L704.05 898.9L703.73 898.9L703.42 898.9L703.1 898.9L702.79 898.9L702.48 898.9L702.16 898.9L701.88 898.9L701.57 898.9L701.25 898.9L700.94 898.9L700.63 898.9L700.31 898.9L700 898.9L699.69 898.9L699.37 898.9L699.37 899.22L699.37 899.57L699.37 899.88L699.37 900.2L699.37 900.54L699.37 900.86L699.37 901.17L699.37 901.52L699.37 901.83L699.37 902.15L699.37 902.5L699.37 902.81L699.69 902.81L700 902.81L700.31 902.81L700.63 902.81L700.94 902.81L701.25 902.81L701.57 902.81L701.88 902.81L702.2 902.81L702.54 902.81L702.85 902.81L703.17 902.81L703.48 902.81L703.8 902.81L704.11 902.81L704.42 902.81L704.74 902.81L705.05 902.81L705.36 902.81L705.68 902.81L705.99 902.81L706.31 902.81L706.62 902.81L706.93 902.81L707.24 902.81L707.56 902.81L707.87 902.81L708.19 902.81L708.5 902.81L708.85 902.81L709.16 902.81L709.47 902.81L709.79 902.81L710.1 902.81L710.41 902.81L710.73 902.81L711.04 902.81L711.36 902.81L711.67 902.81L711.67 903.13L711.67 903.41L711.67 903.73L711.67 904.04L711.67 904.36L711.67 904.64L711.67 904.95L711.67 905.27L711.67 905.55L711.67 905.87L711.67 906.18L711.67 906.47L711.67 906.78L711.67 907.1L711.67 907.41L711.67 907.69L711.67 908.01L711.36 908.01ZM688.44 908.01L688.12 908.01L687.81 908.01L687.46 908.01L687.15 908.01L686.84 908.01L686.52 908.01L686.21 908.01L685.89 908.01L685.55 908.01L685.24 908.01L684.92 908.01L684.61 908.01L684.29 908.01L683.98 908.01L683.64 908.01L683.32 908.01L683.01 908.01L682.69 908.01L682.69 907.69L682.69 907.38L682.69 907.06L682.69 906.75L682.69 906.43L682.69 906.12L682.69 905.8L682.69 905.49L682.69 905.17L682.69 904.86L682.69 904.54L682.69 904.22L682.69 903.91L682.69 903.59L682.69 903.28L682.69 902.96L682.69 902.65L682.69 902.33L682.69 902.02L682.69 901.7L682.69 901.39L682.69 901.07L682.69 900.75L682.69 900.44L682.69 900.12L682.69 899.81L682.69 899.49L682.69 899.18L682.69 898.86L682.69 898.55L682.69 898.23L682.69 897.92L682.69 897.6L682.69 897.29L682.69 896.97L682.69 896.65L682.69 896.34L682.69 896.02L682.69 895.71L682.69 895.39L682.69 895.08L682.69 894.76L682.69 894.45L682.54 894.7L682.35 894.98L682.19 895.24L682.01 895.49L681.85 895.77L681.66 896.02L681.5 896.28L681.35 896.56L681.16 896.81L681 897.07L680.81 897.32L680.66 897.6L680.47 897.86L680.31 898.11L680.15 898.39L679.96 898.65L679.81 898.9L679.62 899.18L679.46 899.43L679.28 899.69L679.12 899.97L678.96 900.22L678.77 900.47L678.62 900.76L678.43 901.01L678.27 901.26L678.08 901.52L677.93 901.8L677.77 902.05L677.58 902.31L677.43 902.59L677.24 902.84L677.08 903.09L676.89 903.38L676.73 903.63L676.61 903.63L676.42 903.35L676.26 903.09L676.08 902.81L675.92 902.56L675.73 902.27L675.57 902.02L675.39 901.74L675.23 901.48L675.04 901.2L674.88 900.95L674.69 900.66L674.54 900.41L674.35 900.13L674.19 899.88L674.01 899.59L673.85 899.34L673.66 899.05L673.47 898.8L673.31 898.52L673.13 898.27L672.97 897.98L672.78 897.73L672.62 897.44L672.44 897.19L672.28 896.91L672.09 896.66L671.94 896.37L671.75 896.12L671.59 895.84L671.4 895.58L671.24 895.3L671.06 895.05L670.9 894.76L670.71 894.51L670.71 894.82L670.71 895.14L670.71 895.46L670.71 895.77L670.71 896.09L670.71 896.4L670.71 896.72L670.71 897.03L670.71 897.35L670.71 897.66L670.71 897.95L670.71 898.26L670.71 898.58L670.71 898.89L670.71 899.21L670.71 899.53L670.71 899.84L670.71 900.16L670.71 900.47L670.71 900.79L670.71 901.1L670.71 901.42L670.71 901.73L670.71 902.05L670.71 902.36L670.71 902.68L670.71 903L670.71 903.31L670.71 903.63L670.71 903.94L670.71 904.26L670.71 904.57L670.71 904.86L670.71 905.17L670.71 905.49L670.71 905.8L670.71 906.12L670.71 906.43L670.71 906.75L670.71 907.06L670.71 907.38L670.71 907.69L670.71 908.01L670.4 908.01L670.08 908.01L669.77 908.01L669.46 908.01L669.14 908.01L668.83 908.01L668.52 908.01L668.2 908.01L667.89 908.01L667.57 908.01L667.26 908.01L666.95 908.01L666.63 908.01L666.32 908.01L666.01 908.01L665.69 908.01L665.38 908.01L665.06 908.01L664.75 908.01L664.75 907.69L664.75 907.38L664.75 907.06L664.75 906.75L664.75 906.44L664.75 906.12L664.75 905.81L664.75 905.49L664.75 905.18L664.75 904.86L664.75 904.55L664.75 904.23L664.75 903.91L664.75 903.6L664.75 903.28L664.75 902.97L664.75 902.65L664.75 902.34L664.75 902.06L664.75 901.74L664.75 901.43L664.75 901.11L664.75 900.8L664.75 900.48L664.75 900.17L664.75 899.85L664.75 899.53L664.75 899.22L664.75 898.9L664.75 898.59L664.75 898.27L664.75 897.96L664.75 897.64L664.75 897.33L664.75 897.01L664.75 896.7L664.75 896.38L664.75 896.07L664.75 895.75L664.75 895.44L664.75 895.12L664.75 894.81L664.75 894.5L664.75 894.18L664.75 893.86L664.75 893.55L664.75 893.23L664.75 892.92L664.75 892.6L664.75 892.29L664.75 891.97L664.75 891.66L664.75 891.34L664.75 891.03L664.75 890.75L664.75 890.43L664.75 890.12L664.75 889.8L664.75 889.48L664.75 889.17L664.75 888.85L664.75 888.54L664.75 888.22L664.75 887.91L664.75 887.59L664.75 887.28L664.75 886.96L664.75 886.65L664.75 886.33L664.75 886.02L664.75 885.7L664.75 885.39L664.75 885.07L665.06 885.07L665.38 885.07L665.66 885.07L665.97 885.07L666.29 885.07L666.6 885.07L666.88 885.07L667.2 885.07L667.51 885.07L667.83 885.07L668.11 885.07L668.42 885.07L668.74 885.07L669.05 885.07L669.33 885.07L669.64 885.07L669.96 885.07L670.27 885.07L670.55 885.07L670.87 885.07L671.18 885.07L671.34 885.33L671.5 885.61L671.68 885.86L671.84 886.14L672 886.39L672.15 886.68L672.31 886.93L672.5 887.21L672.66 887.46L672.81 887.72L672.97 888L673.13 888.25L673.31 888.53L673.47 888.79L673.63 889.07L673.78 889.32L673.97 889.57L674.13 889.85L674.29 890.11L674.44 890.39L674.6 890.64L674.79 890.92L674.95 891.18L675.1 891.46L675.26 891.71L675.42 891.96L675.61 892.24L675.76 892.5L675.92 892.78L676.08 893.03L676.23 893.31L676.42 893.57L676.58 893.85L676.73 894.1L676.89 893.85L677.05 893.57L677.24 893.31L677.39 893.03L677.55 892.78L677.71 892.5L677.89 892.24L678.05 891.96L678.21 891.71L678.36 891.46L678.55 891.18L678.71 890.92L678.87 890.64L679.02 890.39L679.21 890.11L679.37 889.85L679.53 889.57L679.68 889.32L679.84 889.07L680.03 888.79L680.19 888.53L680.34 888.25L680.5 888L680.69 887.72L680.84 887.46L681 887.21L681.16 886.93L681.35 886.68L681.5 886.39L681.66 886.14L681.82 885.86L682.01 885.61L682.16 885.33L682.32 885.07L682.63 885.07L682.95 885.07L683.23 885.07L683.54 885.07L683.86 885.07L684.17 885.07L684.45 885.07L684.77 885.07L685.08 885.07L685.39 885.07L685.68 885.07L685.99 885.07L686.3 885.07L686.62 885.07L686.9 885.07L687.21 885.07L687.53 885.07L687.84 885.07L688.12 885.07L688.44 885.07L688.75 885.07L688.75 885.39L688.75 885.7L688.75 886.02L688.75 886.33L688.75 886.65L688.75 886.96L688.75 887.28L688.75 887.59L688.75 887.91L688.75 888.22L688.75 888.54L688.75 888.85L688.75 889.17L688.75 889.48L688.75 889.8L688.75 890.12L688.75 890.43L688.75 890.75L688.75 891.03L688.75 891.34L688.75 891.66L688.75 891.97L688.75 892.29L688.75 892.6L688.75 892.92L688.75 893.23L688.75 893.55L688.75 893.86L688.75 894.18L688.75 894.5L688.75 894.81L688.75 895.12L688.75 895.44L688.75 895.75L688.75 896.07L688.75 896.38L688.75 896.7L688.75 897.01L688.75 897.33L688.75 897.64L688.75 897.96L688.75 898.27L688.75 898.59L688.75 898.9L688.75 899.22L688.75 899.53L688.75 899.85L688.75 900.17L688.75 900.48L688.75 900.8L688.75 901.11L688.75 901.43L688.75 901.74L688.75 902.06L688.75 902.34L688.75 902.65L688.75 902.97L688.75 903.28L688.75 903.6L688.75 903.91L688.75 904.23L688.75 904.55L688.75 904.86L688.75 905.18L688.75 905.49L688.75 905.81L688.75 906.12L688.75 906.44L688.75 906.75L688.75 907.06L688.75 907.38L688.75 907.69L688.75 908.01L688.44 908.01ZM652.04 898.56L651.94 898.27L651.82 897.96L651.69 897.67L651.6 897.39L651.47 897.1L651.35 896.79L651.25 896.5L651.13 896.22L651 895.94L650.91 895.65L650.78 895.34L650.69 895.05L650.56 894.77L650.44 894.48L650.34 894.2L650.22 893.88L650.09 893.6L650 893.32L649.87 893.03L649.75 892.72L649.65 892.43L649.53 892.15L649.4 892.43L649.31 892.72L649.18 893.03L649.06 893.32L648.96 893.6L648.84 893.88L648.71 894.2L648.59 894.48L648.49 894.77L648.37 895.05L648.24 895.34L648.15 895.65L648.02 895.94L647.9 896.22L647.8 896.5L647.68 896.79L647.55 897.1L647.43 897.39L647.33 897.67L647.21 897.96L647.08 898.27L646.99 898.56L646.86 898.84L647.18 898.84L647.49 898.84L647.8 898.84L648.12 898.84L648.43 898.84L648.74 898.84L649.06 898.84L649.37 898.84L649.65 898.84L649.97 898.84L650.28 898.84L650.6 898.84L650.91 898.84L651.22 898.84L651.53 898.84L651.85 898.84L652.16 898.84L652.04 898.56ZM661.89 908.01L661.57 908.01L661.29 908.01L660.98 908.01L660.66 908.01L660.35 908.01L660.04 908.01L659.76 908.01L659.44 908.01L659.13 908.01L658.81 908.01L658.5 908.01L658.19 908.01L657.9 908.01L657.59 908.01L657.28 908.01L656.96 908.01L656.65 908.01L656.37 908.01L656.05 908.01L655.74 908.01L655.61 907.73L655.52 907.44L655.39 907.16L655.27 906.84L655.18 906.56L655.05 906.28L654.92 905.99L654.83 905.71L654.7 905.43L654.58 905.14L654.48 904.86L654.36 904.55L654.23 904.26L654.14 903.98L654.01 903.69L653.7 903.69L653.39 903.69L653.07 903.69L652.76 903.69L652.48 903.69L652.16 903.69L651.85 903.69L651.53 903.69L651.22 903.69L650.91 903.69L650.6 903.69L650.28 903.69L649.97 903.69L649.65 903.69L649.37 903.69L649.06 903.69L648.74 903.69L648.43 903.69L648.12 903.69L647.8 903.69L647.49 903.69L647.18 903.69L646.86 903.69L646.55 903.69L646.26 903.69L645.95 903.69L645.64 903.69L645.32 903.69L645.01 903.69L644.89 903.98L644.79 904.26L644.67 904.55L644.54 904.86L644.45 905.14L644.32 905.43L644.19 905.71L644.1 905.99L643.98 906.28L643.85 906.56L643.76 906.84L643.63 907.16L643.51 907.44L643.41 907.73L643.28 908.01L642.97 908.01L642.66 908.01L642.34 908.01L642.03 908.01L641.72 908.01L641.37 908.01L641.06 908.01L640.75 908.01L640.43 908.01L640.12 908.01L639.8 908.01L639.49 908.01L639.18 908.01L638.86 908.01L638.55 908.01L638.2 908.01L637.89 908.01L637.58 908.01L637.26 908.01L636.95 908.01L637.07 907.73L637.2 907.44L637.33 907.16L637.45 906.84L637.54 906.56L637.67 906.28L637.8 905.99L637.92 905.71L638.05 905.43L638.17 905.11L638.3 904.83L638.42 904.55L638.52 904.26L638.64 903.98L638.77 903.69L638.89 903.38L639.02 903.1L639.14 902.81L639.27 902.53L639.4 902.24L639.49 901.96L639.61 901.65L639.74 901.36L639.87 901.08L639.99 900.8L640.12 900.51L640.24 900.23L640.37 899.91L640.46 899.63L640.59 899.35L640.71 899.06L640.84 898.78L640.96 898.49L641.09 898.18L641.21 897.9L641.34 897.61L641.43 897.33L641.56 897.05L641.68 896.76L641.81 896.45L641.94 896.16L642.06 895.88L642.19 895.6L642.31 895.31L642.41 895.03L642.53 894.75L642.66 894.43L642.78 894.15L642.91 893.86L643.03 893.58L643.16 893.3L643.28 893.01L643.38 892.7L643.51 892.42L643.63 892.13L643.76 891.85L643.88 891.56L644.01 891.28L644.13 890.97L644.26 890.68L644.35 890.4L644.48 890.12L644.6 889.83L644.73 889.55L644.85 889.23L644.98 888.95L645.1 888.67L645.23 888.38L645.32 888.1L645.45 887.81L645.58 887.5L645.7 887.22L645.83 886.93L645.95 886.65L646.08 886.37L646.2 886.08L646.3 885.77L646.42 885.48L646.55 885.2L646.67 884.92L646.99 884.92L647.27 884.92L647.58 884.92L647.9 884.92L648.21 884.92L648.49 884.92L648.81 884.92L649.12 884.92L649.43 884.92L649.72 884.92L650.03 884.92L650.34 884.92L650.66 884.92L650.94 884.92L651.25 884.92L651.57 884.92L651.88 884.92L652.16 884.92L652.48 884.92L652.6 885.2L652.73 885.48L652.85 885.77L652.98 886.08L653.07 886.37L653.2 886.65L653.32 886.93L653.45 887.22L653.58 887.5L653.7 887.81L653.83 888.1L653.95 888.38L654.04 888.67L654.17 888.95L654.3 889.23L654.42 889.55L654.55 889.83L654.67 890.12L654.8 890.4L654.92 890.68L655.02 890.97L655.14 891.28L655.27 891.56L655.39 891.85L655.52 892.13L655.65 892.42L655.77 892.7L655.9 893.01L655.99 893.3L656.11 893.58L656.24 893.86L656.37 894.15L656.49 894.43L656.62 894.75L656.74 895.03L656.87 895.31L656.96 895.6L657.09 895.88L657.21 896.16L657.34 896.45L657.46 896.76L657.59 897.05L657.72 897.33L657.84 897.61L657.94 897.9L658.06 898.18L658.19 898.49L658.31 898.78L658.44 899.06L658.56 899.35L658.69 899.63L658.81 899.91L658.91 900.23L659.03 900.51L659.16 900.8L659.28 901.08L659.41 901.36L659.53 901.65L659.66 901.96L659.79 902.24L659.88 902.53L660.01 902.81L660.13 903.1L660.26 903.38L660.38 903.69L660.51 903.98L660.63 904.26L660.76 904.55L660.85 904.83L660.98 905.11L661.1 905.43L661.23 905.71L661.35 905.99L661.48 906.28L661.6 906.56L661.73 906.84L661.83 907.16L661.95 907.44L662.08 907.73L662.2 908.01L661.89 908.01ZM634.41 905.08L634.15 905.27L633.94 905.43L633.68 905.62L633.43 905.77L633.18 905.96L632.93 906.12L632.68 906.28L632.4 906.44L632.12 906.59L631.83 906.75L631.55 906.87L631.27 907.03L630.95 907.16L630.67 907.28L630.36 907.41L630.08 907.54L629.79 907.63L629.51 907.73L629.23 907.82L628.92 907.91L628.63 908.01L628.32 908.07L628.04 908.14L627.72 908.2L627.41 908.26L627.1 908.29L626.75 908.32L626.44 908.36L626.09 908.39L625.78 908.42L625.43 908.45L625.09 908.45L624.74 908.45L624.4 908.45L624.08 908.45L623.77 908.42L623.43 908.39L623.11 908.36L622.8 908.32L622.48 908.29L622.17 908.23L621.86 908.17L621.58 908.1L621.26 908.04L620.98 907.95L620.67 907.88L620.38 907.79L620.1 907.66L619.82 907.57L619.51 907.44L619.22 907.32L618.94 907.19L618.66 907.06L618.37 906.91L618.12 906.75L617.84 906.59L617.59 906.44L617.34 906.28L617.09 906.09L616.84 905.9L616.59 905.71L616.37 905.52L616.15 905.33L615.93 905.11L615.71 904.92L615.49 904.7L615.27 904.48L615.08 904.26L614.89 904.01L614.7 903.79L614.55 903.54L614.36 903.28L614.2 903.03L614.05 902.78L613.89 902.5L613.73 902.24L613.61 901.96L613.48 901.68L613.36 901.39L613.23 901.11L613.14 900.86L613.01 900.57L612.95 900.29L612.85 900.01L612.79 899.69L612.7 899.41L612.63 899.09L612.6 898.81L612.54 898.49L612.51 898.21L612.48 897.9L612.45 897.58L612.42 897.27L612.42 896.92L612.42 896.6L612.42 896.54L612.42 896.23L612.45 895.88L612.45 895.56L612.48 895.25L612.51 894.9L612.57 894.59L612.6 894.27L612.67 893.99L612.76 893.68L612.82 893.36L612.92 893.08L613.01 892.76L613.11 892.48L613.23 892.16L613.36 891.88L613.48 891.6L613.61 891.31L613.73 891.03L613.89 890.75L614.05 890.49L614.2 890.24L614.36 889.99L614.52 889.74L614.7 889.48L614.89 889.23L615.08 888.98L615.27 888.76L615.49 888.54L615.68 888.32L615.9 888.1L616.12 887.88L616.34 887.69L616.59 887.47L616.81 887.28L617.06 887.09L617.31 886.93L617.56 886.74L617.81 886.59L618.06 886.43L618.34 886.27L618.63 886.11L618.91 885.96L619.19 885.83L619.47 885.7L619.79 885.55L620.04 885.45L620.35 885.36L620.63 885.23L620.92 885.17L621.2 885.07L621.51 885.01L621.79 884.92L622.11 884.85L622.42 884.82L622.74 884.76L623.05 884.73L623.36 884.7L623.68 884.66L623.99 884.63L624.34 884.63L624.65 884.63L624.99 884.63L625.34 884.63L625.69 884.66L626.03 884.7L626.34 884.7L626.66 884.73L627 884.79L627.28 884.82L627.6 884.88L627.91 884.95L628.19 885.01L628.48 885.07L628.76 885.14L629.04 885.23L629.32 885.29L629.57 885.39L629.86 885.48L630.14 885.61L630.42 885.74L630.7 885.86L630.99 886.02L631.27 886.14L631.52 886.3L631.8 886.46L632.05 886.62L632.34 886.78L632.59 886.96L632.84 887.12L633.09 887.31L633.34 887.5L633.59 887.72L633.84 887.91L633.65 888.16L633.43 888.38L633.24 888.63L633.03 888.89L632.84 889.14L632.65 889.36L632.43 889.61L632.24 889.86L632.05 890.08L631.83 890.34L631.64 890.59L631.43 890.84L631.24 891.06L631.05 891.31L630.83 891.56L630.64 891.82L630.42 892.04L630.23 892.29L629.98 892.1L629.73 891.88L629.48 891.72L629.23 891.53L628.98 891.38L628.73 891.22L628.48 891.06L628.19 890.9L627.94 890.78L627.69 890.65L627.44 890.56L627.16 890.46L626.88 890.37L626.59 890.3L626.28 890.24L625.97 890.18L625.65 890.15L625.31 890.12L624.96 890.08L624.62 890.08L624.3 890.08L623.99 890.12L623.71 890.15L623.39 890.21L623.11 890.27L622.83 890.37L622.55 890.46L622.27 890.59L621.98 890.71L621.73 890.87L621.48 891.03L621.23 891.19L621.01 891.38L620.79 891.56L620.57 891.75L620.38 891.97L620.16 892.19L619.97 892.45L619.82 892.67L619.66 892.92L619.51 893.2L619.35 893.46L619.22 893.74L619.13 894.02L619 894.31L618.91 894.62L618.85 894.93L618.78 895.22L618.72 895.56L618.69 895.88L618.66 896.19L618.66 896.54L618.66 896.6L618.66 896.92L618.69 897.23L618.72 897.52L618.75 897.83L618.81 898.12L618.88 898.4L618.94 898.68L619.03 898.97L619.13 899.22L619.25 899.53L619.38 899.82L619.54 900.1L619.69 900.35L619.85 900.61L620.04 900.86L620.23 901.08L620.45 901.3L620.63 901.52L620.85 901.71L621.11 901.9L621.36 902.09L621.61 902.24L621.86 902.4L622.14 902.53L622.42 902.65L622.7 902.78L623.02 902.87L623.33 902.97L623.65 903.03L623.96 903.1L624.27 903.13L624.62 903.16L624.96 903.16L625.34 903.16L625.69 903.13L626.03 903.1L626.34 903.06L626.66 903L626.97 902.94L627.28 902.84L627.57 902.78L627.85 902.65L628.1 902.53L628.38 902.4L628.6 902.28L628.85 902.12L628.85 901.8L628.85 901.49L628.85 901.17L628.85 900.86L628.85 900.51L628.85 900.2L628.85 899.88L628.85 899.57L628.85 899.25L628.54 899.25L628.26 899.25L627.94 899.25L627.63 899.25L627.32 899.25L627.03 899.25L626.72 899.25L626.41 899.25L626.09 899.25L625.81 899.25L625.5 899.25L625.18 899.25L624.87 899.25L624.59 899.25L624.27 899.25L624.27 898.94L624.27 898.65L624.27 898.34L624.27 898.02L624.27 897.71L624.27 897.42L624.27 897.11L624.27 896.79L624.27 896.48L624.27 896.19L624.27 895.88L624.27 895.56L624.27 895.25L624.27 894.97L624.27 894.65L624.59 894.65L624.9 894.65L625.21 894.65L625.53 894.65L625.84 894.65L626.15 894.65L626.47 894.65L626.78 894.65L627.1 894.65L627.41 894.65L627.72 894.65L628.04 894.65L628.35 894.65L628.66 894.65L628.98 894.65L629.29 894.65L629.61 894.65L629.92 894.65L630.23 894.65L630.55 894.65L630.86 894.65L631.17 894.65L631.49 894.65L631.8 894.65L632.12 894.65L632.43 894.65L632.74 894.65L633.06 894.65L633.37 894.65L633.68 894.65L634 894.65L634.31 894.65L634.62 894.65L634.62 894.97L634.62 895.28L634.62 895.6L634.62 895.88L634.62 896.19L634.62 896.51L634.62 896.82L634.62 897.14L634.62 897.46L634.62 897.74L634.62 898.05L634.62 898.37L634.62 898.68L634.62 899L634.62 899.31L634.62 899.63L634.62 899.91L634.62 900.23L634.62 900.54L634.62 900.86L634.62 901.17L634.62 901.49L634.62 901.8L634.62 902.09L634.62 902.4L634.62 902.72L634.62 903.03L634.62 903.35L634.62 903.66L634.62 903.95L634.62 904.26L634.62 904.58L634.62 904.89L634.41 905.08Z" id="a2ZJAShoEZ"></path><path d="M624.32 833.18L637.91 833.18L637.91 822.66L624.32 822.66L624.32 801.19L638.45 801.19L638.45 790.67L612.77 790.67L612.77 866.57L638.67 866.57L638.67 856.06L624.32 856.06L624.32 833.18Z" id="a4EbKim9Gv"></path><path d="M721.7 835.46C721.7 845.74 721.7 851.45 721.7 852.59C721.7 855.62 720.3 857.03 717.39 857.03C717.17 857.03 715.44 857.03 715.23 857.03C712.21 857.03 710.8 855.62 710.8 852.59C710.8 847.8 710.8 809.45 710.8 804.66C710.8 801.62 712.21 800.22 715.23 800.22C715.42 800.22 716.97 800.22 717.17 800.22C720.08 800.22 721.49 801.62 721.49 804.66C721.49 805.65 721.49 810.6 721.49 819.52L732.81 819.52C732.81 810.21 732.81 805.04 732.81 804.01C732.81 794.58 728.28 790.02 718.9 790.02C718.34 790.02 713.85 790.02 713.28 790.02C703.9 790.02 699.26 794.69 699.26 804.12C699.26 809.02 699.26 848.23 699.26 853.13C699.26 862.56 703.9 867.23 713.28 867.23C713.86 867.23 718.43 867.23 719 867.23C728.39 867.23 733.03 862.56 733.03 853.13C733.03 851.95 733.03 846.06 733.03 835.46L721.7 835.46Z" id="bVMhKUyRw"></path><path d="M681.61 866.58L693.15 866.58L693.15 790.67L681.61 790.67L681.61 866.58Z" id="bM9sENGBL"></path><path d="M664.85 824.4C664.85 827.43 663.45 828.84 660.54 828.84C660.22 828.84 658.64 828.84 655.79 828.84L655.79 800.87C658.64 800.87 660.22 800.87 660.54 800.87C663.45 800.87 664.85 802.28 664.85 805.31C664.85 809.13 664.85 820.58 664.85 824.4ZM662.37 790.67L644.24 790.67L644.24 866.57L655.79 866.57L655.79 839.03C659.74 839.03 661.93 839.03 662.37 839.03C671.76 839.03 676.4 834.37 676.4 824.94C676.4 822.92 676.4 806.79 676.4 804.77C676.4 795.34 671.76 790.67 662.37 790.67" id="a4VHvwoTJu"></path><path d="M640.01 935.2L706.11 935.2L672.37 946.33L640.01 935.2Z" id="b4W7MwIni3"></path><path d="M872.87 774.49C824.54 774.49 785.37 813.66 785.37 861.99C785.37 910.31 824.54 949.49 872.87 949.49C921.19 949.49 960.37 910.31 960.37 861.99C960.37 813.66 921.19 774.49 872.87 774.49Z" id="abKpqKDB5s"></path><path d="M872.87 774.49C824.54 774.49 785.37 813.66 785.37 861.99C785.37 910.31 824.54 949.49 872.87 949.49C921.19 949.49 960.37 910.31 960.37 861.99C960.37 813.66 921.19 774.49 872.87 774.49Z" id="c10OlYP7n7"></path><linearGradient id="gradientdpZsLQBb4" gradientUnits="userSpaceOnUse" x1="872.87" y1="774.49" x2="872.87" y2="949.49"><stop style="stop-color: #fefefe;stop-opacity: 1" offset="0%"></stop><stop style="stop-color: #e0e0e0;stop-opacity: 1" offset="100%"></stop></linearGradient><path d="M847.17 939.18C851.23 939.89 852.76 937.45 852.76 935.32C852.76 933.39 852.66 926.98 852.66 920.17C832.24 923.93 826.96 915.19 825.34 910.62C824.42 908.28 820.46 901.07 817.01 899.14C814.16 897.61 810.1 893.85 816.91 893.75C823.3 893.65 827.87 899.64 829.4 902.08C836.71 914.38 848.39 910.93 853.06 908.79C853.77 903.51 855.91 899.95 858.24 897.92C840.16 895.88 821.27 888.87 821.27 857.77C821.27 848.93 824.42 841.61 829.6 835.92C828.79 833.89 825.95 825.56 830.41 814.38C830.41 814.38 837.22 812.24 852.76 822.71C859.26 820.88 866.16 819.97 873.07 819.97C879.98 819.97 886.88 820.88 893.38 822.71C908.92 812.14 915.73 814.38 915.73 814.38C920.2 825.56 917.35 833.89 916.54 835.92C921.72 841.61 924.87 848.83 924.87 857.77C924.87 888.97 905.87 895.88 887.8 897.92C890.74 900.46 893.28 905.33 893.28 912.96C893.28 923.83 893.18 932.57 893.18 935.32C893.18 937.45 894.7 939.99 898.77 939.17C930.86 928.41 954.12 897.92 954.12 862.04C954.12 817.12 917.76 780.74 872.87 780.74C827.98 780.74 791.62 817.12 791.62 862.04C791.62 898.02 814.87 928.4 847.17 939.18Z" id="ayXEdlHK8"></path><linearGradient id="gradienta3RHo7T6RN" gradientUnits="userSpaceOnUse" x1="872.87" y1="939.33" x2="872.87" y2="780.74"><stop style="stop-color: #d01e45;stop-opacity: 1" offset="0%"></stop><stop style="stop-color: #e14c4c;stop-opacity: 1" offset="100%"></stop></linearGradient><path d="M181.69 47.94C184.25 42.18 185.67 38.99 185.96 38.35C186.49 37.08 186.22 35.69 185.29 34.69C184.12 33.51 174.8 24.08 173.64 22.9C168.51 17.78 160.92 15.98 154.06 18.38C153.85 18.45 152.76 18.83 150.8 19.51L132.96 0.2L102.8 0L102.6 0L72.24 0.27L54.46 19.71C52.55 19.03 51.48 18.65 51.27 18.58C44.34 16.11 36.69 17.91 31.56 23.17C30.38 24.37 20.89 33.95 19.71 35.15C18.91 35.95 18.71 37.08 19.11 38.08C19.41 38.75 20.89 42.08 23.57 48.07L17.45 64.78L21.44 79.89C32.31 121.16 38.34 144.08 39.55 148.67C41.61 156.59 46.41 163.52 53.13 168.31C53.13 168.31 75.1 183.82 96.74 197.87C98.67 199.13 100.67 200 102.8 200C104.93 200 106.93 199.13 108.86 197.87C133.23 181.89 152.47 168.24 152.47 168.24C159.12 163.45 163.92 156.52 165.98 148.6C167.18 144.02 173.17 121.09 183.96 79.83L187.89 64.65L181.69 47.94Z" id="b1zTIp8IR5"></path><linearGradient id="gradientj1q33tL4GJ" gradientUnits="userSpaceOnUse" x1="202.53" y1="100" x2="4.13" y2="100"><stop style="stop-color: #991212;stop-opacity: 1" offset="0%"></stop><stop style="stop-color: #db0000;stop-opacity: 1" offset="100%"></stop></linearGradient><path d="M104.73 122.44C104.66 122.44 104.3 122.44 103.66 122.44C103.03 122.44 102.67 122.44 102.6 122.44C102.33 122.44 101.47 122.7 100.67 123.04C99.8 123.4 92.88 126.27 92.01 126.63C91.21 126.96 89.88 127.56 89.08 127.96C87.78 128.64 77.34 134.08 76.03 134.75C75.24 135.15 75.17 135.89 75.9 136.42C77.05 137.23 86.27 143.73 87.42 144.54C88.15 145.07 89.28 145.94 89.95 146.54C90.46 146.98 94.56 150.49 95.08 150.93C95.74 151.53 96.81 152.46 97.47 153.06C97.97 153.5 101.91 157.02 102.4 157.46C103.07 158.06 104.13 158.06 104.8 157.46C105.3 157.02 109.35 153.5 109.86 153.06C110.52 152.46 111.59 151.53 112.25 150.93C112.77 150.49 116.87 146.92 117.38 146.47C118.05 145.87 119.18 145.01 119.91 144.47C121.06 143.66 130.28 137.1 131.43 136.29C132.16 135.75 132.09 135.02 131.29 134.62C129.99 133.96 119.55 128.63 118.25 127.96C117.45 127.56 116.11 126.96 115.32 126.63C114.74 126.39 111.85 125.19 106.66 123.04C105.55 122.64 104.91 122.44 104.73 122.44Z" id="bMGU2eGaw"></path><path d="M169.39 66.42C169.39 65.55 169.32 64.09 169.19 63.22C169.12 63.03 168.59 61.48 168.52 61.29C168.12 60.49 167.46 59.23 166.92 58.49C166.17 57.38 160.15 48.49 159.4 47.37C158.93 46.64 158.07 45.51 157.47 44.78C156.5 43.56 148.72 33.81 147.75 32.59C147.22 31.93 146.68 31.33 146.62 31.4C146.6 31.4 146.5 31.4 146.48 31.4C146.48 31.4 145.75 31.53 144.89 31.66C143.4 31.96 131.52 34.3 130.04 34.59C129.17 34.79 127.77 35.06 126.91 35.19C126.88 35.2 126.67 35.25 126.64 35.26C125.78 35.39 124.38 35.32 123.51 35.06C122.27 34.66 112.31 31.46 111.06 31.06C110.2 30.8 108.8 30.4 108 30.2C108 30.2 105.47 29.6 103.41 29.67C101.34 29.67 98.81 30.2 98.81 30.2C97.95 30.4 96.55 30.8 95.75 31.06C94.51 31.46 84.55 34.66 83.3 35.06C82.43 35.32 81.04 35.39 80.17 35.26C80.14 35.25 79.93 35.2 79.9 35.19C79.04 35.06 77.64 34.73 76.78 34.59C75.28 34.31 63.29 32.08 61.8 31.8C60.93 31.6 60.2 31.53 60.2 31.53C60.18 31.53 60.08 31.53 60.06 31.53C60 31.53 59.47 32.06 58.93 32.73C57.96 33.95 50.18 43.69 49.21 44.91C48.68 45.58 47.81 46.78 47.28 47.51C46.53 48.62 40.51 57.51 39.76 58.63C39.29 59.36 38.56 60.62 38.16 61.42C38.09 61.62 37.56 63.16 37.49 63.35C37.36 64.22 37.23 65.68 37.29 66.55C37.29 66.55 37.29 66.82 37.56 67.75C38.03 69.35 39.16 70.81 39.16 70.81C39.69 71.48 40.69 72.61 41.29 73.21C43.49 75.55 61.12 94.3 63.33 96.64C63.93 97.31 64.13 98.51 63.79 99.31C63.33 100.39 59.66 109.07 59.2 110.16C58.87 110.96 58.8 112.29 59.13 113.15C59.26 113.49 60.27 116.21 60.4 116.55C61.46 119.41 63.26 121.94 65.66 123.87C66.1 124.23 69.67 127.11 70.12 127.47C70.78 128 71.98 128.2 72.78 127.8C74.19 127.13 85.48 121.75 86.9 121.08C87.69 120.68 88.89 119.88 89.56 119.28C90.57 118.37 98.67 111.07 99.68 110.16C101.14 108.83 101.21 106.56 99.88 105.1C97.75 103.67 80.76 92.22 78.64 90.78C77.91 90.32 77.64 89.25 78.04 88.45C78.97 86.7 86.43 72.63 87.36 70.88C87.76 70.08 87.83 68.81 87.49 68.01C87.38 67.75 86.48 65.68 86.36 65.42C86.03 64.62 85.03 63.69 84.23 63.35C81.5 62.33 59.61 54.13 56.87 53.1C56.07 52.77 56.07 52.43 56.94 52.37C58.7 52.2 72.81 50.87 74.58 50.7C75.44 50.64 76.84 50.77 77.71 50.97C79.28 51.41 91.85 54.92 93.42 55.36C94.29 55.63 94.82 56.5 94.69 57.36C94.14 60.35 89.77 84.27 89.23 87.26C89.09 88.12 89.09 89.32 89.29 89.98C89.49 90.65 90.36 91.25 91.22 91.45C92.32 91.68 101.05 93.55 102.14 93.78C103.01 93.98 104.41 93.98 105.27 93.78C106.29 93.55 114.44 91.68 115.46 91.45C116.32 91.25 117.19 90.58 117.39 89.98C117.59 89.39 117.65 88.12 117.45 87.26C116.92 84.27 112.6 60.35 112.06 57.36C111.93 56.5 112.46 55.56 113.33 55.36C114.9 54.92 127.47 51.41 129.04 50.97C129.91 50.7 131.3 50.64 132.17 50.7C133.93 50.87 148.05 52.2 149.81 52.37C150.68 52.43 150.74 52.77 149.88 53.1C147.14 54.14 125.25 62.45 122.51 63.49C121.72 63.82 120.72 64.69 120.38 65.55C120.27 65.81 119.37 67.89 119.25 68.15C118.92 68.95 118.92 70.28 119.39 71.01C120.32 72.77 127.83 86.83 128.77 88.59C129.17 89.39 128.91 90.38 128.17 90.92C126.05 92.35 109.06 103.86 106.94 105.3C105.54 106.7 105.67 109.03 107.14 110.36C108.15 111.27 116.24 118.57 117.26 119.48C117.92 120.08 119.12 120.88 119.92 121.21C121.34 121.88 132.68 127.26 134.1 127.93C134.9 128.33 136.1 128.13 136.76 127.6C137.21 127.24 140.78 124.31 141.22 123.94C143.62 122.01 145.42 119.48 146.42 116.62C146.54 116.28 147.55 113.56 147.68 113.22C148.01 112.42 147.95 111.02 147.61 110.22C147.16 109.14 143.48 100.46 143.02 99.37C142.69 98.57 142.89 97.37 143.49 96.71C145.69 94.37 163.32 75.62 165.52 73.27C166.12 72.61 167.06 71.54 167.65 70.88C167.52 70.68 168.72 69.21 169.12 67.61C169.39 66.75 169.33 66.66 169.39 66.42Z" id="cdovQiOyK"></path></defs><g><g><g><use xlink:href="#a34rolyyld" opacity="1" fill="#d01e45" fill-opacity="1"></use><g><use xlink:href="#a34rolyyld" opacity="1" fill-opacity="0" stroke="#000000" stroke-width="1" stroke-opacity="0"></use></g></g><g><use xlink:href="#cQih4bQSZ" opacity="1" fill="#d01e45" fill-opacity="1"></use></g><g><use xlink:href="#cieedNkf9" opacity="1" fill="#d01e45" fill-opacity="1"></use></g><g><use xlink:href="#b23owDImln" opacity="1" fill="#981f39" fill-opacity="1"></use></g><g><use xlink:href="#b1faB75iJz" opacity="1" fill="#d01e45" fill-opacity="1"></use></g><g><use xlink:href="#a4NNyltFFw" opacity="1" fill="#ffffff" fill-opacity="0.2"></use><g><use xlink:href="#a4NNyltFFw" opacity="1" fill-opacity="0" stroke="#000000" stroke-width="1" stroke-opacity="0"></use></g></g><g><use xlink:href="#c1gOAmaWhG" opacity="1" fill="#3e2723" fill-opacity="0.15"></use><g><use xlink:href="#c1gOAmaWhG" opacity="1" fill-opacity="0" stroke="#000000" stroke-width="1" stroke-opacity="0"></use></g></g><g><use xlink:href="#c7VG7UNKy" opacity="1" fill="#d75974" fill-opacity="1"></use><g><use xlink:href="#c7VG7UNKy" opacity="1" fill-opacity="0" stroke="#000000" stroke-width="1" stroke-opacity="0"></use></g></g><g><use xlink:href="#axygRZ6yV" opacity="1" fill="#b42c4a" fill-opacity="1"></use><g><use xlink:href="#axygRZ6yV" opacity="1" fill-opacity="0" stroke="#000000" stroke-width="1" stroke-opacity="0"></use></g></g><g><use xlink:href="#c1sT7KlEt5" opacity="1" fill="#b42c4a" fill-opacity="1"></use><g><use xlink:href="#c1sT7KlEt5" opacity="1" fill-opacity="0" stroke="#000000" stroke-width="1" stroke-opacity="0"></use></g></g><g><use xlink:href="#c19Qvyjxog" opacity="1" fill="#d73156" fill-opacity="1"></use><g><use xlink:href="#c19Qvyjxog" opacity="1" fill-opacity="0" stroke="#000000" stroke-width="1" stroke-opacity="0"></use></g></g><g><use xlink:href="#duu2eqsui" opacity="1" fill="#d75974" fill-opacity="1"></use><g><use xlink:href="#duu2eqsui" opacity="1" fill-opacity="0" stroke="#000000" stroke-width="1" stroke-opacity="0"></use></g></g><g><use xlink:href="#c2MArLPDAz" opacity="1" fill="#d73156" fill-opacity="1"></use><g><use xlink:href="#c2MArLPDAz" opacity="1" fill-opacity="0" stroke="#000000" stroke-width="1" stroke-opacity="0"></use></g></g><g><use xlink:href="#d1WDjrX2XP" opacity="1" fill="#d01e45" fill-opacity="1"></use><g clip-path="url(#clipj2AqItYb3c)"><use xlink:href="#d1WDjrX2XP" opacity="1" fill-opacity="0" stroke="#ffffff" stroke-width="10" stroke-opacity="1"></use></g></g><g><use xlink:href="#dWjz2dnaT" opacity="1" fill="#d01e45" fill-opacity="1"></use><g><use xlink:href="#dWjz2dnaT" opacity="1" fill-opacity="0" stroke="#000000" stroke-width="1" stroke-opacity="0"></use></g></g><g><use xlink:href="#e1V4ZqOYg5" opacity="1" fill="#981f39" fill-opacity="1"></use><g><use xlink:href="#e1V4ZqOYg5" opacity="1" fill-opacity="0" stroke="#000000" stroke-width="1" stroke-opacity="0"></use></g></g><g><use xlink:href="#g1KFgQIHJ7" opacity="1" fill="#b31839" fill-opacity="1"></use><g><use xlink:href="#g1KFgQIHJ7" opacity="1" fill-opacity="0" stroke="#000000" stroke-width="1" stroke-opacity="0"></use></g></g><g><use xlink:href="#li8mj4dbF" opacity="1" fill="#722636" fill-opacity="1"></use></g><g><use xlink:href="#c2FG9Gzgn4" opacity="1" fill="#831f34" fill-opacity="1"></use></g><g><use xlink:href="#d3G0OQUaAE" opacity="1" fill="#981f39" fill-opacity="1"></use></g><g><use xlink:href="#a1TXRHl3ww" opacity="1" fill="#ae304b" fill-opacity="1"></use></g><g><use xlink:href="#e1lMyevW1v" opacity="1" fill="#b4445c" fill-opacity="1"></use></g><g><use xlink:href="#a4L5AnAKld" opacity="1" fill="#c6536c" fill-opacity="1"></use></g><g><use xlink:href="#a187RJixQ" opacity="1" fill="#c6536c" fill-opacity="1"></use></g><g><use xlink:href="#b2IuuXN8oR" opacity="1" fill="#d01e45" fill-opacity="1"></use><g><use xlink:href="#b2IuuXN8oR" opacity="1" fill-opacity="0" stroke="#000000" stroke-width="1" stroke-opacity="0"></use></g></g><g><use xlink:href="#bRRTJM1yC" opacity="1" fill="#d01e45" fill-opacity="1"></use><g><use xlink:href="#bRRTJM1yC" opacity="1" fill-opacity="0" stroke="#000000" stroke-width="1" stroke-opacity="0"></use></g></g><g><use xlink:href="#eGOgRyMyH" opacity="1" fill="url(#gradientabOXTxsar)"></use><g><use xlink:href="#eGOgRyMyH" opacity="1" fill-opacity="0" stroke="#000000" stroke-width="1" stroke-opacity="0"></use></g></g><g><use xlink:href="#a4UGg4GYGK" opacity="1" fill="#d01e45" fill-opacity="1"></use><g><use xlink:href="#a4UGg4GYGK" opacity="1" fill-opacity="0" stroke="#000000" stroke-width="1" stroke-opacity="0"></use></g></g><g><use xlink:href="#b1TxcnQdX7" opacity="1" fill="#000000" fill-opacity="1"></use><g><use xlink:href="#b1TxcnQdX7" opacity="1" fill-opacity="0" stroke="#000000" stroke-width="1" stroke-opacity="0"></use></g></g><g><use xlink:href="#a4THF5rw6" opacity="1" fill="#d01e45" fill-opacity="1"></use><g><use xlink:href="#a4THF5rw6" opacity="1" fill-opacity="0" stroke="#000000" stroke-width="1" stroke-opacity="0"></use></g></g><g><use xlink:href="#hVXu8RXWV" opacity="1" fill="#d01e45" fill-opacity="1"></use><g><use xlink:href="#hVXu8RXWV" opacity="1" fill-opacity="0" stroke="#000000" stroke-width="1" stroke-opacity="0"></use></g></g><g><use xlink:href="#a2ZJAShoEZ" opacity="1" fill="#ffffff" fill-opacity="1"></use><g><use xlink:href="#a2ZJAShoEZ" opacity="1" fill-opacity="0" stroke="#000000" stroke-width="1" stroke-opacity="0"></use></g></g><g><use xlink:href="#a4EbKim9Gv" opacity="1" fill="#ffffff" fill-opacity="1"></use><g><use xlink:href="#a4EbKim9Gv" opacity="1" fill-opacity="0" stroke="#000000" stroke-width="1" stroke-opacity="0"></use></g></g><g><use xlink:href="#bVMhKUyRw" opacity="1" fill="#ffffff" fill-opacity="1"></use><g><use xlink:href="#bVMhKUyRw" opacity="1" fill-opacity="0" stroke="#000000" stroke-width="1" stroke-opacity="0"></use></g></g><g><use xlink:href="#bM9sENGBL" opacity="1" fill="#ffffff" fill-opacity="1"></use><g><use xlink:href="#bM9sENGBL" opacity="1" fill-opacity="0" stroke="#000000" stroke-width="1" stroke-opacity="0"></use></g></g><g><use xlink:href="#a4VHvwoTJu" opacity="1" fill="#ffffff" fill-opacity="1"></use><g><use xlink:href="#a4VHvwoTJu" opacity="1" fill-opacity="0" stroke="#000000" stroke-width="1" stroke-opacity="0"></use></g></g><g><use xlink:href="#b4W7MwIni3" opacity="1" fill="#ffffff" fill-opacity="1"></use><g><use xlink:href="#b4W7MwIni3" opacity="1" fill-opacity="0" stroke="#000000" stroke-width="1" stroke-opacity="0"></use></g></g><g><use xlink:href="#abKpqKDB5s" opacity="1" fill="#ffffff" fill-opacity="0"></use><g><use xlink:href="#abKpqKDB5s" opacity="1" fill-opacity="0" stroke="#bababa" stroke-width="2" stroke-opacity="0.5"></use></g></g><g><use xlink:href="#c10OlYP7n7" opacity="1" fill="url(#gradientdpZsLQBb4)"></use><g><use xlink:href="#c10OlYP7n7" opacity="1" fill-opacity="0" stroke="#000000" stroke-width="1" stroke-opacity="0"></use></g></g><g><use xlink:href="#ayXEdlHK8" opacity="1" fill="url(#gradienta3RHo7T6RN)"></use><g><use xlink:href="#ayXEdlHK8" opacity="1" fill-opacity="0" stroke="#000000" stroke-width="1" stroke-opacity="0"></use></g></g><g><use xlink:href="#b1zTIp8IR5" opacity="1" fill="url(#gradientj1q33tL4GJ)"></use><g><use xlink:href="#b1zTIp8IR5" opacity="1" fill-opacity="0" stroke="#000000" stroke-width="1" stroke-opacity="0"></use></g></g><g><use xlink:href="#bMGU2eGaw" opacity="1" fill="#ffffff" fill-opacity="1"></use><g><use xlink:href="#bMGU2eGaw" opacity="1" fill-opacity="0" stroke="#000000" stroke-width="1" stroke-opacity="0"></use></g></g><g><use xlink:href="#cdovQiOyK" opacity="1" fill="#ffffff" fill-opacity="1"></use><g><use xlink:href="#cdovQiOyK" opacity="1" fill-opacity="0" stroke="#000000" stroke-width="1" stroke-opacity="0"></use></g></g></g></g></svg>