<?xml version="1.0" encoding="UTF-8" standalone="no"?>
<!DOCTYPE svg PUBLIC "-//W3C//DTD SVG 1.1//EN" "http://www.w3.org/Graphics/SVG/1.1/DTD/svg11.dtd">
<svg version="1.1" xmlns="http://www.w3.org/2000/svg" xmlns:xlink="http://www.w3.org/1999/xlink" preserveAspectRatio="xMidYMid meet" viewBox="0 0 200 200" width="200" height="200"><defs><path d="M-292.11 -400L-288.08 -399.59L-284.09 -399.02L-280.16 -398.29L-276.29 -397.42L-272.47 -396.4L-268.71 -395.23L-265.02 -393.91L-261.4 -392.46L-257.84 -390.88L-254.37 -389.16L-250.97 -387.31L-247.65 -385.34L-244.41 -383.24L-241.26 -381.02L-238.21 -378.69L-235.24 -376.24L-232.38 -373.69L-229.61 -371.02L-226.95 -368.26L-224.39 -365.39L-221.94 -362.43L-219.61 -359.37L-217.39 -356.22L-215.3 -352.99L-213.32 -349.67L-211.47 -346.27L-209.76 -342.79L-208.17 -339.24L-206.72 -335.61L-205.41 -331.92L-204.24 -328.16L-203.21 -324.35L-202.34 -320.47L-201.62 -316.54L-201.05 -312.56L-200.64 -308.52L-200.39 -304.45L-200.31 -300.33L-200.31 -300.33L-200.39 -296.21L-200.64 -292.13L-201.05 -288.1L-201.62 -284.12L-202.34 -280.18L-203.21 -276.31L-204.24 -272.49L-205.41 -268.73L-206.72 -265.04L-208.17 -261.42L-209.76 -257.87L-211.47 -254.39L-213.32 -250.99L-215.3 -247.67L-217.39 -244.43L-219.61 -241.28L-221.94 -238.23L-224.39 -235.26L-226.95 -232.4L-229.61 -229.63L-232.38 -226.97L-235.24 -224.41L-238.21 -221.97L-241.26 -219.63L-244.41 -217.42L-247.65 -215.32L-250.97 -213.34L-254.37 -211.5L-257.84 -209.78L-261.4 -208.19L-265.02 -206.74L-268.71 -205.43L-272.47 -204.26L-276.29 -203.24L-280.16 -202.36L-284.09 -201.64L-288.08 -201.07L-292.11 -200.66L-296.19 -200.41L-300.31 -200.33L-304.43 -200.41L-308.5 -200.66L-312.53 -201.07L-316.52 -201.64L-320.45 -202.36L-324.32 -203.24L-328.14 -204.26L-331.9 -205.43L-335.59 -206.74L-339.21 -208.19L-342.77 -209.78L-346.25 -211.5L-349.65 -213.34L-352.97 -215.32L-356.2 -217.42L-359.35 -219.63L-362.41 -221.97L-365.37 -224.41L-368.24 -226.97L-371 -229.63L-373.67 -232.4L-376.22 -235.26L-378.67 -238.23L-381 -241.28L-383.22 -244.43L-385.31 -247.67L-387.29 -250.99L-389.14 -254.39L-390.86 -257.87L-392.44 -261.42L-393.89 -265.04L-395.2 -268.73L-395.56 -269.89L-366.78 -257.79L-366.56 -256.76L-366.3 -255.75L-366.01 -254.76L-365.69 -253.77L-365.33 -252.81L-364.94 -251.85L-364.52 -250.92L-364.07 -250L-363.59 -249.1L-363.08 -248.21L-362.54 -247.35L-361.97 -246.5L-361.38 -245.68L-360.75 -244.87L-360.1 -244.09L-359.43 -243.33L-358.73 -242.6L-358 -241.88L-357.25 -241.2L-356.48 -240.53L-355.69 -239.9L-354.87 -239.29L-354.03 -238.7L-353.17 -238.15L-352.29 -237.62L-351.39 -237.13L-350.48 -236.66L-349.54 -236.22L-348.59 -235.82L-347.61 -235.45L-346.63 -235.11L-345.63 -234.81L-344.61 -234.53L-343.58 -234.3L-342.53 -234.1L-341.47 -233.94L-340.4 -233.81L-339.31 -233.72L-338.22 -233.67L-337.11 -233.66L-335.89 -233.7L-334.68 -233.78L-333.48 -233.91L-332.3 -234.09L-331.13 -234.32L-329.99 -234.59L-328.85 -234.9L-327.74 -235.25L-326.65 -235.65L-325.57 -236.09L-324.52 -236.56L-323.49 -237.08L-322.48 -237.63L-321.5 -238.22L-320.54 -238.85L-319.61 -239.51L-318.71 -240.21L-317.83 -240.94L-316.98 -241.7L-316.16 -242.49L-315.38 -243.32L-314.62 -244.17L-313.9 -245.05L-313.2 -245.96L-312.55 -246.89L-311.93 -247.86L-311.34 -248.84L-310.79 -249.85L-310.28 -250.88L-309.81 -251.94L-309.38 -253.01L-308.99 -254.11L-308.64 -255.22L-308.33 -256.35L-308.07 -257.5L-307.85 -258.67L-307.68 -259.85L-307.55 -261.04L-307.47 -262.25L-307.44 -263.47L-307.36 -263.5L-273.07 -289.06L-271.43 -289.08L-269.82 -289.16L-268.21 -289.3L-266.63 -289.51L-265.08 -289.79L-263.54 -290.12L-262.03 -290.51L-260.54 -290.96L-259.08 -291.46L-257.65 -292.03L-256.25 -292.64L-254.87 -293.31L-253.53 -294.03L-252.22 -294.8L-250.95 -295.61L-249.71 -296.48L-248.51 -297.39L-247.34 -298.35L-246.21 -299.35L-245.12 -300.39L-244.08 -301.47L-243.07 -302.59L-242.11 -303.75L-241.2 -304.95L-240.33 -306.18L-239.51 -307.45L-238.73 -308.74L-238.01 -310.07L-237.33 -311.44L-236.71 -312.83L-236.15 -314.24L-235.63 -315.69L-235.18 -317.15L-234.78 -318.65L-234.43 -320.16L-234.15 -321.7L-233.93 -323.25L-233.77 -324.82L-233.67 -326.41L-233.64 -328.02L-233.67 -329.63L-233.77 -331.22L-233.93 -332.79L-234.15 -334.34L-234.43 -335.87L-234.77 -337.39L-235.17 -338.87L-235.63 -340.34L-236.14 -341.78L-236.7 -343.19L-237.32 -344.57L-237.99 -345.93L-238.71 -347.26L-239.48 -348.55L-240.3 -349.81L-241.16 -351.04L-242.07 -352.23L-243.02 -353.38L-244.02 -354.5L-245.06 -355.58L-246.14 -356.62L-247.25 -357.61L-248.41 -358.57L-249.6 -359.47L-250.83 -360.34L-252.09 -361.15L-253.38 -361.92L-254.71 -362.64L-256.07 -363.31L-257.45 -363.93L-258.86 -364.5L-260.3 -365.01L-261.77 -365.46L-263.26 -365.86L-264.77 -366.2L-266.3 -366.48L-267.85 -366.71L-269.43 -366.86L-271.02 -366.96L-272.62 -366.99L-274.21 -366.96L-275.78 -366.87L-277.33 -366.71L-278.87 -366.5L-280.39 -366.22L-281.88 -365.89L-283.35 -365.5L-284.8 -365.05L-286.23 -364.55L-287.62 -364L-289 -363.39L-290.34 -362.74L-291.65 -362.03L-292.94 -361.28L-294.19 -360.48L-295.4 -359.63L-296.59 -358.74L-297.74 -357.81L-298.85 -356.83L-299.92 -355.82L-300.96 -354.76L-301.95 -353.67L-302.9 -352.53L-303.81 -351.37L-304.68 -350.16L-305.5 -348.93L-306.28 -347.66L-307 -346.36L-307.68 -345.03L-308.31 -343.67L-308.89 -342.28L-309.41 -340.87L-309.88 -339.43L-310.3 -337.97L-310.66 -336.48L-310.96 -334.98L-311.2 -333.45L-311.39 -331.9L-311.51 -330.34L-311.57 -328.76L-336.71 -293.59L-337.19 -293.59L-337.66 -293.59L-338.13 -293.58L-338.6 -293.57L-339.07 -293.55L-339.53 -293.52L-339.99 -293.49L-340.45 -293.44L-340.91 -293.4L-341.36 -293.34L-341.81 -293.28L-342.26 -293.21L-342.71 -293.13L-343.15 -293.05L-343.59 -292.96L-344.03 -292.87L-344.47 -292.77L-344.9 -292.66L-345.33 -292.55L-345.76 -292.43L-346.19 -292.3L-346.61 -292.17L-347.03 -292.03L-347.45 -291.88L-347.86 -291.73L-348.28 -291.57L-348.69 -291.41L-349.09 -291.24L-349.5 -291.06L-349.9 -290.88L-350.3 -290.69L-350.69 -290.49L-351.09 -290.29L-351.48 -290.09L-351.87 -289.87L-352.25 -289.66L-352.63 -289.43L-353.01 -289.2L-353.39 -288.97L-353.76 -288.73L-399.99 -308.17L-399.97 -308.52L-399.56 -312.56L-399 -316.54L-398.27 -320.47L-397.4 -324.35L-396.37 -328.16L-395.2 -331.92L-393.89 -335.61L-392.44 -339.24L-390.86 -342.79L-389.14 -346.27L-387.29 -349.67L-385.31 -352.99L-383.22 -356.22L-381 -359.37L-378.67 -362.43L-376.22 -365.39L-373.67 -368.26L-371 -371.02L-368.24 -373.69L-365.37 -376.24L-362.41 -378.69L-359.35 -381.02L-356.2 -383.24L-352.97 -385.34L-349.65 -387.31L-346.25 -389.16L-342.77 -390.88L-339.21 -392.46L-335.59 -393.91L-331.9 -395.23L-328.14 -396.4L-324.32 -397.42L-320.45 -398.29L-316.52 -399.02L-312.53 -399.59L-308.5 -400L-304.43 -400.24L-300.31 -400.33L-296.19 -400.24L-292.11 -400ZM-335.41 -286.73L-334.44 -286.62L-333.48 -286.48L-332.53 -286.29L-331.6 -286.07L-330.68 -285.81L-329.77 -285.52L-328.89 -285.18L-328.02 -284.82L-327.17 -284.41L-326.33 -283.98L-325.52 -283.51L-324.73 -283.01L-323.96 -282.49L-323.21 -281.93L-322.49 -281.34L-321.79 -280.72L-321.11 -280.08L-320.46 -279.41L-319.84 -278.72L-319.24 -278L-318.68 -277.25L-318.14 -276.49L-317.64 -275.7L-317.16 -274.89L-316.72 -274.06L-316.31 -273.21L-315.94 -272.35L-315.6 -271.46L-315.29 -270.56L-315.02 -269.65L-314.79 -268.71L-314.6 -267.77L-314.45 -266.81L-314.33 -265.84L-314.26 -264.85L-314.23 -263.86L-314.24 -262.85L-314.3 -261.86L-314.39 -260.87L-314.53 -259.9L-314.71 -258.94L-314.92 -258L-315.17 -257.07L-315.46 -256.16L-315.79 -255.26L-316.15 -254.38L-316.55 -253.52L-316.98 -252.68L-317.44 -251.86L-317.93 -251.06L-318.46 -250.28L-319.02 -249.52L-319.6 -248.79L-320.22 -248.09L-320.86 -247.41L-321.53 -246.75L-322.22 -246.13L-322.94 -245.53L-323.68 -244.96L-324.45 -244.42L-325.24 -243.91L-326.05 -243.43L-326.89 -242.98L-327.74 -242.57L-328.61 -242.19L-329.5 -241.85L-330.41 -241.54L-331.33 -241.27L-332.27 -241.04L-333.22 -240.85L-334.19 -240.69L-335.17 -240.58L-336.17 -240.51L-337.17 -240.48L-337.93 -240.49L-338.68 -240.52L-339.43 -240.57L-340.17 -240.65L-340.9 -240.75L-341.62 -240.88L-342.34 -241.02L-343.04 -241.19L-343.74 -241.38L-344.43 -241.59L-345.11 -241.81L-345.78 -242.06L-346.44 -242.33L-347.08 -242.62L-347.72 -242.93L-348.35 -243.25L-348.96 -243.59L-349.56 -243.96L-350.15 -244.33L-350.73 -244.73L-351.3 -245.14L-351.85 -245.57L-352.39 -246.02L-352.91 -246.48L-353.42 -246.95L-353.91 -247.44L-354.39 -247.95L-354.86 -248.47L-355.31 -249L-355.74 -249.54L-356.16 -250.1L-356.56 -250.68L-356.94 -251.26L-357.31 -251.86L-357.66 -252.46L-357.99 -253.08L-358.3 -253.71L-358.6 -254.35L-343.91 -248.18L-343.23 -247.91L-342.54 -247.67L-341.86 -247.47L-341.17 -247.29L-340.48 -247.15L-339.79 -247.03L-339.09 -246.94L-338.4 -246.89L-337.71 -246.86L-337.02 -246.86L-336.34 -246.89L-335.65 -246.95L-334.98 -247.03L-334.3 -247.15L-333.64 -247.28L-332.98 -247.45L-332.33 -247.64L-331.68 -247.86L-331.05 -248.1L-330.43 -248.37L-329.82 -248.67L-329.22 -248.98L-328.63 -249.33L-328.06 -249.69L-327.5 -250.08L-326.96 -250.49L-326.43 -250.93L-325.92 -251.39L-325.42 -251.87L-324.95 -252.37L-324.5 -252.9L-324.06 -253.44L-323.65 -254.01L-323.26 -254.59L-322.89 -255.2L-322.54 -255.83L-322.22 -256.47L-321.92 -257.14L-321.65 -257.81L-321.42 -258.49L-321.21 -259.18L-321.04 -259.87L-320.89 -260.56L-320.78 -261.25L-320.69 -261.94L-320.64 -262.63L-320.61 -263.32L-320.61 -264.01L-320.64 -264.7L-320.7 -265.38L-320.78 -266.06L-320.89 -266.73L-321.03 -267.39L-321.2 -268.05L-321.39 -268.7L-321.61 -269.35L-321.85 -269.98L-322.12 -270.6L-322.41 -271.21L-322.73 -271.81L-323.08 -272.4L-323.44 -272.97L-323.83 -273.53L-324.24 -274.08L-324.68 -274.6L-325.14 -275.11L-325.62 -275.61L-326.12 -276.08L-326.65 -276.54L-327.19 -276.97L-327.76 -277.39L-328.34 -277.78L-328.95 -278.15L-329.58 -278.49L-330.22 -278.81L-330.89 -279.11L-345.57 -285.29L-345.35 -285.37L-345.14 -285.45L-344.92 -285.52L-344.7 -285.6L-344.49 -285.67L-344.27 -285.74L-344.05 -285.8L-343.84 -285.87L-343.62 -285.93L-343.41 -285.99L-343.19 -286.05L-342.98 -286.11L-342.76 -286.16L-342.55 -286.21L-342.33 -286.26L-342.12 -286.31L-341.9 -286.35L-341.69 -286.4L-341.47 -286.44L-341.26 -286.47L-341.04 -286.51L-340.83 -286.54L-340.61 -286.58L-340.4 -286.61L-340.18 -286.63L-339.97 -286.66L-339.75 -286.68L-339.54 -286.71L-339.33 -286.73L-339.11 -286.74L-338.9 -286.76L-338.68 -286.77L-338.47 -286.78L-338.25 -286.79L-338.04 -286.8L-337.82 -286.81L-337.6 -286.81L-337.39 -286.81L-336.4 -286.79L-335.41 -286.73ZM-270 -354.38L-268.71 -354.22L-267.45 -354L-266.2 -353.72L-264.98 -353.39L-263.78 -352.99L-262.61 -352.55L-261.46 -352.04L-260.35 -351.49L-259.26 -350.89L-258.21 -350.24L-257.19 -349.54L-256.2 -348.79L-255.25 -348.01L-254.34 -347.17L-253.47 -346.3L-252.64 -345.39L-251.85 -344.44L-251.1 -343.46L-250.4 -342.43L-249.75 -341.38L-249.15 -340.29L-248.6 -339.18L-248.1 -338.03L-247.65 -336.86L-247.25 -335.66L-246.92 -334.44L-246.64 -333.19L-246.42 -331.93L-246.26 -330.64L-246.16 -329.34L-246.13 -328.02L-246.16 -326.7L-246.26 -325.4L-246.42 -324.11L-246.64 -322.84L-246.92 -321.6L-247.25 -320.38L-247.65 -319.18L-248.09 -318L-248.6 -316.86L-249.15 -315.74L-249.75 -314.66L-250.4 -313.6L-251.1 -312.58L-251.85 -311.59L-252.63 -310.64L-253.46 -309.73L-254.34 -308.86L-255.25 -308.03L-256.2 -307.24L-257.18 -306.49L-258.2 -305.8L-259.26 -305.14L-260.34 -304.54L-261.46 -303.99L-262.61 -303.49L-263.78 -303.04L-264.98 -302.64L-266.2 -302.31L-267.44 -302.03L-268.71 -301.81L-270 -301.65L-271.3 -301.55L-272.62 -301.52L-273.94 -301.55L-275.25 -301.65L-276.53 -301.81L-277.8 -302.03L-279.04 -302.31L-280.26 -302.64L-281.46 -303.04L-282.63 -303.49L-283.78 -303.99L-284.89 -304.54L-285.98 -305.14L-287.03 -305.8L-288.05 -306.49L-289.04 -307.24L-289.99 -308.03L-290.9 -308.86L-291.77 -309.73L-292.61 -310.64L-293.39 -311.59L-294.14 -312.58L-294.84 -313.6L-295.49 -314.66L-296.09 -315.74L-296.65 -316.86L-297.15 -318L-297.6 -319.18L-297.99 -320.38L-298.33 -321.6L-298.61 -322.84L-298.83 -324.11L-298.99 -325.4L-299.08 -326.7L-299.11 -328.02L-299.08 -329.34L-298.99 -330.64L-298.83 -331.93L-298.61 -333.19L-298.33 -334.44L-297.99 -335.66L-297.6 -336.86L-297.15 -338.03L-296.65 -339.18L-296.09 -340.29L-295.49 -341.38L-294.84 -342.43L-294.14 -343.46L-293.39 -344.44L-292.61 -345.39L-291.77 -346.3L-290.9 -347.17L-289.99 -348.01L-289.04 -348.79L-288.05 -349.54L-287.03 -350.24L-285.98 -350.89L-284.89 -351.49L-283.78 -352.04L-282.63 -352.55L-281.46 -352.99L-280.26 -353.39L-279.04 -353.72L-277.8 -354L-276.53 -354.22L-275.25 -354.38L-273.94 -354.48L-272.62 -354.51L-271.3 -354.48L-270 -354.38ZM-275.23 -347.86L-276.49 -347.65L-277.73 -347.37L-278.94 -347.01L-280.12 -346.57L-281.25 -346.07L-282.36 -345.5L-283.42 -344.86L-284.43 -344.16L-285.4 -343.4L-286.32 -342.59L-287.19 -341.72L-288.01 -340.8L-288.77 -339.82L-289.46 -338.81L-290.1 -337.75L-290.67 -336.65L-291.18 -335.51L-291.61 -334.33L-291.97 -333.13L-292.26 -331.89L-292.46 -330.62L-292.59 -329.33L-292.63 -328.02L-292.59 -326.71L-292.46 -325.41L-292.25 -324.15L-291.97 -322.91L-291.61 -321.7L-291.17 -320.53L-290.67 -319.39L-290.1 -318.29L-289.46 -317.23L-288.76 -316.21L-288 -315.24L-287.19 -314.32L-286.32 -313.45L-285.4 -312.63L-284.43 -311.88L-283.41 -311.18L-282.35 -310.54L-281.25 -309.97L-280.11 -309.47L-278.94 -309.03L-277.73 -308.67L-276.49 -308.39L-275.23 -308.18L-273.94 -308.05L-272.62 -308.01L-271.31 -308.05L-270.02 -308.18L-268.75 -308.39L-267.51 -308.67L-266.3 -309.03L-265.13 -309.47L-263.99 -309.97L-262.89 -310.54L-261.83 -311.18L-260.81 -311.88L-259.84 -312.63L-258.92 -313.45L-258.05 -314.32L-257.23 -315.24L-256.48 -316.21L-255.78 -317.23L-255.14 -318.29L-254.57 -319.39L-254.07 -320.53L-253.63 -321.7L-253.27 -322.91L-252.99 -324.15L-252.78 -325.41L-252.66 -326.71L-252.61 -328.02L-252.66 -329.33L-252.78 -330.62L-252.99 -331.89L-253.27 -333.13L-253.63 -334.33L-254.07 -335.51L-254.57 -336.65L-255.14 -337.75L-255.78 -338.81L-256.48 -339.82L-257.23 -340.8L-258.05 -341.72L-258.92 -342.59L-259.84 -343.4L-260.81 -344.16L-261.83 -344.86L-262.89 -345.5L-263.99 -346.07L-265.13 -346.57L-266.3 -347.01L-267.51 -347.37L-268.75 -347.65L-270.02 -347.86L-271.31 -347.98L-272.62 -348.03L-273.94 -347.98L-275.23 -347.86Z" id="b141Ev4mTE"></path><path d="M-187.94 -364.48L-187.9 -364.89L-187.84 -365.29L-187.77 -365.69L-187.68 -366.09L-187.57 -366.48L-187.45 -366.86L-187.32 -367.24L-187.17 -367.61L-187.01 -367.97L-186.84 -368.32L-186.65 -368.67L-186.45 -369.01L-186.23 -369.34L-186.01 -369.66L-185.77 -369.97L-185.52 -370.27L-185.26 -370.56L-184.99 -370.84L-184.71 -371.12L-184.42 -371.38L-184.11 -371.62L-183.8 -371.86L-183.48 -372.09L-183.15 -372.3L-182.81 -372.5L-182.47 -372.69L-182.11 -372.87L-181.75 -373.03L-181.38 -373.17L-181.01 -373.31L-180.62 -373.43L-180.23 -373.53L-179.84 -373.62L-179.44 -373.69L-179.03 -373.75L-178.62 -373.79L-178.21 -373.82L-177.79 -373.83L-141.38 -373.83L-141.38 -355.83L-95.31 -355.83L-95.31 -327.83L-187.97 -327.83L-187.97 -363.64L-187.96 -364.06L-187.94 -364.48Z" id="a5hIdh1B9e"></path><path d="M-118.7 -373.81L-118.51 -373.79L-118.32 -373.77L-118.13 -373.74L-117.94 -373.7L-117.76 -373.65L-117.57 -373.59L-117.39 -373.53L-117.2 -373.46L-117.03 -373.38L-116.85 -373.3L-116.67 -373.21L-116.5 -373.11L-116.34 -373L-116.17 -372.89L-116.01 -372.77L-115.85 -372.64L-115.7 -372.51L-115.55 -372.36L-113.98 -370.79L-113.98 -370.79L-83.71 -340.52L-102.68 -321.55L-157.76 -366.22L-149.13 -373.83L-119.09 -373.83L-118.89 -373.82L-118.7 -373.81ZM-119.09 -370.26L-119.09 -373.83L-119.09 -370.26L-119.09 -370.26Z" id="b9fReMktK"></path><path d="M-118.06 -344.85L-117.87 -344.88L-117.68 -344.91L-117.5 -344.95L-117.31 -345L-117.12 -345.05L-116.94 -345.11L-116.76 -345.18L-116.58 -345.26L-116.4 -345.34L-116.23 -345.44L-116.06 -345.53L-115.89 -345.64L-115.72 -345.75L-115.56 -345.88L-115.41 -346L-115.25 -346.14L-115.1 -346.28L-102.23 -359.15L-23.77 -359.15L-23.31 -359.14L-22.85 -359.11L-22.41 -359.07L-21.96 -359L-21.52 -358.92L-21.09 -358.83L-20.67 -358.71L-20.25 -358.58L-19.84 -358.44L-19.44 -358.28L-19.04 -358.1L-18.65 -357.91L-18.27 -357.7L-17.91 -357.48L-17.55 -357.25L-17.2 -357L-16.85 -356.74L-16.53 -356.47L-16.21 -356.19L-15.9 -355.89L-15.6 -355.58L-15.32 -355.26L-15.05 -354.93L-14.79 -354.59L-14.54 -354.24L-14.31 -353.88L-14.09 -353.51L-13.88 -353.14L-13.69 -352.75L-13.51 -352.35L-13.35 -351.95L-13.21 -351.54L-13.08 -351.12L-12.96 -350.7L-12.87 -350.26L-12.78 -349.83L-12.72 -349.38L-12.68 -348.93L-12.65 -348.48L-12.64 -348.02L-12.64 -245.95L-12.65 -245.49L-12.68 -245.03L-12.72 -244.58L-12.78 -244.14L-12.87 -243.7L-12.96 -243.27L-13.08 -242.85L-13.21 -242.43L-13.35 -242.02L-13.51 -241.61L-13.69 -241.22L-13.88 -240.83L-14.09 -240.45L-14.31 -240.08L-14.54 -239.72L-14.79 -239.37L-15.05 -239.03L-15.32 -238.7L-15.6 -238.38L-15.9 -238.08L-16.21 -237.78L-16.53 -237.5L-16.85 -237.22L-17.2 -236.96L-17.55 -236.72L-17.91 -236.48L-18.27 -236.26L-18.65 -236.06L-19.04 -235.87L-19.44 -235.69L-19.84 -235.53L-20.25 -235.38L-20.67 -235.25L-21.09 -235.14L-21.52 -235.04L-21.96 -234.96L-22.41 -234.9L-22.85 -234.85L-23.31 -234.83L-23.77 -234.82L-176.84 -234.82L-177.3 -234.83L-177.76 -234.85L-178.21 -234.9L-178.65 -234.96L-179.09 -235.04L-179.52 -235.14L-179.94 -235.25L-180.36 -235.38L-180.77 -235.53L-181.18 -235.69L-181.57 -235.87L-181.96 -236.06L-182.34 -236.26L-182.71 -236.48L-183.07 -236.72L-183.42 -236.96L-183.76 -237.22L-184.09 -237.5L-184.41 -237.78L-184.71 -238.08L-185.01 -238.38L-185.29 -238.7L-185.57 -239.03L-185.83 -239.37L-186.07 -239.72L-186.31 -240.08L-186.52 -240.45L-186.73 -240.83L-186.92 -241.22L-187.1 -241.61L-187.26 -242.02L-187.41 -242.43L-187.54 -242.85L-187.65 -243.27L-187.75 -243.7L-187.83 -244.14L-187.89 -244.58L-187.94 -245.03L-187.96 -245.49L-187.97 -245.95L-187.97 -344.82L-118.64 -344.82L-118.45 -344.82L-118.26 -344.83L-118.06 -344.85Z" id="bhaKDXdHJ"></path><path d="M-129.31 -271.83L-129.31 -228.16L-158.97 -228.16L-158.97 -282.68L-158.96 -283.4L-158.91 -284.12L-158.84 -284.84L-158.74 -285.54L-158.61 -286.23L-158.46 -286.92L-158.28 -287.59L-158.07 -288.25L-157.84 -288.91L-157.59 -289.55L-157.31 -290.17L-157 -290.79L-156.68 -291.39L-156.33 -291.97L-155.96 -292.54L-155.57 -293.1L-155.15 -293.64L-154.72 -294.16L-154.27 -294.67L-153.8 -295.16L-153.31 -295.63L-152.81 -296.08L-152.29 -296.51L-151.75 -296.92L-151.19 -297.31L-150.62 -297.68L-150.03 -298.03L-149.43 -298.36L-148.82 -298.66L-148.19 -298.94L-147.55 -299.2L-146.9 -299.43L-146.24 -299.63L-145.56 -299.81L-144.88 -299.97L-144.18 -300.1L-143.48 -300.2L-142.77 -300.27L-142.05 -300.31L-141.32 -300.33L-58.29 -300.33L-57.56 -300.31L-56.84 -300.27L-56.13 -300.2L-55.43 -300.1L-54.73 -299.97L-54.05 -299.81L-53.37 -299.63L-52.71 -299.43L-52.06 -299.2L-51.42 -298.94L-50.79 -298.66L-50.18 -298.36L-49.58 -298.03L-48.99 -297.68L-48.42 -297.31L-47.87 -296.92L-47.33 -296.51L-46.8 -296.08L-46.3 -295.63L-45.81 -295.16L-45.34 -294.67L-44.89 -294.16L-44.46 -293.64L-44.04 -293.1L-43.65 -292.54L-43.28 -291.97L-42.94 -291.39L-42.61 -290.79L-42.31 -290.17L-42.03 -289.55L-41.77 -288.91L-41.54 -288.25L-41.33 -287.59L-41.15 -286.92L-41 -286.23L-40.87 -285.54L-40.77 -284.84L-40.7 -284.12L-40.65 -283.4L-40.64 -282.68L-40.64 -228.16L-70.97 -228.16L-70.97 -271.83L-129.31 -271.83Z" id="c3Cr18nEa7"></path><path d="M199.68 -299.76C199.68 -299.95 199.69 -300.13 199.69 -300.33C199.69 -355.55 154.92 -400.33 99.69 -400.33C44.47 -400.33 -0.32 -355.55 -0.32 -300.33C-0.32 -300.13 -0.31 -299.95 -0.31 -299.76C0 -354.73 44.65 -399.19 99.68 -399.19C154.72 -399.19 199.36 -354.73 199.68 -299.76Z" id="d30Yi1PxtH"></path><path d="M199.68 -300.9C199.68 -300.7 199.69 -300.52 199.69 -300.33C199.69 -245.1 154.92 -200.33 99.69 -200.33C44.47 -200.33 -0.32 -245.1 -0.32 -300.33C-0.32 -300.52 -0.31 -300.7 -0.31 -300.9C0 -245.93 44.65 -201.46 99.69 -201.46C154.72 -201.46 199.36 -245.93 199.68 -300.9Z" id="e1bgPDV2TM"></path><path d="M151 -308.55C127.76 -308.55 97.55 -322.89 97.55 -336.87C97.55 -350.85 116.39 -362.18 139.62 -362.18C157.38 -362.18 180.98 -345.87 189.99 -344.03C190.69 -342.51 191.21 -341.42 191.89 -339.7C191.89 -325.72 174.24 -308.55 151 -308.55Z" id="a1wLN3iLuy"></path><path d="M65.17 -342.21C79.42 -323.86 80.96 -296.66 69.91 -288.09C58.87 -279.52 39.43 -292.81 25.18 -311.17C14.29 -325.19 21.57 -347.91 17.49 -356.15C18.04 -357.15 18.73 -358.34 19.42 -359.46C30.47 -368.03 50.92 -360.57 65.17 -342.21Z" id="i2WJFgxskx"></path><path d="M93.95 -343.98C78.46 -339.42 65.67 -332.15 59 -317.97C54.24 -322.03 22.66 -355.63 19.39 -359.4C47.39 -396.55 85.87 -400.04 93.35 -400.04C100.83 -400.04 156.37 -407.74 189.99 -344.04C183.74 -344.07 135.52 -343.78 93.95 -343.98Z" id="a2uIieUpLA"></path><path d="M90.29 -252.17C104.31 -270.7 126.89 -283.34 138.04 -274.91C149.19 -266.47 144.69 -240.15 130.66 -221.62C119.95 -207.46 99 -206.56 92.1 -200.48C91 -200.52 90.36 -200.54 89.27 -200.69C78.12 -209.13 76.27 -233.64 90.29 -252.17Z" id="aLpiBKWM"></path><path d="M139.1 -283.38C143.04 -299.05 143.87 -313.39 135.04 -326.33C140.94 -328.38 186.98 -338.8 191.89 -339.7C209.7 -296.72 193.18 -261.8 189.39 -255.35C185.59 -248.9 164.05 -197.14 92.1 -200.48C95.3 -205.85 117.84 -247.67 139.1 -283.38Z" id="coMtqLxIW"></path><path d="M65.5 -272.99C77.18 -261.83 90.19 -255.61 105.81 -256.9C104.67 -250.76 90.97 -205.39 89.34 -200.68C43.17 -206.41 20.95 -238.01 17.22 -244.5C13.48 -250.98 -20.9 -295.26 17.53 -356.19C20.62 -350.75 44.93 -309.11 65.5 -272.99Z" id="fZ4euLepL"></path><path d="M145.14 -300.33C145.14 -275.24 124.77 -254.87 99.68 -254.87C74.6 -254.87 54.23 -275.24 54.23 -300.33C54.23 -325.41 74.6 -345.78 99.68 -345.78C124.77 -345.78 145.14 -325.41 145.14 -300.33Z" id="p10LGoCyLz"></path><clipPath id="clipbaS40P2jQ"><use xlink:href="#p10LGoCyLz" opacity="1"></use></clipPath><path d="M-200.31 -35.71C-200.31 -29.35 -204.26 -23.68 -210.21 -21.58C-213.15 -20.2 -227.86 -13.28 -254.33 -0.83L-250.32 -55.21L-250.32 -145.44L-254.33 -199.83C-227.86 -187.38 -213.15 -180.46 -210.21 -179.08C-204.26 -176.97 -200.31 -171.31 -200.31 -164.94C-200.31 -139.1 -200.31 -48.64 -200.31 -35.71Z" id="beIUqVk1n"></path><path d="M-250.32 -145.44C-250.32 -174.46 -250.32 -190.57 -250.32 -193.8C-250.32 -199.8 -257.74 -202.61 -261.7 -198.11C-275.24 -185.7 -383.55 -86.47 -397.09 -74.07C-401.59 -69.91 -401.33 -62.7 -396.55 -58.87C-396.55 -58.87 -389.93 -52.69 -387.53 -50.98C-383.85 -48.35 -379.01 -48.05 -375.37 -50.72C-358.7 -63.35 -317.01 -94.92 -250.32 -145.44Z" id="blM9wUFwI"></path><path d="M-250.32 -55.21C-250.32 -26.2 -250.32 -10.08 -250.32 -6.86C-250.32 -0.85 -257.74 1.96 -261.7 -2.55C-275.24 -14.95 -383.55 -114.18 -397.09 -126.59C-401.59 -130.75 -401.33 -137.95 -396.55 -141.79C-396.55 -141.79 -389.93 -147.96 -387.53 -149.68C-383.85 -152.31 -379.01 -152.61 -375.37 -149.93C-358.7 -137.3 -317.01 -105.73 -250.32 -55.21Z" id="b8LzoprES"></path><path d="M-10.32 -174.95C-4.79 -174.95 -0.32 -170.47 -0.32 -164.95C-0.32 -136.74 -0.32 -62.09 -0.32 -33.88C-0.32 -28.35 -4.79 -23.88 -10.32 -23.88C-48.31 -23.88 -152.31 -23.88 -190.31 -23.88C-195.83 -23.88 -200.31 -28.35 -200.31 -33.88C-200.31 -62.09 -200.31 -136.74 -200.31 -164.95C-200.31 -170.47 -195.83 -174.95 -190.31 -174.95C-152.31 -174.95 -48.31 -174.95 -10.32 -174.95Z" id="e2mlm6nayn"></path><path d="M-9.5 -174.92L-9.09 -174.88L-8.7 -174.82L-8.3 -174.75L-7.91 -174.66L-7.53 -174.56L-7.16 -174.44L-6.79 -174.31L-6.42 -174.17L-6.07 -174.01L-5.72 -173.83L-5.38 -173.65L-5.05 -173.45L-4.73 -173.24L-4.41 -173.02L-4.11 -172.79L-3.81 -172.54L-3.52 -172.29L-3.25 -172.02L-2.98 -171.75L-2.72 -171.46L-2.48 -171.16L-2.25 -170.86L-2.02 -170.54L-1.82 -170.22L-1.62 -169.89L-1.43 -169.55L-1.26 -169.2L-1.1 -168.84L-0.96 -168.48L-0.83 -168.11L-0.71 -167.74L-0.61 -167.35L-0.52 -166.97L-0.45 -166.57L-0.39 -166.17L-0.35 -165.77L-0.33 -165.36L-0.32 -164.95L-0.32 -149.14L-66.33 -149.14L-66.33 -174.95L-10.32 -174.95L-9.9 -174.94L-9.5 -174.92Z" id="c19X8Q6AIk"></path><path d="M-131.38 -149.14L-131.38 -174.95L-66.33 -174.95L-66.33 -149.14L-131.38 -149.14Z" id="a2mZHvdCA8"></path><path d="M-200.31 -149.14L-200.31 -164.95L-200.3 -165.36L-200.27 -165.77L-200.23 -166.17L-200.17 -166.57L-200.1 -166.97L-200.02 -167.35L-199.91 -167.74L-199.8 -168.11L-199.66 -168.48L-199.52 -168.84L-199.36 -169.2L-199.19 -169.55L-199 -169.89L-198.81 -170.22L-198.6 -170.54L-198.38 -170.86L-198.14 -171.16L-197.9 -171.46L-197.64 -171.75L-197.38 -172.02L-197.1 -172.29L-196.81 -172.54L-196.52 -172.79L-196.21 -173.02L-195.9 -173.24L-195.57 -173.45L-195.24 -173.65L-194.9 -173.83L-194.55 -174.01L-194.2 -174.17L-193.84 -174.31L-193.47 -174.44L-193.09 -174.56L-192.71 -174.66L-192.32 -174.75L-191.93 -174.82L-191.53 -174.88L-191.13 -174.92L-190.72 -174.94L-190.31 -174.95L-131.38 -174.95L-131.38 -149.14L-200.31 -149.14Z" id="e1FvT1FiyK"></path><path d="M-132.05 -98.49C-128.73 -101.81 -123.35 -101.81 -120.04 -98.49C-117.94 -96.4 -117.67 -96.12 -115.58 -94.03C-112.26 -90.71 -112.26 -85.33 -115.58 -82.02C-123.63 -73.97 -141.77 -55.83 -149.82 -47.78C-153.13 -44.46 -158.51 -44.46 -161.83 -47.78C-163.92 -49.87 -164.19 -50.14 -166.29 -52.24C-169.61 -55.55 -169.61 -60.93 -166.29 -64.25C-158.24 -72.3 -140.1 -90.44 -132.05 -98.49Z" id="aCRYcwdrj"></path><path d="M-115.58 -93.6C-112.26 -90.28 -112.26 -84.91 -115.58 -81.59C-117.67 -79.49 -117.94 -79.22 -120.04 -77.13C-123.35 -73.81 -128.73 -73.81 -132.05 -77.13C-140.1 -85.18 -158.24 -103.32 -166.29 -111.37C-169.61 -114.68 -169.61 -120.06 -166.29 -123.38C-164.19 -125.47 -163.92 -125.75 -161.83 -127.84C-158.51 -131.16 -153.13 -131.16 -149.82 -127.84C-141.77 -119.79 -123.63 -101.65 -115.58 -93.6Z" id="c3CJLo2ipp"></path><path d="M-37.43 -68.59C-32.74 -68.59 -28.93 -64.78 -28.93 -60.09C-28.93 -57.13 -28.93 -56.75 -28.93 -53.79C-28.93 -49.1 -32.74 -45.29 -37.43 -45.29C-48.81 -45.29 -74.46 -45.29 -85.85 -45.29C-90.54 -45.29 -94.34 -49.1 -94.34 -53.79C-94.34 -56.75 -94.34 -57.13 -94.34 -60.09C-94.34 -64.78 -90.54 -68.59 -85.85 -68.59C-74.46 -68.59 -48.81 -68.59 -37.43 -68.59Z" id="c1G1rv9njW"></path><path d="M71.33 -105.53C71.33 -99.42 75.94 -94.41 81.55 -94.41C87.26 -94.41 91.77 -99.42 91.77 -105.53C91.87 -111.64 87.26 -116.65 81.55 -116.65C75.84 -116.65 71.33 -111.64 71.33 -105.53ZM107.9 -105.53C107.9 -99.42 112.51 -94.41 118.12 -94.41C123.83 -94.41 128.34 -99.42 128.34 -105.53C128.34 -111.64 123.83 -116.65 118.12 -116.65C112.41 -116.65 107.9 -111.64 107.9 -105.53Z" id="a6Loor2L1h"></path><path d="M32.56 -200.71C21.24 -200.71 12.02 -191.49 12.02 -180.07C12.02 -166.52 12.02 -58.16 12.02 -44.61C12.02 -33.19 21.24 -23.97 32.56 -23.97C40.14 -23.97 78.01 -23.97 146.18 -23.97L140.87 -42.51L153.69 -30.59L165.81 -19.36L187.36 -0.33C187.36 -108.17 187.36 -168.09 187.36 -180.07C187.36 -191.49 178.14 -200.71 166.82 -200.71C139.97 -200.71 45.99 -200.71 32.56 -200.71ZM121.53 -77.98C134.66 -81.68 139.66 -89.9 139.66 -89.9C135.56 -87.19 131.65 -85.29 128.14 -83.99C123.13 -81.88 118.32 -80.48 113.62 -79.68C104 -77.87 95.18 -78.38 87.67 -79.78C81.95 -80.88 77.05 -82.48 72.94 -84.09C70.63 -84.99 68.13 -86.09 65.62 -87.49C65.32 -87.69 65.02 -87.79 64.72 -87.99C64.52 -88.09 64.42 -88.19 64.32 -88.29C62.52 -89.3 61.52 -90 61.52 -90C61.52 -90 66.33 -81.98 79.05 -78.18C76.04 -74.37 72.34 -69.86 72.34 -69.86C50.19 -70.56 41.78 -85.09 41.78 -85.09C41.78 -117.35 56.21 -143.5 56.21 -143.5C70.63 -154.32 84.36 -154.02 84.36 -154.02C84.46 -153.9 85.26 -152.94 85.36 -152.82C67.33 -147.61 59.01 -139.69 59.01 -139.69C59.01 -139.69 61.22 -140.89 64.92 -142.6C75.64 -147.31 84.16 -148.61 87.67 -148.91C88.27 -149.01 88.77 -149.11 89.37 -149.11C95.48 -149.91 102.39 -150.11 109.61 -149.31C119.13 -148.21 129.34 -145.4 139.76 -139.69C139.76 -139.69 131.85 -147.21 114.82 -152.42C114.96 -152.58 116.08 -153.86 116.22 -154.02C116.22 -154.02 129.95 -154.32 144.37 -143.5C144.37 -143.5 158.8 -117.35 158.8 -85.09C158.8 -85.09 150.28 -70.56 128.14 -69.86C128.14 -69.86 124.54 -74.17 121.53 -77.98Z" id="b2BoEloZyX"></path><path d="M-300 -0.33C-244.77 -0.33 -200 44.44 -200 99.67C-200 154.9 -244.77 199.67 -300 199.67C-355.22 199.67 -400 154.9 -400 99.67C-400 44.44 -355.22 -0.33 -300 -0.33" id="c4Y5thEvKg"></path><radialGradient id="gradienta1cb3GrG8h" gradientUnits="userSpaceOnUse" cx="-300" cy="99.67" dx="-303.62" dy="95.64" r="5.42"><stop style="stop-color: #000000;stop-opacity: 1" offset="91.34100000000001%"></stop><stop style="stop-color: #000000;stop-opacity: 0" offset="100%"></stop></radialGradient><path d="M-300.49 0.85C-246.4 0.85 -202.55 44.7 -202.55 98.79C-202.55 152.88 -246.4 196.73 -300.49 196.73C-354.58 196.73 -398.43 152.88 -398.43 98.79C-398.43 44.7 -354.58 0.85 -300.49 0.85" id="d1fUU3zg5p"></path><path d="M-389.94 98.79C-389.94 148.19 -349.89 188.24 -300.49 188.24C-251.09 188.24 -211.04 148.19 -211.04 98.79C-211.04 49.39 -251.09 9.34 -300.49 9.34C-349.89 9.34 -389.94 49.39 -389.94 98.79" id="fYSSV8AVS"></path><path d="M-320.46 85.09C-320.81 84.88 -321.16 84.67 -321.51 84.46C-324.88 82.37 -327.93 79.81 -330.56 76.85C-337.48 69.04 -341.09 58.85 -340.61 48.42C-340.55 47.26 -340.45 46.1 -340.3 44.94C-340.15 43.8 -339.95 42.66 -339.7 41.54C-339.32 39.81 -338.88 38.46 -338.79 38.12C-338.27 36.48 -337.72 35.21 -337.61 34.89C-337.15 33.78 -336.64 32.7 -336.09 31.64C-335.5 30.52 -334.86 29.43 -334.18 28.38C-333.23 26.92 -332.35 25.83 -332.15 25.55C-331.38 24.55 -330.55 23.59 -329.68 22.67C-328.36 21.28 -327.2 20.29 -326.93 20.02C-325.95 19.16 -324.93 18.36 -323.88 17.6C-323.06 17.01 -322.39 16.58 -322.22 16.47C-346.01 28.62 -355.76 57.54 -344.19 81.62C-344.02 81.96 -343.89 82.24 -343.85 82.31C-343.78 82.46 -343.71 82.58 -343.7 82.61C-343.67 82.68 -343.64 82.74 -343.6 82.8C-343.54 82.87 -343.52 82.86 -343.42 82.86C-342.9 82.85 -342.38 82.85 -341.86 82.86C-340.43 82.89 -339.28 83.01 -338.99 83.03C-320.81 84.74 -306.07 98.51 -303.11 116.53C-302.46 120.54 -302.41 124.63 -302.98 128.65C-304.05 136.24 -307.28 143.36 -312.28 149.17C-315.14 152.49 -318.53 155.34 -322.3 157.58C-329.83 162.03 -338.61 163.9 -347.31 162.92C-348.88 162.74 -350.44 162.47 -351.98 162.11C-352.98 161.87 -353.97 161.6 -354.94 161.29C-350.55 163.23 -345.9 164.52 -341.14 165.11C-336.69 165.66 -332.19 165.6 -327.76 164.95C-319.84 163.77 -312.32 160.66 -305.87 155.91C-301.14 152.42 -297.07 148.12 -293.84 143.2C-293.63 142.88 -293.47 142.62 -293.43 142.56C-293.38 142.48 -293.26 142.34 -293.27 142.26C-293.33 142.12 -293.4 141.99 -293.48 141.86C-293.89 141.11 -294.18 140.49 -294.26 140.33C-295 138.78 -295.48 137.48 -295.61 137.17C-296.43 134.98 -297.06 132.74 -297.49 130.45C-298.41 125.52 -298.41 120.47 -297.48 115.54C-296.7 111.36 -295.25 107.33 -293.18 103.61C-286.18 90.89 -272.84 82.95 -258.32 82.85C-256.84 82.84 -255.66 82.93 -255.37 82.94C-253.94 83.03 -252.81 83.2 -252.53 83.22C-251.13 83.42 -250.02 83.66 -249.75 83.71C-248.39 83.99 -247.32 84.3 -247.06 84.37C-245.75 84.74 -244.73 85.12 -244.47 85.2C-243.17 85.66 -242.17 86.12 -241.91 86.22C-240.62 86.78 -239.63 87.31 -239.38 87.44C-238.14 88.09 -237.19 88.69 -236.94 88.83C-236.19 89.29 -235.46 89.77 -234.74 90.29C-233.64 91.08 -232.8 91.78 -232.58 91.94C-231.86 92.53 -231.16 93.15 -230.48 93.79C-229.39 94.82 -228.59 95.71 -228.38 95.92C-227.37 97.02 -226.65 97.96 -226.45 98.19C-225.77 99.06 -225.12 99.96 -224.51 100.88C-223.88 101.83 -223.29 102.81 -222.75 103.81C-221.99 105.2 -221.31 106.64 -220.72 108.11C-220.08 109.71 -219.55 111.35 -219.11 113.02C-220.28 104.1 -223.88 95.67 -229.52 88.66C-233.66 83.5 -238.8 79.22 -244.63 76.08C-250.6 72.85 -257.19 70.91 -263.95 70.37C-264.53 70.33 -265.1 70.29 -265.67 70.27C-289.38 87.5 -307.64 92.44 -320.46 85.09Z" id="eSisnPfS"></path><path d="M-30.17 2.04C-113.94 2.04 -160.47 2.04 -169.78 2.04C-181.1 2.04 -185.27 6.22 -185.27 17.54C-185.27 31.2 -185.27 140.48 -185.27 154.15C-185.27 155.43 -185.22 156.62 -185.11 157.72C-184.85 160.19 -184.8 162.59 -182.51 165.31C-182.28 165.58 -179.93 167.32 -179.93 167.32C-178.67 167.94 -177.81 168.4 -176.39 168.97C-169.51 171.85 -114.52 194.89 -107.64 197.77C-104.07 199.41 -102.58 200.05 -99.99 200C-99.99 200 -99.99 200 -99.99 200C-99.98 200 -99.98 200 -99.98 200C-99.97 200 -99.97 200 -99.97 200C-99.97 200 -99.97 200 -99.97 200C-97.37 200.05 -95.88 199.41 -92.31 197.77C-85.44 194.89 -30.44 171.85 -23.57 168.97C-22.14 168.4 -21.28 167.94 -20.02 167.32C-20.02 167.32 -17.67 165.58 -17.45 165.31C-15.15 162.59 -15.1 160.19 -14.84 157.72C-14.73 156.62 -14.68 155.43 -14.68 154.15C-14.68 140.48 -14.68 31.2 -14.68 17.54C-14.68 6.22 -18.86 2.04 -30.17 2.04" id="b1aQLK5Ppt"></path><path d="M-39.52 139.38L-39.55 139.7L-39.59 140.04L-39.65 140.36L-39.74 140.67L-39.8 140.96L-39.9 141.27L-40.02 141.56L-40.15 141.81L-40.27 142.09L-40.43 142.34L-40.59 142.6L-40.78 142.85L-40.93 143.1L-41.12 143.32L-41.34 143.54L-41.53 143.73L-41.78 143.95L-42 144.14L-42.25 144.33L-42.5 144.48L-42.75 144.67L-43.04 144.83L-43.32 144.96L-43.6 145.11L-43.92 145.24L-44.23 145.37L-44.54 145.46L-44.85 145.56L-45.14 145.65L-45.45 145.71L-45.73 145.78L-46.02 145.84L-46.33 145.9L-46.64 145.93L-46.93 145.97L-47.24 146L-47.59 146.03L-47.9 146.06L-48.21 146.06L-48.56 146.06L-48.9 146.06L-49.22 146.06L-49.53 146.03L-49.87 146.03L-50.19 146L-50.5 145.97L-50.85 145.93L-51.16 145.87L-51.47 145.84L-51.79 145.78L-52.1 145.71L-52.42 145.65L-52.73 145.59L-53.04 145.49L-53.33 145.43L-53.64 145.34L-53.95 145.24L-54.24 145.11L-54.55 145.02L-54.83 144.93L-55.14 144.8L-55.43 144.67L-55.71 144.55L-55.99 144.39L-56.27 144.27L-56.56 144.11L-56.81 143.95L-57.09 143.79L-57.34 143.64L-57.59 143.48L-57.84 143.29L-58.09 143.1L-58.35 142.91L-58.6 142.72L-58.82 142.53L-59.07 142.31L-58.88 142.06L-58.66 141.84L-58.47 141.59L-58.25 141.34L-58.06 141.11L-57.87 140.86L-57.65 140.61L-57.47 140.39L-57.25 140.14L-57.06 139.92L-56.84 139.67L-56.65 139.41L-56.46 139.19L-56.24 138.94L-56.05 138.69L-55.84 138.47L-55.65 138.22L-55.4 138.4L-55.11 138.59L-54.86 138.78L-54.58 138.97L-54.33 139.13L-54.05 139.32L-53.8 139.48L-53.51 139.6L-53.26 139.76L-52.98 139.89L-52.7 140.01L-52.42 140.14L-52.13 140.23L-51.85 140.36L-51.54 140.45L-51.22 140.55L-50.94 140.64L-50.63 140.71L-50.31 140.77L-50 140.83L-49.66 140.86L-49.34 140.93L-49.03 140.93L-48.68 140.96L-48.37 140.96L-47.99 140.96L-47.65 140.93L-47.33 140.86L-47.05 140.8L-46.77 140.74L-46.52 140.64L-46.3 140.52L-46.05 140.33L-45.86 140.11L-45.73 139.85L-45.64 139.57L-45.61 139.26L-45.61 139.19L-45.64 138.81L-45.76 138.5L-45.92 138.28L-46.14 138.09L-46.39 137.9L-46.64 137.77L-46.93 137.65L-47.24 137.52L-47.62 137.37L-47.84 137.3L-48.09 137.24L-48.37 137.14L-48.65 137.08L-48.96 136.99L-49.28 136.92L-49.62 136.83L-49.94 136.77L-50.28 136.67L-50.6 136.61L-50.91 136.51L-51.22 136.45L-51.54 136.36L-51.82 136.26L-52.13 136.2L-52.42 136.1L-52.7 136.01L-52.98 135.92L-53.33 135.79L-53.64 135.66L-53.95 135.54L-54.27 135.41L-54.55 135.25L-54.86 135.1L-55.11 134.94L-55.4 134.78L-55.65 134.59L-55.9 134.43L-56.12 134.25L-56.34 134.02L-56.56 133.8L-56.75 133.58L-56.93 133.36L-57.09 133.14L-57.25 132.89L-57.4 132.61L-57.53 132.39L-57.62 132.14L-57.72 131.85L-57.81 131.6L-57.87 131.29L-57.94 131L-57.97 130.69L-58 130.37L-58.03 130.03L-58.03 129.68L-58.03 129.62L-58.03 129.3L-58 128.99L-57.97 128.7L-57.94 128.39L-57.87 128.1L-57.81 127.82L-57.72 127.54L-57.65 127.25L-57.53 126.97L-57.4 126.68L-57.28 126.4L-57.12 126.12L-56.96 125.83L-56.78 125.58L-56.59 125.33L-56.37 125.08L-56.15 124.86L-55.93 124.61L-55.68 124.38L-55.46 124.23L-55.21 124.04L-54.96 123.85L-54.71 123.69L-54.42 123.53L-54.14 123.41L-53.86 123.25L-53.58 123.12L-53.26 123.03L-52.95 122.9L-52.67 122.81L-52.42 122.75L-52.13 122.68L-51.85 122.62L-51.54 122.56L-51.26 122.49L-50.94 122.46L-50.63 122.43L-50.31 122.4L-50 122.37L-49.69 122.37L-49.34 122.37L-49 122.37L-48.65 122.37L-48.31 122.4L-47.96 122.43L-47.65 122.43L-47.3 122.46L-46.99 122.53L-46.64 122.56L-46.33 122.62L-46.05 122.68L-45.73 122.75L-45.42 122.81L-45.14 122.87L-44.82 122.97L-44.54 123.06L-44.26 123.12L-43.94 123.25L-43.66 123.34L-43.38 123.47L-43.1 123.6L-42.78 123.72L-42.5 123.88L-42.25 124.01L-41.97 124.16L-41.69 124.32L-41.44 124.48L-41.15 124.67L-40.9 124.83L-40.65 125.01L-40.4 125.2L-40.15 125.39L-40.34 125.65L-40.5 125.9L-40.68 126.15L-40.87 126.4L-41.06 126.68L-41.22 126.94L-41.41 127.19L-41.59 127.44L-41.75 127.69L-41.94 127.95L-42.13 128.2L-42.28 128.45L-42.47 128.73L-42.66 128.99L-42.85 129.24L-43.01 129.49L-43.19 129.74L-43.44 129.55L-43.73 129.39L-43.98 129.24L-44.23 129.05L-44.51 128.92L-44.76 128.76L-45.04 128.64L-45.29 128.51L-45.58 128.39L-45.83 128.26L-46.11 128.17L-46.36 128.04L-46.71 127.95L-47.02 127.85L-47.33 127.76L-47.65 127.69L-47.96 127.63L-48.27 127.57L-48.59 127.54L-48.9 127.5L-49.18 127.47L-49.5 127.47L-49.87 127.47L-50.22 127.54L-50.53 127.6L-50.82 127.66L-51.07 127.79L-51.29 127.91L-51.57 128.17L-51.76 128.45L-51.88 128.73L-51.91 129.05L-51.91 129.11L-51.88 129.52L-51.73 129.87L-51.6 130.06L-51.38 130.28L-51.1 130.43L-50.85 130.59L-50.53 130.72L-50.19 130.84L-49.81 130.97L-49.56 131.03L-49.31 131.13L-49.03 131.19L-48.75 131.29L-48.43 131.35L-48.09 131.44L-47.74 131.54L-47.4 131.63L-47.05 131.69L-46.74 131.79L-46.39 131.88L-46.08 131.95L-45.76 132.04L-45.45 132.14L-45.17 132.23L-44.85 132.33L-44.57 132.42L-44.29 132.51L-43.94 132.64L-43.63 132.8L-43.32 132.92L-43.01 133.08L-42.72 133.24L-42.44 133.39L-42.19 133.55L-41.94 133.74L-41.69 133.9L-41.44 134.12L-41.18 134.34L-40.97 134.59L-40.75 134.81L-40.56 135.06L-40.37 135.35L-40.21 135.6L-40.06 135.88L-39.93 136.14L-39.84 136.42L-39.74 136.7L-39.68 136.99L-39.62 137.3L-39.55 137.62L-39.52 137.93L-39.49 138.28L-39.49 138.63L-39.49 138.69L-39.49 139.04L-39.52 139.38ZM-61.52 145.68L-61.84 145.68L-62.15 145.68L-62.46 145.68L-62.78 145.68L-63.09 145.68L-63.41 145.68L-63.72 145.68L-64.03 145.68L-64.38 145.68L-64.69 145.68L-65 145.68L-65.32 145.68L-65.63 145.68L-65.95 145.68L-66.26 145.68L-66.57 145.68L-66.89 145.68L-67.2 145.68L-67.51 145.68L-67.83 145.68L-68.14 145.68L-68.46 145.68L-68.77 145.68L-69.08 145.68L-69.4 145.68L-69.71 145.68L-70.02 145.68L-70.34 145.68L-70.68 145.68L-71 145.68L-71.31 145.68L-71.62 145.68L-71.94 145.68L-72.25 145.68L-72.57 145.68L-72.88 145.68L-73.19 145.68L-73.51 145.68L-73.82 145.68L-74.13 145.68L-74.45 145.68L-74.76 145.68L-75.08 145.68L-75.39 145.68L-75.7 145.68L-76.02 145.68L-76.33 145.68L-76.67 145.68L-76.99 145.68L-77.3 145.68L-77.62 145.68L-77.93 145.68L-78.24 145.68L-78.56 145.68L-78.87 145.68L-79.18 145.68L-79.5 145.68L-79.5 145.37L-79.5 145.05L-79.5 144.74L-79.5 144.42L-79.5 144.11L-79.5 143.79L-79.5 143.48L-79.5 143.16L-79.5 142.85L-79.5 142.53L-79.5 142.22L-79.5 141.9L-79.5 141.59L-79.5 141.27L-79.5 140.96L-79.5 140.64L-79.5 140.33L-79.5 140.01L-79.5 139.73L-79.5 139.41L-79.5 139.1L-79.5 138.78L-79.5 138.47L-79.5 138.15L-79.5 137.84L-79.5 137.52L-79.5 137.21L-79.5 136.89L-79.5 136.58L-79.5 136.26L-79.5 135.95L-79.5 135.63L-79.5 135.32L-79.5 135L-79.5 134.69L-79.5 134.37L-79.5 134.06L-79.5 133.74L-79.5 133.43L-79.5 133.11L-79.5 132.8L-79.5 132.48L-79.5 132.17L-79.5 131.85L-79.5 131.54L-79.5 131.22L-79.5 130.91L-79.5 130.59L-79.5 130.28L-79.5 129.96L-79.5 129.65L-79.5 129.33L-79.5 129.02L-79.5 128.7L-79.5 128.42L-79.5 128.1L-79.5 127.79L-79.5 127.47L-79.5 127.16L-79.5 126.84L-79.5 126.53L-79.5 126.21L-79.5 125.9L-79.5 125.58L-79.5 125.27L-79.5 124.95L-79.5 124.64L-79.5 124.32L-79.5 124.01L-79.5 123.69L-79.5 123.38L-79.5 123.06L-79.5 122.75L-79.18 122.75L-78.87 122.75L-78.56 122.75L-78.24 122.75L-77.93 122.75L-77.62 122.75L-77.3 122.75L-76.99 122.75L-76.67 122.75L-76.36 122.75L-76.05 122.75L-75.73 122.75L-75.42 122.75L-75.11 122.75L-74.82 122.75L-74.51 122.75L-74.2 122.75L-73.88 122.75L-73.57 122.75L-73.26 122.75L-72.94 122.75L-72.63 122.75L-72.31 122.75L-72 122.75L-71.69 122.75L-71.37 122.75L-71.06 122.75L-70.75 122.75L-70.43 122.75L-70.12 122.75L-69.8 122.75L-69.49 122.75L-69.18 122.75L-68.86 122.75L-68.55 122.75L-68.24 122.75L-67.92 122.75L-67.61 122.75L-67.3 122.75L-66.98 122.75L-66.67 122.75L-66.35 122.75L-66.04 122.75L-65.76 122.75L-65.44 122.75L-65.13 122.75L-64.82 122.75L-64.5 122.75L-64.19 122.75L-63.88 122.75L-63.56 122.75L-63.25 122.75L-62.93 122.75L-62.62 122.75L-62.31 122.75L-61.99 122.75L-61.68 122.75L-61.37 122.75L-61.37 123.06L-61.37 123.34L-61.37 123.66L-61.37 123.97L-61.37 124.29L-61.37 124.57L-61.37 124.89L-61.37 125.2L-61.37 125.49L-61.37 125.8L-61.37 126.12L-61.37 126.4L-61.37 126.72L-61.37 127.03L-61.37 127.35L-61.37 127.63L-61.37 127.95L-61.68 127.95L-61.99 127.95L-62.31 127.95L-62.62 127.95L-62.93 127.95L-63.25 127.95L-63.53 127.95L-63.84 127.95L-64.16 127.95L-64.47 127.95L-64.79 127.95L-65.1 127.95L-65.41 127.95L-65.73 127.95L-66.04 127.95L-66.35 127.95L-66.67 127.95L-66.98 127.95L-67.3 127.95L-67.58 127.95L-67.89 127.95L-68.2 127.95L-68.52 127.95L-68.83 127.95L-69.15 127.95L-69.46 127.95L-69.77 127.95L-70.09 127.95L-70.4 127.95L-70.71 127.95L-71.03 127.95L-71.34 127.95L-71.62 127.95L-71.94 127.95L-72.25 127.95L-72.57 127.95L-72.88 127.95L-73.19 127.95L-73.51 127.95L-73.51 128.26L-73.51 128.58L-73.51 128.89L-73.51 129.21L-73.51 129.52L-73.51 129.8L-73.51 130.12L-73.51 130.43L-73.51 130.75L-73.51 131.06L-73.51 131.38L-73.51 131.69L-73.19 131.69L-72.88 131.69L-72.57 131.69L-72.25 131.69L-71.94 131.69L-71.62 131.69L-71.31 131.69L-71 131.69L-70.71 131.69L-70.4 131.69L-70.09 131.69L-69.77 131.69L-69.46 131.69L-69.15 131.69L-68.83 131.69L-68.52 131.69L-68.2 131.69L-67.89 131.69L-67.58 131.69L-67.26 131.69L-66.95 131.69L-66.64 131.69L-66.32 131.69L-66.01 131.69L-65.69 131.69L-65.38 131.69L-65.1 131.69L-64.79 131.69L-64.47 131.69L-64.16 131.69L-63.84 131.69L-63.53 131.69L-63.22 131.69L-62.9 131.69L-62.59 131.69L-62.59 132.01L-62.59 132.29L-62.59 132.61L-62.59 132.92L-62.59 133.21L-62.59 133.52L-62.59 133.84L-62.59 134.12L-62.59 134.43L-62.59 134.75L-62.59 135.06L-62.59 135.35L-62.59 135.66L-62.59 135.98L-62.59 136.26L-62.59 136.58L-62.9 136.58L-63.22 136.58L-63.53 136.58L-63.84 136.58L-64.16 136.58L-64.47 136.58L-64.79 136.58L-65.1 136.58L-65.38 136.58L-65.69 136.58L-66.01 136.58L-66.32 136.58L-66.64 136.58L-66.95 136.58L-67.26 136.58L-67.58 136.58L-67.89 136.58L-68.2 136.58L-68.52 136.58L-68.83 136.58L-69.15 136.58L-69.46 136.58L-69.77 136.58L-70.09 136.58L-70.4 136.58L-70.71 136.58L-71 136.58L-71.31 136.58L-71.62 136.58L-71.94 136.58L-72.25 136.58L-72.57 136.58L-72.88 136.58L-73.19 136.58L-73.51 136.58L-73.51 136.89L-73.51 137.24L-73.51 137.55L-73.51 137.87L-73.51 138.22L-73.51 138.53L-73.51 138.85L-73.51 139.19L-73.51 139.51L-73.51 139.82L-73.51 140.17L-73.51 140.48L-73.19 140.48L-72.88 140.48L-72.57 140.48L-72.25 140.48L-71.94 140.48L-71.62 140.48L-71.31 140.48L-71 140.48L-70.68 140.48L-70.34 140.48L-70.02 140.48L-69.71 140.48L-69.4 140.48L-69.08 140.48L-68.77 140.48L-68.46 140.48L-68.14 140.48L-67.83 140.48L-67.51 140.48L-67.2 140.48L-66.89 140.48L-66.57 140.48L-66.26 140.48L-65.95 140.48L-65.63 140.48L-65.32 140.48L-65 140.48L-64.69 140.48L-64.38 140.48L-64.03 140.48L-63.72 140.48L-63.41 140.48L-63.09 140.48L-62.78 140.48L-62.46 140.48L-62.15 140.48L-61.84 140.48L-61.52 140.48L-61.21 140.48L-61.21 140.8L-61.21 141.08L-61.21 141.4L-61.21 141.71L-61.21 142.03L-61.21 142.31L-61.21 142.63L-61.21 142.94L-61.21 143.23L-61.21 143.54L-61.21 143.86L-61.21 144.14L-61.21 144.45L-61.21 144.77L-61.21 145.08L-61.21 145.37L-61.21 145.68L-61.52 145.68ZM-84.44 145.68L-84.76 145.68L-85.07 145.68L-85.42 145.68L-85.73 145.68L-86.04 145.68L-86.36 145.68L-86.67 145.68L-86.98 145.68L-87.33 145.68L-87.64 145.68L-87.96 145.68L-88.27 145.68L-88.58 145.68L-88.9 145.68L-89.24 145.68L-89.56 145.68L-89.87 145.68L-90.18 145.68L-90.18 145.37L-90.18 145.05L-90.18 144.74L-90.18 144.42L-90.18 144.1L-90.18 143.79L-90.18 143.47L-90.18 143.16L-90.18 142.84L-90.18 142.53L-90.18 142.21L-90.18 141.9L-90.18 141.58L-90.18 141.27L-90.18 140.95L-90.18 140.64L-90.18 140.32L-90.18 140L-90.18 139.69L-90.18 139.37L-90.18 139.06L-90.18 138.74L-90.18 138.43L-90.18 138.11L-90.18 137.8L-90.18 137.48L-90.18 137.17L-90.18 136.85L-90.18 136.53L-90.18 136.22L-90.18 135.9L-90.18 135.59L-90.18 135.27L-90.18 134.96L-90.18 134.64L-90.18 134.33L-90.18 134.01L-90.18 133.7L-90.18 133.38L-90.18 133.06L-90.18 132.75L-90.18 132.43L-90.18 132.12L-90.34 132.37L-90.53 132.66L-90.69 132.91L-90.87 133.16L-91.03 133.44L-91.22 133.7L-91.38 133.95L-91.53 134.23L-91.72 134.49L-91.88 134.74L-92.07 134.99L-92.22 135.28L-92.41 135.53L-92.57 135.78L-92.72 136.06L-92.91 136.32L-93.07 136.57L-93.26 136.85L-93.41 137.11L-93.6 137.36L-93.76 137.64L-93.92 137.9L-94.11 138.15L-94.26 138.43L-94.45 138.68L-94.61 138.94L-94.8 139.19L-94.95 139.47L-95.11 139.73L-95.3 139.98L-95.45 140.26L-95.64 140.51L-95.8 140.77L-95.99 141.05L-96.14 141.3L-96.27 141.3L-96.46 141.02L-96.62 140.77L-96.8 140.48L-96.96 140.23L-97.15 139.95L-97.3 139.69L-97.49 139.41L-97.65 139.16L-97.84 138.87L-97.99 138.62L-98.18 138.34L-98.34 138.08L-98.53 137.8L-98.69 137.55L-98.87 137.26L-99.03 137.01L-99.22 136.73L-99.41 136.48L-99.56 136.19L-99.75 135.94L-99.91 135.65L-100.1 135.4L-100.25 135.12L-100.44 134.86L-100.6 134.58L-100.79 134.33L-100.94 134.05L-101.13 133.79L-101.29 133.51L-101.48 133.26L-101.63 132.97L-101.82 132.72L-101.98 132.43L-102.17 132.18L-102.17 132.5L-102.17 132.81L-102.17 133.13L-102.17 133.44L-102.17 133.76L-102.17 134.07L-102.17 134.39L-102.17 134.71L-102.17 135.02L-102.17 135.34L-102.17 135.62L-102.17 135.94L-102.17 136.25L-102.17 136.57L-102.17 136.88L-102.17 137.2L-102.17 137.51L-102.17 137.83L-102.17 138.14L-102.17 138.46L-102.17 138.78L-102.17 139.09L-102.17 139.41L-102.17 139.72L-102.17 140.04L-102.17 140.35L-102.17 140.67L-102.17 140.98L-102.17 141.3L-102.17 141.61L-102.17 141.93L-102.17 142.25L-102.17 142.53L-102.17 142.84L-102.17 143.16L-102.17 143.47L-102.17 143.79L-102.17 144.1L-102.17 144.42L-102.17 144.74L-102.17 145.05L-102.17 145.37L-102.17 145.68L-102.48 145.68L-102.79 145.68L-103.11 145.68L-103.42 145.68L-103.73 145.68L-104.05 145.68L-104.36 145.68L-104.68 145.68L-104.99 145.68L-105.3 145.68L-105.62 145.68L-105.93 145.68L-106.24 145.68L-106.56 145.68L-106.87 145.68L-107.19 145.68L-107.5 145.68L-107.81 145.68L-108.13 145.68L-108.13 145.37L-108.13 145.05L-108.13 144.74L-108.13 144.42L-108.13 144.11L-108.13 143.79L-108.13 143.48L-108.13 143.16L-108.13 142.85L-108.13 142.53L-108.13 142.22L-108.13 141.9L-108.13 141.59L-108.13 141.27L-108.13 140.96L-108.13 140.64L-108.13 140.33L-108.13 140.01L-108.13 139.73L-108.13 139.41L-108.13 139.1L-108.13 138.78L-108.13 138.47L-108.13 138.15L-108.13 137.84L-108.13 137.52L-108.13 137.21L-108.13 136.89L-108.13 136.58L-108.13 136.26L-108.13 135.95L-108.13 135.63L-108.13 135.32L-108.13 135L-108.13 134.69L-108.13 134.37L-108.13 134.06L-108.13 133.74L-108.13 133.43L-108.13 133.11L-108.13 132.8L-108.13 132.48L-108.13 132.17L-108.13 131.85L-108.13 131.54L-108.13 131.22L-108.13 130.91L-108.13 130.59L-108.13 130.28L-108.13 129.96L-108.13 129.65L-108.13 129.33L-108.13 129.02L-108.13 128.7L-108.13 128.42L-108.13 128.1L-108.13 127.79L-108.13 127.47L-108.13 127.16L-108.13 126.84L-108.13 126.53L-108.13 126.21L-108.13 125.9L-108.13 125.58L-108.13 125.27L-108.13 124.95L-108.13 124.64L-108.13 124.32L-108.13 124.01L-108.13 123.69L-108.13 123.38L-108.13 123.06L-108.13 122.75L-107.81 122.75L-107.5 122.75L-107.22 122.75L-106.9 122.75L-106.59 122.75L-106.28 122.75L-105.99 122.75L-105.68 122.75L-105.37 122.75L-105.05 122.75L-104.77 122.75L-104.46 122.75L-104.14 122.75L-103.83 122.75L-103.55 122.75L-103.23 122.75L-102.92 122.75L-102.61 122.75L-102.32 122.75L-102.01 122.75L-101.7 122.75L-101.54 123L-101.38 123.28L-101.2 123.53L-101.04 123.82L-100.88 124.07L-100.72 124.35L-100.57 124.6L-100.38 124.89L-100.22 125.14L-100.06 125.39L-99.91 125.67L-99.75 125.92L-99.56 126.21L-99.41 126.46L-99.25 126.74L-99.09 126.99L-98.9 127.24L-98.75 127.53L-98.59 127.78L-98.43 128.06L-98.28 128.31L-98.09 128.6L-97.93 128.85L-97.78 129.13L-97.62 129.38L-97.46 129.63L-97.27 129.92L-97.12 130.17L-96.96 130.45L-96.8 130.7L-96.65 130.99L-96.46 131.24L-96.3 131.52L-96.14 131.77L-95.99 131.52L-95.83 131.24L-95.64 130.99L-95.49 130.7L-95.33 130.45L-95.17 130.17L-94.98 129.92L-94.83 129.63L-94.67 129.38L-94.51 129.13L-94.32 128.85L-94.17 128.6L-94.01 128.31L-93.85 128.06L-93.67 127.78L-93.51 127.53L-93.35 127.24L-93.2 126.99L-93.04 126.74L-92.85 126.46L-92.69 126.21L-92.54 125.92L-92.38 125.67L-92.19 125.39L-92.03 125.14L-91.88 124.89L-91.72 124.6L-91.53 124.35L-91.38 124.07L-91.22 123.82L-91.06 123.53L-90.87 123.28L-90.72 123L-90.56 122.75L-90.25 122.75L-89.93 122.75L-89.65 122.75L-89.34 122.75L-89.02 122.75L-88.71 122.75L-88.43 122.75L-88.11 122.75L-87.8 122.75L-87.49 122.75L-87.2 122.75L-86.89 122.75L-86.58 122.75L-86.26 122.75L-85.98 122.75L-85.67 122.75L-85.35 122.75L-85.04 122.75L-84.76 122.75L-84.44 122.75L-84.13 122.75L-84.13 123.06L-84.13 123.38L-84.13 123.69L-84.13 124.01L-84.13 124.32L-84.13 124.64L-84.13 124.95L-84.13 125.27L-84.13 125.58L-84.13 125.9L-84.13 126.21L-84.13 126.53L-84.13 126.84L-84.13 127.16L-84.13 127.47L-84.13 127.79L-84.13 128.1L-84.13 128.42L-84.13 128.7L-84.13 129.02L-84.13 129.33L-84.13 129.65L-84.13 129.96L-84.13 130.28L-84.13 130.59L-84.13 130.91L-84.13 131.22L-84.13 131.54L-84.13 131.85L-84.13 132.17L-84.13 132.48L-84.13 132.8L-84.13 133.11L-84.13 133.43L-84.13 133.74L-84.13 134.06L-84.13 134.37L-84.13 134.69L-84.13 135L-84.13 135.32L-84.13 135.63L-84.13 135.95L-84.13 136.26L-84.13 136.58L-84.13 136.89L-84.13 137.21L-84.13 137.52L-84.13 137.84L-84.13 138.15L-84.13 138.47L-84.13 138.78L-84.13 139.1L-84.13 139.41L-84.13 139.73L-84.13 140.01L-84.13 140.33L-84.13 140.64L-84.13 140.96L-84.13 141.27L-84.13 141.59L-84.13 141.9L-84.13 142.22L-84.13 142.53L-84.13 142.85L-84.13 143.16L-84.13 143.48L-84.13 143.79L-84.13 144.11L-84.13 144.42L-84.13 144.74L-84.13 145.05L-84.13 145.37L-84.13 145.68L-84.44 145.68ZM-120.84 136.23L-120.94 135.95L-121.06 135.63L-121.19 135.35L-121.28 135.06L-121.4 134.78L-121.53 134.46L-121.63 134.18L-121.75 133.89L-121.88 133.61L-121.97 133.32L-122.1 133.01L-122.19 132.73L-122.31 132.44L-122.44 132.16L-122.54 131.87L-122.66 131.56L-122.79 131.27L-122.88 130.99L-123.01 130.7L-123.13 130.39L-123.22 130.1L-123.35 129.82L-123.48 130.1L-123.57 130.39L-123.7 130.7L-123.82 130.99L-123.91 131.27L-124.04 131.56L-124.17 131.87L-124.29 132.16L-124.39 132.44L-124.51 132.73L-124.64 133.01L-124.73 133.32L-124.86 133.61L-124.98 133.89L-125.08 134.18L-125.2 134.46L-125.33 134.78L-125.45 135.06L-125.55 135.35L-125.67 135.63L-125.8 135.95L-125.89 136.23L-126.02 136.51L-125.7 136.51L-125.39 136.51L-125.08 136.51L-124.76 136.51L-124.45 136.51L-124.14 136.51L-123.82 136.51L-123.51 136.51L-123.22 136.51L-122.91 136.51L-122.6 136.51L-122.28 136.51L-121.97 136.51L-121.66 136.51L-121.34 136.51L-121.03 136.51L-120.72 136.51L-120.84 136.23ZM-110.99 145.68L-111.3 145.68L-111.59 145.68L-111.9 145.68L-112.21 145.68L-112.53 145.68L-112.84 145.68L-113.12 145.68L-113.44 145.68L-113.75 145.68L-114.06 145.68L-114.38 145.68L-114.69 145.68L-114.97 145.68L-115.29 145.68L-115.6 145.68L-115.92 145.68L-116.23 145.68L-116.51 145.68L-116.82 145.68L-117.14 145.68L-117.26 145.4L-117.36 145.11L-117.48 144.83L-117.61 144.52L-117.7 144.23L-117.83 143.95L-117.96 143.67L-118.05 143.38L-118.17 143.1L-118.3 142.82L-118.39 142.53L-118.52 142.22L-118.64 141.93L-118.74 141.65L-118.87 141.37L-119.18 141.37L-119.49 141.37L-119.81 141.37L-120.12 141.37L-120.4 141.37L-120.72 141.37L-121.03 141.37L-121.34 141.37L-121.66 141.37L-121.97 141.37L-122.28 141.37L-122.6 141.37L-122.91 141.37L-123.22 141.37L-123.51 141.37L-123.82 141.37L-124.14 141.37L-124.45 141.37L-124.76 141.37L-125.08 141.37L-125.39 141.37L-125.7 141.37L-126.02 141.37L-126.33 141.37L-126.61 141.37L-126.93 141.37L-127.24 141.37L-127.56 141.37L-127.87 141.37L-127.99 141.65L-128.09 141.93L-128.21 142.22L-128.34 142.53L-128.43 142.82L-128.56 143.1L-128.68 143.38L-128.78 143.67L-128.9 143.95L-129.03 144.23L-129.12 144.52L-129.25 144.83L-129.37 145.11L-129.47 145.4L-129.59 145.68L-129.91 145.68L-130.22 145.68L-130.53 145.68L-130.85 145.68L-131.16 145.68L-131.51 145.68L-131.82 145.68L-132.13 145.68L-132.45 145.68L-132.76 145.68L-133.07 145.68L-133.39 145.68L-133.7 145.68L-134.02 145.68L-134.33 145.68L-134.67 145.68L-134.99 145.68L-135.3 145.68L-135.62 145.68L-135.93 145.68L-135.81 145.4L-135.68 145.11L-135.55 144.83L-135.43 144.52L-135.33 144.23L-135.21 143.95L-135.08 143.67L-134.96 143.38L-134.83 143.1L-134.71 142.78L-134.58 142.5L-134.46 142.22L-134.36 141.93L-134.24 141.65L-134.11 141.37L-133.98 141.05L-133.86 140.77L-133.73 140.48L-133.61 140.2L-133.48 139.92L-133.39 139.63L-133.26 139.32L-133.14 139.04L-133.01 138.75L-132.89 138.47L-132.76 138.18L-132.64 137.9L-132.51 137.59L-132.42 137.3L-132.29 137.02L-132.16 136.73L-132.04 136.45L-131.91 136.17L-131.79 135.85L-131.66 135.57L-131.54 135.29L-131.44 135L-131.32 134.72L-131.19 134.43L-131.07 134.12L-130.94 133.84L-130.82 133.55L-130.69 133.27L-130.57 132.99L-130.47 132.7L-130.35 132.42L-130.22 132.1L-130.09 131.82L-129.97 131.54L-129.84 131.25L-129.72 130.97L-129.59 130.69L-129.5 130.37L-129.37 130.09L-129.25 129.8L-129.12 129.52L-129 129.24L-128.87 128.95L-128.75 128.64L-128.62 128.35L-128.53 128.07L-128.4 127.79L-128.28 127.5L-128.15 127.22L-128.02 126.91L-127.9 126.62L-127.77 126.34L-127.65 126.05L-127.56 125.77L-127.43 125.49L-127.3 125.17L-127.18 124.89L-127.05 124.61L-126.93 124.32L-126.8 124.04L-126.68 123.75L-126.58 123.44L-126.46 123.16L-126.33 122.87L-126.21 122.59L-125.89 122.59L-125.61 122.59L-125.3 122.59L-124.98 122.59L-124.67 122.59L-124.39 122.59L-124.07 122.59L-123.76 122.59L-123.44 122.59L-123.16 122.59L-122.85 122.59L-122.54 122.59L-122.22 122.59L-121.94 122.59L-121.63 122.59L-121.31 122.59L-121 122.59L-120.72 122.59L-120.4 122.59L-120.28 122.87L-120.15 123.16L-120.03 123.44L-119.9 123.75L-119.81 124.04L-119.68 124.32L-119.55 124.61L-119.43 124.89L-119.3 125.17L-119.18 125.49L-119.05 125.77L-118.93 126.05L-118.83 126.34L-118.71 126.62L-118.58 126.91L-118.46 127.22L-118.33 127.5L-118.21 127.79L-118.08 128.07L-117.96 128.35L-117.86 128.64L-117.73 128.95L-117.61 129.24L-117.48 129.52L-117.36 129.8L-117.23 130.09L-117.11 130.37L-116.98 130.69L-116.89 130.97L-116.76 131.25L-116.64 131.54L-116.51 131.82L-116.39 132.1L-116.26 132.42L-116.14 132.7L-116.01 132.99L-115.92 133.27L-115.79 133.55L-115.66 133.84L-115.54 134.12L-115.41 134.43L-115.29 134.72L-115.16 135L-115.04 135.29L-114.94 135.57L-114.82 135.85L-114.69 136.17L-114.57 136.45L-114.44 136.73L-114.32 137.02L-114.19 137.3L-114.06 137.59L-113.97 137.9L-113.85 138.18L-113.72 138.47L-113.59 138.75L-113.47 139.04L-113.34 139.32L-113.22 139.63L-113.09 139.92L-113 140.2L-112.87 140.48L-112.75 140.77L-112.62 141.05L-112.5 141.37L-112.37 141.65L-112.24 141.93L-112.12 142.22L-112.03 142.5L-111.9 142.78L-111.78 143.1L-111.65 143.38L-111.52 143.67L-111.4 143.95L-111.27 144.23L-111.15 144.52L-111.05 144.83L-110.93 145.11L-110.8 145.4L-110.68 145.68L-110.99 145.68ZM-138.47 142.75L-138.72 142.94L-138.94 143.1L-139.2 143.29L-139.45 143.45L-139.7 143.64L-139.95 143.79L-140.2 143.95L-140.48 144.11L-140.76 144.27L-141.05 144.42L-141.33 144.55L-141.61 144.7L-141.92 144.83L-142.21 144.96L-142.52 145.08L-142.8 145.21L-143.08 145.3L-143.37 145.4L-143.65 145.49L-143.96 145.59L-144.24 145.68L-144.56 145.74L-144.84 145.81L-145.15 145.87L-145.47 145.93L-145.78 145.97L-146.13 146L-146.44 146.03L-146.79 146.06L-147.1 146.09L-147.45 146.12L-147.79 146.12L-148.14 146.12L-148.48 146.12L-148.79 146.12L-149.11 146.09L-149.45 146.06L-149.77 146.03L-150.08 146L-150.39 145.97L-150.71 145.9L-151.02 145.84L-151.3 145.78L-151.62 145.71L-151.9 145.62L-152.21 145.56L-152.5 145.46L-152.78 145.34L-153.06 145.24L-153.37 145.11L-153.66 144.99L-153.94 144.86L-154.22 144.74L-154.5 144.58L-154.75 144.42L-155.04 144.27L-155.29 144.11L-155.54 143.95L-155.79 143.76L-156.04 143.57L-156.29 143.38L-156.51 143.19L-156.73 143.01L-156.95 142.78L-157.17 142.6L-157.39 142.38L-157.61 142.15L-157.8 141.93L-157.98 141.68L-158.17 141.46L-158.33 141.21L-158.52 140.96L-158.68 140.71L-158.83 140.45L-158.99 140.17L-159.15 139.92L-159.27 139.63L-159.4 139.35L-159.52 139.07L-159.65 138.78L-159.74 138.53L-159.87 138.25L-159.93 137.96L-160.02 137.68L-160.09 137.37L-160.18 137.08L-160.24 136.77L-160.28 136.48L-160.34 136.17L-160.37 135.88L-160.4 135.57L-160.43 135.25L-160.46 134.94L-160.46 134.59L-160.46 134.28L-160.46 134.21L-160.46 133.9L-160.43 133.55L-160.43 133.24L-160.4 132.92L-160.37 132.58L-160.31 132.26L-160.28 131.95L-160.21 131.66L-160.12 131.35L-160.05 131.03L-159.96 130.75L-159.87 130.43L-159.77 130.15L-159.65 129.84L-159.52 129.55L-159.4 129.27L-159.27 128.99L-159.15 128.7L-158.99 128.42L-158.83 128.17L-158.68 127.91L-158.52 127.66L-158.36 127.41L-158.17 127.16L-157.98 126.91L-157.8 126.65L-157.61 126.43L-157.39 126.21L-157.2 125.99L-156.98 125.77L-156.76 125.55L-156.54 125.36L-156.29 125.14L-156.07 124.95L-155.82 124.76L-155.57 124.61L-155.32 124.42L-155.07 124.26L-154.82 124.1L-154.54 123.94L-154.25 123.79L-153.97 123.63L-153.69 123.5L-153.4 123.38L-153.09 123.22L-152.84 123.12L-152.53 123.03L-152.24 122.9L-151.96 122.84L-151.68 122.75L-151.37 122.68L-151.08 122.59L-150.77 122.53L-150.46 122.49L-150.14 122.43L-149.83 122.4L-149.52 122.37L-149.2 122.34L-148.89 122.3L-148.54 122.3L-148.23 122.3L-147.88 122.3L-147.54 122.3L-147.19 122.34L-146.85 122.37L-146.54 122.37L-146.22 122.4L-145.88 122.46L-145.59 122.49L-145.28 122.56L-144.97 122.62L-144.68 122.68L-144.4 122.75L-144.12 122.81L-143.84 122.9L-143.55 122.97L-143.3 123.06L-143.02 123.16L-142.74 123.28L-142.46 123.41L-142.17 123.53L-141.89 123.69L-141.61 123.82L-141.36 123.97L-141.08 124.13L-140.83 124.29L-140.54 124.45L-140.29 124.64L-140.04 124.79L-139.79 124.98L-139.54 125.17L-139.29 125.39L-139.04 125.58L-139.23 125.83L-139.45 126.05L-139.63 126.31L-139.85 126.56L-140.04 126.81L-140.23 127.03L-140.45 127.28L-140.64 127.54L-140.83 127.76L-141.05 128.01L-141.23 128.26L-141.45 128.51L-141.64 128.73L-141.83 128.99L-142.05 129.24L-142.24 129.49L-142.46 129.71L-142.64 129.96L-142.9 129.77L-143.15 129.55L-143.4 129.39L-143.65 129.21L-143.9 129.05L-144.15 128.89L-144.4 128.73L-144.68 128.58L-144.94 128.45L-145.19 128.32L-145.44 128.23L-145.72 128.13L-146 128.04L-146.28 127.98L-146.6 127.91L-146.91 127.85L-147.22 127.82L-147.57 127.79L-147.92 127.76L-148.26 127.76L-148.57 127.76L-148.89 127.79L-149.17 127.82L-149.48 127.88L-149.77 127.95L-150.05 128.04L-150.33 128.13L-150.61 128.26L-150.89 128.39L-151.15 128.54L-151.4 128.7L-151.65 128.86L-151.87 129.05L-152.09 129.24L-152.31 129.43L-152.5 129.65L-152.71 129.87L-152.9 130.12L-153.06 130.34L-153.22 130.59L-153.37 130.88L-153.53 131.13L-153.66 131.41L-153.75 131.69L-153.88 131.98L-153.97 132.29L-154.03 132.61L-154.1 132.89L-154.16 133.24L-154.19 133.55L-154.22 133.87L-154.22 134.21L-154.22 134.28L-154.22 134.59L-154.19 134.91L-154.16 135.19L-154.13 135.51L-154.06 135.79L-154 136.07L-153.94 136.36L-153.84 136.64L-153.75 136.89L-153.62 137.21L-153.5 137.49L-153.34 137.77L-153.19 138.03L-153.03 138.28L-152.84 138.53L-152.65 138.75L-152.43 138.97L-152.24 139.19L-152.03 139.38L-151.77 139.57L-151.52 139.76L-151.27 139.92L-151.02 140.07L-150.74 140.2L-150.46 140.33L-150.17 140.45L-149.86 140.55L-149.55 140.64L-149.23 140.71L-148.92 140.77L-148.61 140.8L-148.26 140.83L-147.92 140.83L-147.54 140.83L-147.19 140.8L-146.85 140.77L-146.54 140.74L-146.22 140.67L-145.91 140.61L-145.59 140.52L-145.31 140.45L-145.03 140.33L-144.78 140.2L-144.5 140.07L-144.28 139.95L-144.03 139.79L-144.03 139.48L-144.03 139.16L-144.03 138.85L-144.03 138.53L-144.03 138.18L-144.03 137.87L-144.03 137.55L-144.03 137.24L-144.03 136.92L-144.34 136.92L-144.62 136.92L-144.94 136.92L-145.25 136.92L-145.56 136.92L-145.85 136.92L-146.16 136.92L-146.47 136.92L-146.79 136.92L-147.07 136.92L-147.38 136.92L-147.7 136.92L-148.01 136.92L-148.29 136.92L-148.61 136.92L-148.61 136.61L-148.61 136.33L-148.61 136.01L-148.61 135.7L-148.61 135.38L-148.61 135.1L-148.61 134.78L-148.61 134.47L-148.61 134.15L-148.61 133.87L-148.61 133.55L-148.61 133.24L-148.61 132.92L-148.61 132.64L-148.61 132.33L-148.29 132.33L-147.98 132.33L-147.66 132.33L-147.35 132.33L-147.04 132.33L-146.72 132.33L-146.41 132.33L-146.1 132.33L-145.78 132.33L-145.47 132.33L-145.15 132.33L-144.84 132.33L-144.53 132.33L-144.21 132.33L-143.9 132.33L-143.59 132.33L-143.27 132.33L-142.96 132.33L-142.64 132.33L-142.33 132.33L-142.02 132.33L-141.7 132.33L-141.39 132.33L-141.08 132.33L-140.76 132.33L-140.45 132.33L-140.13 132.33L-139.82 132.33L-139.51 132.33L-139.2 132.33L-138.88 132.33L-138.57 132.33L-138.25 132.33L-138.25 132.64L-138.25 132.95L-138.25 133.27L-138.25 133.55L-138.25 133.87L-138.25 134.18L-138.25 134.5L-138.25 134.81L-138.25 135.13L-138.25 135.41L-138.25 135.73L-138.25 136.04L-138.25 136.36L-138.25 136.67L-138.25 136.99L-138.25 137.3L-138.25 137.59L-138.25 137.9L-138.25 138.22L-138.25 138.53L-138.25 138.85L-138.25 139.16L-138.25 139.48L-138.25 139.76L-138.25 140.07L-138.25 140.39L-138.25 140.71L-138.25 141.02L-138.25 141.34L-138.25 141.62L-138.25 141.93L-138.25 142.25L-138.25 142.56L-138.47 142.75Z" id="b2jjXpabIO"></path><path d="M-148.56 70.85L-134.97 70.85L-134.97 60.33L-148.56 60.33L-148.56 38.86L-134.42 38.86L-134.42 28.35L-160.11 28.35L-160.11 104.25L-134.21 104.25L-134.21 93.73L-148.56 93.73L-148.56 70.85Z" id="b2wiV44jAr"></path><path d="M-51.18 73.13C-51.18 83.41 -51.18 89.12 -51.18 90.26C-51.18 93.3 -52.58 94.71 -55.49 94.71C-55.71 94.71 -57.44 94.71 -57.65 94.71C-60.67 94.71 -62.08 93.3 -62.08 90.26C-62.08 85.47 -62.08 47.13 -62.08 42.33C-62.08 39.3 -60.67 37.89 -57.65 37.89C-57.46 37.89 -55.9 37.89 -55.71 37.89C-52.8 37.89 -51.39 39.3 -51.39 42.33C-51.39 43.32 -51.39 48.28 -51.39 57.19L-40.06 57.19C-40.06 47.89 -40.06 42.72 -40.06 41.68C-40.06 32.25 -44.6 27.7 -53.98 27.7C-54.54 27.7 -59.03 27.7 -59.59 27.7C-68.98 27.7 -73.62 32.36 -73.62 41.79C-73.62 46.69 -73.62 85.9 -73.62 90.8C-73.62 100.24 -68.98 104.9 -59.59 104.9C-59.02 104.9 -54.45 104.9 -53.87 104.9C-44.49 104.9 -39.85 100.24 -39.85 90.8C-39.85 89.62 -39.85 83.73 -39.85 73.13L-51.18 73.13Z" id="cN1wLAI4F"></path><path d="M-91.27 104.25L-79.72 104.25L-79.72 28.35L-91.27 28.35L-91.27 104.25Z" id="b21SOHzn1q"></path><path d="M-108.03 62.07C-108.03 65.1 -109.43 66.51 -112.34 66.51C-112.66 66.51 -114.24 66.51 -117.09 66.51L-117.09 38.54C-114.24 38.54 -112.66 38.54 -112.34 38.54C-109.43 38.54 -108.03 39.95 -108.03 42.98C-108.03 46.8 -108.03 58.25 -108.03 62.07ZM-110.51 28.35L-128.64 28.35L-128.64 104.25L-117.09 104.25L-117.09 76.71C-113.14 76.71 -110.95 76.71 -110.51 76.71C-101.12 76.71 -96.48 72.04 -96.48 62.61C-96.48 60.59 -96.48 44.46 -96.48 42.44C-96.48 33.01 -101.12 28.35 -110.51 28.35" id="a1bL8Kb1Ff"></path><path d="M-132.87 172.88L-66.77 172.88L-100.51 184L-132.87 172.88Z" id="a3I9JEuzW"></path><path d="M99.99 12.16C51.66 12.16 12.49 51.34 12.49 99.66C12.49 147.99 51.66 187.16 99.99 187.16C148.31 187.16 187.49 147.99 187.49 99.66C187.49 51.34 148.31 12.16 99.99 12.16Z" id="bFRCnkZmm"></path><path d="M99.99 12.16C51.66 12.16 12.49 51.34 12.49 99.66C12.49 147.99 51.66 187.16 99.99 187.16C148.31 187.16 187.49 147.99 187.49 99.66C187.49 51.34 148.31 12.16 99.99 12.16Z" id="aqAUTv9SN"></path><linearGradient id="gradientbC0RcZIy0" gradientUnits="userSpaceOnUse" x1="99.99" y1="12.16" x2="99.99" y2="187.16"><stop style="stop-color: #fefefe;stop-opacity: 1" offset="0%"></stop><stop style="stop-color: #e0e0e0;stop-opacity: 1" offset="100%"></stop></linearGradient><path d="M74.29 176.85C78.36 177.56 79.88 175.12 79.88 172.99C79.88 171.06 79.78 164.66 79.78 157.85C59.36 161.6 54.08 152.86 52.46 148.29C51.54 145.95 47.58 138.74 44.13 136.81C41.29 135.28 37.22 131.52 44.03 131.42C50.43 131.32 55 137.32 56.52 139.75C63.83 152.05 75.51 148.6 80.18 146.46C80.89 141.18 83.03 137.62 85.36 135.59C67.29 133.56 48.39 126.54 48.39 95.45C48.39 86.6 51.54 79.29 56.72 73.6C55.91 71.56 53.07 63.23 57.54 52.05C57.54 52.05 64.34 49.92 79.88 60.38C86.38 58.55 93.29 57.64 100.19 57.64C107.1 57.64 114 58.55 120.5 60.38C136.04 49.81 142.85 52.05 142.85 52.05C147.32 63.23 144.47 71.56 143.66 73.59C148.84 79.28 151.99 86.5 151.99 95.44C151.99 126.64 133 133.55 114.92 135.59C117.86 138.13 120.4 143.01 120.4 150.63C120.4 161.5 120.3 170.24 120.3 172.99C120.3 175.12 121.82 177.66 125.89 176.85C157.98 166.08 181.24 135.59 181.24 99.72C181.24 54.79 144.88 18.41 99.99 18.41C55.1 18.41 18.74 54.79 18.74 99.71C18.74 135.69 42 166.08 74.29 176.85Z" id="ctZJjxBRm"></path><linearGradient id="gradientd3DHhTs4Qy" gradientUnits="userSpaceOnUse" x1="99.99" y1="177" x2="99.99" y2="18.41"><stop style="stop-color: #d01e45;stop-opacity: 1" offset="0%"></stop><stop style="stop-color: #e14c4c;stop-opacity: 1" offset="100%"></stop></linearGradient></defs><g><g><g><use xlink:href="#b141Ev4mTE" opacity="1" fill="#d01e45" fill-opacity="1"></use><g><use xlink:href="#b141Ev4mTE" opacity="1" fill-opacity="0" stroke="#000000" stroke-width="1" stroke-opacity="0"></use></g></g><g><use xlink:href="#a5hIdh1B9e" opacity="1" fill="#d01e45" fill-opacity="1"></use></g><g><use xlink:href="#b9fReMktK" opacity="1" fill="#d01e45" fill-opacity="1"></use></g><g><use xlink:href="#bhaKDXdHJ" opacity="1" fill="#981f39" fill-opacity="1"></use></g><g><use xlink:href="#c3Cr18nEa7" opacity="1" fill="#d01e45" fill-opacity="1"></use></g><g><use xlink:href="#d30Yi1PxtH" opacity="1" fill="#ffffff" fill-opacity="0.2"></use><g><use xlink:href="#d30Yi1PxtH" opacity="1" fill-opacity="0" stroke="#000000" stroke-width="1" stroke-opacity="0"></use></g></g><g><use xlink:href="#e1bgPDV2TM" opacity="1" fill="#3e2723" fill-opacity="0.15"></use><g><use xlink:href="#e1bgPDV2TM" opacity="1" fill-opacity="0" stroke="#000000" stroke-width="1" stroke-opacity="0"></use></g></g><g><use xlink:href="#a1wLN3iLuy" opacity="1" fill="#d75974" fill-opacity="1"></use><g><use xlink:href="#a1wLN3iLuy" opacity="1" fill-opacity="0" stroke="#000000" stroke-width="1" stroke-opacity="0"></use></g></g><g><use xlink:href="#i2WJFgxskx" opacity="1" fill="#b42c4a" fill-opacity="1"></use><g><use xlink:href="#i2WJFgxskx" opacity="1" fill-opacity="0" stroke="#000000" stroke-width="1" stroke-opacity="0"></use></g></g><g><use xlink:href="#a2uIieUpLA" opacity="1" fill="#b42c4a" fill-opacity="1"></use><g><use xlink:href="#a2uIieUpLA" opacity="1" fill-opacity="0" stroke="#000000" stroke-width="1" stroke-opacity="0"></use></g></g><g><use xlink:href="#aLpiBKWM" opacity="1" fill="#d73156" fill-opacity="1"></use><g><use xlink:href="#aLpiBKWM" opacity="1" fill-opacity="0" stroke="#000000" stroke-width="1" stroke-opacity="0"></use></g></g><g><use xlink:href="#coMtqLxIW" opacity="1" fill="#d75974" fill-opacity="1"></use><g><use xlink:href="#coMtqLxIW" opacity="1" fill-opacity="0" stroke="#000000" stroke-width="1" stroke-opacity="0"></use></g></g><g><use xlink:href="#fZ4euLepL" opacity="1" fill="#d73156" fill-opacity="1"></use><g><use xlink:href="#fZ4euLepL" opacity="1" fill-opacity="0" stroke="#000000" stroke-width="1" stroke-opacity="0"></use></g></g><g><use xlink:href="#p10LGoCyLz" opacity="1" fill="#d01e45" fill-opacity="1"></use><g clip-path="url(#clipbaS40P2jQ)"><use xlink:href="#p10LGoCyLz" opacity="1" fill-opacity="0" stroke="#ffffff" stroke-width="10" stroke-opacity="1"></use></g></g><g><use xlink:href="#beIUqVk1n" opacity="1" fill="#d01e45" fill-opacity="1"></use><g><use xlink:href="#beIUqVk1n" opacity="1" fill-opacity="0" stroke="#000000" stroke-width="1" stroke-opacity="0"></use></g></g><g><use xlink:href="#blM9wUFwI" opacity="1" fill="#981f39" fill-opacity="1"></use><g><use xlink:href="#blM9wUFwI" opacity="1" fill-opacity="0" stroke="#000000" stroke-width="1" stroke-opacity="0"></use></g></g><g><use xlink:href="#b8LzoprES" opacity="1" fill="#b31839" fill-opacity="1"></use><g><use xlink:href="#b8LzoprES" opacity="1" fill-opacity="0" stroke="#000000" stroke-width="1" stroke-opacity="0"></use></g></g><g><use xlink:href="#e2mlm6nayn" opacity="1" fill="#722636" fill-opacity="1"></use></g><g><use xlink:href="#c19X8Q6AIk" opacity="1" fill="#831f34" fill-opacity="1"></use></g><g><use xlink:href="#a2mZHvdCA8" opacity="1" fill="#981f39" fill-opacity="1"></use></g><g><use xlink:href="#e1FvT1FiyK" opacity="1" fill="#ae304b" fill-opacity="1"></use></g><g><use xlink:href="#aCRYcwdrj" opacity="1" fill="#b4445c" fill-opacity="1"></use></g><g><use xlink:href="#c3CJLo2ipp" opacity="1" fill="#c6536c" fill-opacity="1"></use></g><g><use xlink:href="#c1G1rv9njW" opacity="1" fill="#c6536c" fill-opacity="1"></use></g><g><use xlink:href="#a6Loor2L1h" opacity="1" fill="#d01e45" fill-opacity="1"></use><g><use xlink:href="#a6Loor2L1h" opacity="1" fill-opacity="0" stroke="#000000" stroke-width="1" stroke-opacity="0"></use></g></g><g><use xlink:href="#b2BoEloZyX" opacity="1" fill="#d01e45" fill-opacity="1"></use><g><use xlink:href="#b2BoEloZyX" opacity="1" fill-opacity="0" stroke="#000000" stroke-width="1" stroke-opacity="0"></use></g></g><g><use xlink:href="#c4Y5thEvKg" opacity="1" fill="url(#gradienta1cb3GrG8h)"></use><g><use xlink:href="#c4Y5thEvKg" opacity="1" fill-opacity="0" stroke="#000000" stroke-width="1" stroke-opacity="0"></use></g></g><g><use xlink:href="#d1fUU3zg5p" opacity="1" fill="#d01e45" fill-opacity="1"></use><g><use xlink:href="#d1fUU3zg5p" opacity="1" fill-opacity="0" stroke="#000000" stroke-width="1" stroke-opacity="0"></use></g></g><g><use xlink:href="#fYSSV8AVS" opacity="1" fill="#000000" fill-opacity="1"></use><g><use xlink:href="#fYSSV8AVS" opacity="1" fill-opacity="0" stroke="#000000" stroke-width="1" stroke-opacity="0"></use></g></g><g><use xlink:href="#eSisnPfS" opacity="1" fill="#d01e45" fill-opacity="1"></use><g><use xlink:href="#eSisnPfS" opacity="1" fill-opacity="0" stroke="#000000" stroke-width="1" stroke-opacity="0"></use></g></g><g><use xlink:href="#b1aQLK5Ppt" opacity="1" fill="#d01e45" fill-opacity="1"></use><g><use xlink:href="#b1aQLK5Ppt" opacity="1" fill-opacity="0" stroke="#000000" stroke-width="1" stroke-opacity="0"></use></g></g><g><use xlink:href="#b2jjXpabIO" opacity="1" fill="#ffffff" fill-opacity="1"></use><g><use xlink:href="#b2jjXpabIO" opacity="1" fill-opacity="0" stroke="#000000" stroke-width="1" stroke-opacity="0"></use></g></g><g><use xlink:href="#b2wiV44jAr" opacity="1" fill="#ffffff" fill-opacity="1"></use><g><use xlink:href="#b2wiV44jAr" opacity="1" fill-opacity="0" stroke="#000000" stroke-width="1" stroke-opacity="0"></use></g></g><g><use xlink:href="#cN1wLAI4F" opacity="1" fill="#ffffff" fill-opacity="1"></use><g><use xlink:href="#cN1wLAI4F" opacity="1" fill-opacity="0" stroke="#000000" stroke-width="1" stroke-opacity="0"></use></g></g><g><use xlink:href="#b21SOHzn1q" opacity="1" fill="#ffffff" fill-opacity="1"></use><g><use xlink:href="#b21SOHzn1q" opacity="1" fill-opacity="0" stroke="#000000" stroke-width="1" stroke-opacity="0"></use></g></g><g><use xlink:href="#a1bL8Kb1Ff" opacity="1" fill="#ffffff" fill-opacity="1"></use><g><use xlink:href="#a1bL8Kb1Ff" opacity="1" fill-opacity="0" stroke="#000000" stroke-width="1" stroke-opacity="0"></use></g></g><g><use xlink:href="#a3I9JEuzW" opacity="1" fill="#ffffff" fill-opacity="1"></use><g><use xlink:href="#a3I9JEuzW" opacity="1" fill-opacity="0" stroke="#000000" stroke-width="1" stroke-opacity="0"></use></g></g><g><use xlink:href="#bFRCnkZmm" opacity="1" fill="#ffffff" fill-opacity="0"></use><g><use xlink:href="#bFRCnkZmm" opacity="1" fill-opacity="0" stroke="#bababa" stroke-width="2" stroke-opacity="0.5"></use></g></g><g><use xlink:href="#aqAUTv9SN" opacity="1" fill="url(#gradientbC0RcZIy0)"></use><g><use xlink:href="#aqAUTv9SN" opacity="1" fill-opacity="0" stroke="#000000" stroke-width="1" stroke-opacity="0"></use></g></g><g><use xlink:href="#ctZJjxBRm" opacity="1" fill="url(#gradientd3DHhTs4Qy)"></use><g><use xlink:href="#ctZJjxBRm" opacity="1" fill-opacity="0" stroke="#000000" stroke-width="1" stroke-opacity="0"></use></g></g></g></g></svg>